<mxfile host="Electron" modified="2020-11-26T12:29:08.475Z" agent="5.0 (Macintosh; Intel Mac OS X 10_16_0) AppleWebKit/537.36 (KHTML, like Gecko) draw.io/13.9.9 Chrome/85.0.4183.121 Electron/10.1.5 Safari/537.36" etag="4g_LVOqPDrCrqiQBrvON" compressed="false" version="13.9.9" type="device">
  <diagram id="r_diUwGo9RGok3hw4kvb" name="Wireframes">
    <mxGraphModel dx="4846" dy="4018" grid="1" gridSize="10" guides="1" tooltips="1" connect="1" arrows="1" fold="1" page="1" pageScale="1" pageWidth="827" pageHeight="1169" math="0" shadow="0">
      <root>
        <mxCell id="N6LhWgBp62tD6HMa2VJL-0" />
        <mxCell id="N6LhWgBp62tD6HMa2VJL-1" parent="N6LhWgBp62tD6HMa2VJL-0" />
        <mxCell id="orDnvlcrRDZUVHWyzbNt-166" value="" style="group;rounded=1;strokeColor=#000000;strokeWidth=6;fontColor=#000000;fillColor=#ffffff;" vertex="1" connectable="0" parent="N6LhWgBp62tD6HMa2VJL-1">
          <mxGeometry x="-1764" y="292" width="366" height="763" as="geometry" />
        </mxCell>
        <mxCell id="orDnvlcrRDZUVHWyzbNt-167" value="" style="rounded=1;whiteSpace=wrap;html=1;strokeWidth=6;fillColor=none;" vertex="1" parent="orDnvlcrRDZUVHWyzbNt-166">
          <mxGeometry x="2.869999999999891" width="360" height="763" as="geometry" />
        </mxCell>
        <mxCell id="orDnvlcrRDZUVHWyzbNt-168" value="" style="rounded=1;whiteSpace=wrap;html=1;strokeWidth=6;fillColor=none;perimeterSpacing=0;" vertex="1" parent="orDnvlcrRDZUVHWyzbNt-166">
          <mxGeometry x="87.6400000000001" y="0.75" width="190" height="17.25" as="geometry" />
        </mxCell>
        <mxCell id="orDnvlcrRDZUVHWyzbNt-169" value="" style="ellipse;whiteSpace=wrap;html=1;rounded=1;strokeWidth=6;fillColor=#000000;" vertex="1" parent="orDnvlcrRDZUVHWyzbNt-166">
          <mxGeometry x="87.6400000000001" y="3" width="28" height="26" as="geometry" />
        </mxCell>
        <mxCell id="orDnvlcrRDZUVHWyzbNt-170" value="" style="ellipse;whiteSpace=wrap;html=1;rounded=1;strokeWidth=6;fillColor=#000000;" vertex="1" parent="orDnvlcrRDZUVHWyzbNt-166">
          <mxGeometry x="249.6400000000001" y="3" width="28" height="26" as="geometry" />
        </mxCell>
        <mxCell id="orDnvlcrRDZUVHWyzbNt-171" value="" style="rounded=0;whiteSpace=wrap;html=1;strokeWidth=6;fillColor=#000000;" vertex="1" parent="orDnvlcrRDZUVHWyzbNt-166">
          <mxGeometry x="102.87000000000012" y="5" width="160" height="24" as="geometry" />
        </mxCell>
        <mxCell id="orDnvlcrRDZUVHWyzbNt-172" value="" style="rounded=1;whiteSpace=wrap;html=1;strokeWidth=6;fillColor=none;strokeColor=#FFFFFF;" vertex="1" parent="orDnvlcrRDZUVHWyzbNt-166">
          <mxGeometry x="162" y="13" width="42" height="2" as="geometry" />
        </mxCell>
        <mxCell id="orDnvlcrRDZUVHWyzbNt-173" value="" style="rounded=1;whiteSpace=wrap;html=1;strokeWidth=6;fillColor=none;strokeColor=#FFFFFF;" vertex="1" parent="orDnvlcrRDZUVHWyzbNt-166">
          <mxGeometry x="219" y="13" width="2" height="2" as="geometry" />
        </mxCell>
        <mxCell id="orDnvlcrRDZUVHWyzbNt-174" value="" style="rounded=1;whiteSpace=wrap;html=1;strokeWidth=6;fillColor=none;" vertex="1" parent="orDnvlcrRDZUVHWyzbNt-166">
          <mxGeometry x="364" y="168" width="2" height="82" as="geometry" />
        </mxCell>
        <mxCell id="orDnvlcrRDZUVHWyzbNt-175" value="" style="rounded=1;whiteSpace=wrap;html=1;strokeWidth=6;fillColor=none;" vertex="1" parent="orDnvlcrRDZUVHWyzbNt-166">
          <mxGeometry y="217" width="1" height="49" as="geometry" />
        </mxCell>
        <mxCell id="orDnvlcrRDZUVHWyzbNt-176" value="" style="rounded=1;whiteSpace=wrap;html=1;strokeWidth=6;fillColor=none;" vertex="1" parent="orDnvlcrRDZUVHWyzbNt-166">
          <mxGeometry y="95.5" width="1" height="24" as="geometry" />
        </mxCell>
        <mxCell id="orDnvlcrRDZUVHWyzbNt-177" value="" style="rounded=1;whiteSpace=wrap;html=1;strokeWidth=6;fillColor=none;" vertex="1" parent="orDnvlcrRDZUVHWyzbNt-166">
          <mxGeometry y="150" width="1" height="49" as="geometry" />
        </mxCell>
        <mxCell id="orDnvlcrRDZUVHWyzbNt-154" value="" style="group;rounded=1;strokeColor=#000000;strokeWidth=6;fontColor=#000000;fillColor=#ffffff;" vertex="1" connectable="0" parent="N6LhWgBp62tD6HMa2VJL-1">
          <mxGeometry x="-1143" y="288" width="366" height="763" as="geometry" />
        </mxCell>
        <mxCell id="orDnvlcrRDZUVHWyzbNt-155" value="" style="rounded=1;whiteSpace=wrap;html=1;strokeWidth=6;fillColor=none;" vertex="1" parent="orDnvlcrRDZUVHWyzbNt-154">
          <mxGeometry x="2.869999999999891" width="360" height="763" as="geometry" />
        </mxCell>
        <mxCell id="orDnvlcrRDZUVHWyzbNt-156" value="" style="rounded=1;whiteSpace=wrap;html=1;strokeWidth=6;fillColor=none;perimeterSpacing=0;" vertex="1" parent="orDnvlcrRDZUVHWyzbNt-154">
          <mxGeometry x="87.6400000000001" y="0.75" width="190" height="17.25" as="geometry" />
        </mxCell>
        <mxCell id="orDnvlcrRDZUVHWyzbNt-157" value="" style="ellipse;whiteSpace=wrap;html=1;rounded=1;strokeWidth=6;fillColor=#000000;" vertex="1" parent="orDnvlcrRDZUVHWyzbNt-154">
          <mxGeometry x="87.6400000000001" y="3" width="28" height="26" as="geometry" />
        </mxCell>
        <mxCell id="orDnvlcrRDZUVHWyzbNt-158" value="" style="ellipse;whiteSpace=wrap;html=1;rounded=1;strokeWidth=6;fillColor=#000000;" vertex="1" parent="orDnvlcrRDZUVHWyzbNt-154">
          <mxGeometry x="249.6400000000001" y="3" width="28" height="26" as="geometry" />
        </mxCell>
        <mxCell id="orDnvlcrRDZUVHWyzbNt-159" value="" style="rounded=0;whiteSpace=wrap;html=1;strokeWidth=6;fillColor=#000000;" vertex="1" parent="orDnvlcrRDZUVHWyzbNt-154">
          <mxGeometry x="102.87000000000012" y="5" width="160" height="24" as="geometry" />
        </mxCell>
        <mxCell id="orDnvlcrRDZUVHWyzbNt-160" value="" style="rounded=1;whiteSpace=wrap;html=1;strokeWidth=6;fillColor=none;strokeColor=#FFFFFF;" vertex="1" parent="orDnvlcrRDZUVHWyzbNt-154">
          <mxGeometry x="162" y="13" width="42" height="2" as="geometry" />
        </mxCell>
        <mxCell id="orDnvlcrRDZUVHWyzbNt-161" value="" style="rounded=1;whiteSpace=wrap;html=1;strokeWidth=6;fillColor=none;strokeColor=#FFFFFF;" vertex="1" parent="orDnvlcrRDZUVHWyzbNt-154">
          <mxGeometry x="219" y="13" width="2" height="2" as="geometry" />
        </mxCell>
        <mxCell id="orDnvlcrRDZUVHWyzbNt-162" value="" style="rounded=1;whiteSpace=wrap;html=1;strokeWidth=6;fillColor=none;" vertex="1" parent="orDnvlcrRDZUVHWyzbNt-154">
          <mxGeometry x="364" y="168" width="2" height="82" as="geometry" />
        </mxCell>
        <mxCell id="orDnvlcrRDZUVHWyzbNt-163" value="" style="rounded=1;whiteSpace=wrap;html=1;strokeWidth=6;fillColor=none;" vertex="1" parent="orDnvlcrRDZUVHWyzbNt-154">
          <mxGeometry y="217" width="1" height="49" as="geometry" />
        </mxCell>
        <mxCell id="orDnvlcrRDZUVHWyzbNt-164" value="" style="rounded=1;whiteSpace=wrap;html=1;strokeWidth=6;fillColor=none;" vertex="1" parent="orDnvlcrRDZUVHWyzbNt-154">
          <mxGeometry y="95.5" width="1" height="24" as="geometry" />
        </mxCell>
        <mxCell id="orDnvlcrRDZUVHWyzbNt-165" value="" style="rounded=1;whiteSpace=wrap;html=1;strokeWidth=6;fillColor=none;" vertex="1" parent="orDnvlcrRDZUVHWyzbNt-154">
          <mxGeometry y="150" width="1" height="49" as="geometry" />
        </mxCell>
        <mxCell id="orDnvlcrRDZUVHWyzbNt-142" value="" style="group;rounded=1;strokeColor=#000000;strokeWidth=6;fontColor=#000000;fillColor=#ffffff;" vertex="1" connectable="0" parent="N6LhWgBp62tD6HMa2VJL-1">
          <mxGeometry x="-554" y="-121" width="366" height="763" as="geometry" />
        </mxCell>
        <mxCell id="orDnvlcrRDZUVHWyzbNt-143" value="" style="rounded=1;whiteSpace=wrap;html=1;strokeWidth=6;fillColor=none;" vertex="1" parent="orDnvlcrRDZUVHWyzbNt-142">
          <mxGeometry x="2.869999999999891" width="360" height="763" as="geometry" />
        </mxCell>
        <mxCell id="orDnvlcrRDZUVHWyzbNt-144" value="" style="rounded=1;whiteSpace=wrap;html=1;strokeWidth=6;fillColor=none;perimeterSpacing=0;" vertex="1" parent="orDnvlcrRDZUVHWyzbNt-142">
          <mxGeometry x="87.6400000000001" y="0.75" width="190" height="17.25" as="geometry" />
        </mxCell>
        <mxCell id="orDnvlcrRDZUVHWyzbNt-145" value="" style="ellipse;whiteSpace=wrap;html=1;rounded=1;strokeWidth=6;fillColor=#000000;" vertex="1" parent="orDnvlcrRDZUVHWyzbNt-142">
          <mxGeometry x="87.6400000000001" y="3" width="28" height="26" as="geometry" />
        </mxCell>
        <mxCell id="orDnvlcrRDZUVHWyzbNt-146" value="" style="ellipse;whiteSpace=wrap;html=1;rounded=1;strokeWidth=6;fillColor=#000000;" vertex="1" parent="orDnvlcrRDZUVHWyzbNt-142">
          <mxGeometry x="249.6400000000001" y="3" width="28" height="26" as="geometry" />
        </mxCell>
        <mxCell id="orDnvlcrRDZUVHWyzbNt-147" value="" style="rounded=0;whiteSpace=wrap;html=1;strokeWidth=6;fillColor=#000000;" vertex="1" parent="orDnvlcrRDZUVHWyzbNt-142">
          <mxGeometry x="102.87000000000012" y="5" width="160" height="24" as="geometry" />
        </mxCell>
        <mxCell id="orDnvlcrRDZUVHWyzbNt-148" value="" style="rounded=1;whiteSpace=wrap;html=1;strokeWidth=6;fillColor=none;strokeColor=#FFFFFF;" vertex="1" parent="orDnvlcrRDZUVHWyzbNt-142">
          <mxGeometry x="162" y="13" width="42" height="2" as="geometry" />
        </mxCell>
        <mxCell id="orDnvlcrRDZUVHWyzbNt-149" value="" style="rounded=1;whiteSpace=wrap;html=1;strokeWidth=6;fillColor=none;strokeColor=#FFFFFF;" vertex="1" parent="orDnvlcrRDZUVHWyzbNt-142">
          <mxGeometry x="219" y="13" width="2" height="2" as="geometry" />
        </mxCell>
        <mxCell id="orDnvlcrRDZUVHWyzbNt-150" value="" style="rounded=1;whiteSpace=wrap;html=1;strokeWidth=6;fillColor=none;" vertex="1" parent="orDnvlcrRDZUVHWyzbNt-142">
          <mxGeometry x="364" y="168" width="2" height="82" as="geometry" />
        </mxCell>
        <mxCell id="orDnvlcrRDZUVHWyzbNt-151" value="" style="rounded=1;whiteSpace=wrap;html=1;strokeWidth=6;fillColor=none;" vertex="1" parent="orDnvlcrRDZUVHWyzbNt-142">
          <mxGeometry y="217" width="1" height="49" as="geometry" />
        </mxCell>
        <mxCell id="orDnvlcrRDZUVHWyzbNt-152" value="" style="rounded=1;whiteSpace=wrap;html=1;strokeWidth=6;fillColor=none;" vertex="1" parent="orDnvlcrRDZUVHWyzbNt-142">
          <mxGeometry y="95.5" width="1" height="24" as="geometry" />
        </mxCell>
        <mxCell id="orDnvlcrRDZUVHWyzbNt-153" value="" style="rounded=1;whiteSpace=wrap;html=1;strokeWidth=6;fillColor=none;" vertex="1" parent="orDnvlcrRDZUVHWyzbNt-142">
          <mxGeometry y="150" width="1" height="49" as="geometry" />
        </mxCell>
        <mxCell id="t3Ic-TG8_IldfPgCIFjd-305" value="" style="html=1;verticalLabelPosition=bottom;labelBackgroundColor=#ffffff;verticalAlign=top;shadow=0;dashed=0;strokeWidth=1;shape=mxgraph.ios7ui.onOffButton;buttonState=on;strokeColor=#38D145;strokeColor2=#aaaaaa;fillColor=#38D145;fillColor2=#ffffff;rounded=0;fontSize=18;fontColor=#000000;align=left;" parent="orDnvlcrRDZUVHWyzbNt-142" vertex="1">
          <mxGeometry x="304" y="204.25" width="43.5" height="15" as="geometry" />
        </mxCell>
        <mxCell id="orDnvlcrRDZUVHWyzbNt-130" value="" style="group;rounded=1;strokeColor=#000000;strokeWidth=6;fontColor=#000000;fillColor=#ffffff;" vertex="1" connectable="0" parent="N6LhWgBp62tD6HMa2VJL-1">
          <mxGeometry x="218" y="175" width="366" height="763" as="geometry" />
        </mxCell>
        <mxCell id="orDnvlcrRDZUVHWyzbNt-131" value="" style="rounded=1;whiteSpace=wrap;html=1;strokeWidth=6;fillColor=none;" vertex="1" parent="orDnvlcrRDZUVHWyzbNt-130">
          <mxGeometry x="2.869999999999891" width="360" height="763" as="geometry" />
        </mxCell>
        <mxCell id="orDnvlcrRDZUVHWyzbNt-132" value="" style="rounded=1;whiteSpace=wrap;html=1;strokeWidth=6;fillColor=none;perimeterSpacing=0;" vertex="1" parent="orDnvlcrRDZUVHWyzbNt-130">
          <mxGeometry x="87.6400000000001" y="0.75" width="190" height="17.25" as="geometry" />
        </mxCell>
        <mxCell id="orDnvlcrRDZUVHWyzbNt-133" value="" style="ellipse;whiteSpace=wrap;html=1;rounded=1;strokeWidth=6;fillColor=#000000;" vertex="1" parent="orDnvlcrRDZUVHWyzbNt-130">
          <mxGeometry x="87.6400000000001" y="3" width="28" height="26" as="geometry" />
        </mxCell>
        <mxCell id="orDnvlcrRDZUVHWyzbNt-134" value="" style="ellipse;whiteSpace=wrap;html=1;rounded=1;strokeWidth=6;fillColor=#000000;" vertex="1" parent="orDnvlcrRDZUVHWyzbNt-130">
          <mxGeometry x="249.6400000000001" y="3" width="28" height="26" as="geometry" />
        </mxCell>
        <mxCell id="orDnvlcrRDZUVHWyzbNt-135" value="" style="rounded=0;whiteSpace=wrap;html=1;strokeWidth=6;fillColor=#000000;" vertex="1" parent="orDnvlcrRDZUVHWyzbNt-130">
          <mxGeometry x="102.87000000000012" y="5" width="160" height="24" as="geometry" />
        </mxCell>
        <mxCell id="orDnvlcrRDZUVHWyzbNt-136" value="" style="rounded=1;whiteSpace=wrap;html=1;strokeWidth=6;fillColor=none;strokeColor=#FFFFFF;" vertex="1" parent="orDnvlcrRDZUVHWyzbNt-130">
          <mxGeometry x="162" y="13" width="42" height="2" as="geometry" />
        </mxCell>
        <mxCell id="orDnvlcrRDZUVHWyzbNt-137" value="" style="rounded=1;whiteSpace=wrap;html=1;strokeWidth=6;fillColor=none;strokeColor=#FFFFFF;" vertex="1" parent="orDnvlcrRDZUVHWyzbNt-130">
          <mxGeometry x="219" y="13" width="2" height="2" as="geometry" />
        </mxCell>
        <mxCell id="orDnvlcrRDZUVHWyzbNt-138" value="" style="rounded=1;whiteSpace=wrap;html=1;strokeWidth=6;fillColor=none;" vertex="1" parent="orDnvlcrRDZUVHWyzbNt-130">
          <mxGeometry x="364" y="168" width="2" height="82" as="geometry" />
        </mxCell>
        <mxCell id="orDnvlcrRDZUVHWyzbNt-139" value="" style="rounded=1;whiteSpace=wrap;html=1;strokeWidth=6;fillColor=none;" vertex="1" parent="orDnvlcrRDZUVHWyzbNt-130">
          <mxGeometry y="217" width="1" height="49" as="geometry" />
        </mxCell>
        <mxCell id="orDnvlcrRDZUVHWyzbNt-140" value="" style="rounded=1;whiteSpace=wrap;html=1;strokeWidth=6;fillColor=none;" vertex="1" parent="orDnvlcrRDZUVHWyzbNt-130">
          <mxGeometry y="95.5" width="1" height="24" as="geometry" />
        </mxCell>
        <mxCell id="orDnvlcrRDZUVHWyzbNt-141" value="" style="rounded=1;whiteSpace=wrap;html=1;strokeWidth=6;fillColor=none;" vertex="1" parent="orDnvlcrRDZUVHWyzbNt-130">
          <mxGeometry y="150" width="1" height="49" as="geometry" />
        </mxCell>
        <mxCell id="orDnvlcrRDZUVHWyzbNt-118" value="" style="group;rounded=1;strokeColor=#000000;strokeWidth=6;fontColor=#000000;fillColor=#ffffff;" vertex="1" connectable="0" parent="N6LhWgBp62tD6HMa2VJL-1">
          <mxGeometry x="1046" y="57" width="366" height="763" as="geometry" />
        </mxCell>
        <mxCell id="orDnvlcrRDZUVHWyzbNt-119" value="" style="rounded=1;whiteSpace=wrap;html=1;strokeWidth=6;fillColor=none;" vertex="1" parent="orDnvlcrRDZUVHWyzbNt-118">
          <mxGeometry x="2.869999999999891" width="360" height="763" as="geometry" />
        </mxCell>
        <mxCell id="orDnvlcrRDZUVHWyzbNt-120" value="" style="rounded=1;whiteSpace=wrap;html=1;strokeWidth=6;fillColor=none;perimeterSpacing=0;" vertex="1" parent="orDnvlcrRDZUVHWyzbNt-118">
          <mxGeometry x="87.6400000000001" y="0.75" width="190" height="17.25" as="geometry" />
        </mxCell>
        <mxCell id="orDnvlcrRDZUVHWyzbNt-121" value="" style="ellipse;whiteSpace=wrap;html=1;rounded=1;strokeWidth=6;fillColor=#000000;" vertex="1" parent="orDnvlcrRDZUVHWyzbNt-118">
          <mxGeometry x="87.6400000000001" y="3" width="28" height="26" as="geometry" />
        </mxCell>
        <mxCell id="orDnvlcrRDZUVHWyzbNt-122" value="" style="ellipse;whiteSpace=wrap;html=1;rounded=1;strokeWidth=6;fillColor=#000000;" vertex="1" parent="orDnvlcrRDZUVHWyzbNt-118">
          <mxGeometry x="249.6400000000001" y="3" width="28" height="26" as="geometry" />
        </mxCell>
        <mxCell id="orDnvlcrRDZUVHWyzbNt-123" value="" style="rounded=0;whiteSpace=wrap;html=1;strokeWidth=6;fillColor=#000000;" vertex="1" parent="orDnvlcrRDZUVHWyzbNt-118">
          <mxGeometry x="102.87000000000012" y="5" width="160" height="24" as="geometry" />
        </mxCell>
        <mxCell id="orDnvlcrRDZUVHWyzbNt-124" value="" style="rounded=1;whiteSpace=wrap;html=1;strokeWidth=6;fillColor=none;strokeColor=#FFFFFF;" vertex="1" parent="orDnvlcrRDZUVHWyzbNt-118">
          <mxGeometry x="162" y="13" width="42" height="2" as="geometry" />
        </mxCell>
        <mxCell id="orDnvlcrRDZUVHWyzbNt-125" value="" style="rounded=1;whiteSpace=wrap;html=1;strokeWidth=6;fillColor=none;strokeColor=#FFFFFF;" vertex="1" parent="orDnvlcrRDZUVHWyzbNt-118">
          <mxGeometry x="219" y="13" width="2" height="2" as="geometry" />
        </mxCell>
        <mxCell id="orDnvlcrRDZUVHWyzbNt-126" value="" style="rounded=1;whiteSpace=wrap;html=1;strokeWidth=6;fillColor=none;" vertex="1" parent="orDnvlcrRDZUVHWyzbNt-118">
          <mxGeometry x="364" y="168" width="2" height="82" as="geometry" />
        </mxCell>
        <mxCell id="orDnvlcrRDZUVHWyzbNt-127" value="" style="rounded=1;whiteSpace=wrap;html=1;strokeWidth=6;fillColor=none;" vertex="1" parent="orDnvlcrRDZUVHWyzbNt-118">
          <mxGeometry y="217" width="1" height="49" as="geometry" />
        </mxCell>
        <mxCell id="orDnvlcrRDZUVHWyzbNt-128" value="" style="rounded=1;whiteSpace=wrap;html=1;strokeWidth=6;fillColor=none;" vertex="1" parent="orDnvlcrRDZUVHWyzbNt-118">
          <mxGeometry y="95.5" width="1" height="24" as="geometry" />
        </mxCell>
        <mxCell id="orDnvlcrRDZUVHWyzbNt-129" value="" style="rounded=1;whiteSpace=wrap;html=1;strokeWidth=6;fillColor=none;" vertex="1" parent="orDnvlcrRDZUVHWyzbNt-118">
          <mxGeometry y="150" width="1" height="49" as="geometry" />
        </mxCell>
        <mxCell id="t3Ic-TG8_IldfPgCIFjd-253" value="" style="rounded=1;whiteSpace=wrap;html=1;labelBackgroundColor=none;fillColor=none;fontSize=16;fontColor=#000000;align=left;" parent="orDnvlcrRDZUVHWyzbNt-118" vertex="1">
          <mxGeometry x="133" y="101.82" width="123" height="123" as="geometry" />
        </mxCell>
        <mxCell id="t3Ic-TG8_IldfPgCIFjd-240" value="Change" style="text;html=1;strokeColor=none;fillColor=none;align=center;verticalAlign=middle;whiteSpace=wrap;rounded=0;shadow=0;fontSize=13;fontColor=#007FFF;" parent="orDnvlcrRDZUVHWyzbNt-118" vertex="1">
          <mxGeometry x="174.5" y="228.82" width="40" height="20" as="geometry" />
        </mxCell>
        <mxCell id="t3Ic-TG8_IldfPgCIFjd-241" style="edgeStyle=orthogonalEdgeStyle;rounded=0;orthogonalLoop=1;jettySize=auto;html=1;exitX=0.5;exitY=1;exitDx=0;exitDy=0;fontSize=13;fontColor=#007FFF;" parent="orDnvlcrRDZUVHWyzbNt-118" source="t3Ic-TG8_IldfPgCIFjd-240" target="t3Ic-TG8_IldfPgCIFjd-240" edge="1">
          <mxGeometry relative="1" as="geometry" />
        </mxCell>
        <mxCell id="orDnvlcrRDZUVHWyzbNt-106" value="" style="group;rounded=1;strokeColor=#000000;strokeWidth=6;fontColor=#000000;fillColor=#ffffff;" vertex="1" connectable="0" parent="N6LhWgBp62tD6HMa2VJL-1">
          <mxGeometry x="2917" y="-171" width="366" height="763" as="geometry" />
        </mxCell>
        <mxCell id="orDnvlcrRDZUVHWyzbNt-107" value="" style="rounded=1;whiteSpace=wrap;html=1;strokeWidth=6;fillColor=none;" vertex="1" parent="orDnvlcrRDZUVHWyzbNt-106">
          <mxGeometry x="2.869999999999891" width="360" height="763" as="geometry" />
        </mxCell>
        <mxCell id="orDnvlcrRDZUVHWyzbNt-108" value="" style="rounded=1;whiteSpace=wrap;html=1;strokeWidth=6;fillColor=none;perimeterSpacing=0;" vertex="1" parent="orDnvlcrRDZUVHWyzbNt-106">
          <mxGeometry x="87.6400000000001" y="0.75" width="190" height="17.25" as="geometry" />
        </mxCell>
        <mxCell id="orDnvlcrRDZUVHWyzbNt-109" value="" style="ellipse;whiteSpace=wrap;html=1;rounded=1;strokeWidth=6;fillColor=#000000;" vertex="1" parent="orDnvlcrRDZUVHWyzbNt-106">
          <mxGeometry x="87.6400000000001" y="3" width="28" height="26" as="geometry" />
        </mxCell>
        <mxCell id="orDnvlcrRDZUVHWyzbNt-110" value="" style="ellipse;whiteSpace=wrap;html=1;rounded=1;strokeWidth=6;fillColor=#000000;" vertex="1" parent="orDnvlcrRDZUVHWyzbNt-106">
          <mxGeometry x="249.6400000000001" y="3" width="28" height="26" as="geometry" />
        </mxCell>
        <mxCell id="orDnvlcrRDZUVHWyzbNt-111" value="" style="rounded=0;whiteSpace=wrap;html=1;strokeWidth=6;fillColor=#000000;" vertex="1" parent="orDnvlcrRDZUVHWyzbNt-106">
          <mxGeometry x="102.87000000000012" y="5" width="160" height="24" as="geometry" />
        </mxCell>
        <mxCell id="orDnvlcrRDZUVHWyzbNt-112" value="" style="rounded=1;whiteSpace=wrap;html=1;strokeWidth=6;fillColor=none;strokeColor=#FFFFFF;" vertex="1" parent="orDnvlcrRDZUVHWyzbNt-106">
          <mxGeometry x="162" y="13" width="42" height="2" as="geometry" />
        </mxCell>
        <mxCell id="orDnvlcrRDZUVHWyzbNt-113" value="" style="rounded=1;whiteSpace=wrap;html=1;strokeWidth=6;fillColor=none;strokeColor=#FFFFFF;" vertex="1" parent="orDnvlcrRDZUVHWyzbNt-106">
          <mxGeometry x="219" y="13" width="2" height="2" as="geometry" />
        </mxCell>
        <mxCell id="orDnvlcrRDZUVHWyzbNt-114" value="" style="rounded=1;whiteSpace=wrap;html=1;strokeWidth=6;fillColor=none;" vertex="1" parent="orDnvlcrRDZUVHWyzbNt-106">
          <mxGeometry x="364" y="168" width="2" height="82" as="geometry" />
        </mxCell>
        <mxCell id="orDnvlcrRDZUVHWyzbNt-115" value="" style="rounded=1;whiteSpace=wrap;html=1;strokeWidth=6;fillColor=none;" vertex="1" parent="orDnvlcrRDZUVHWyzbNt-106">
          <mxGeometry y="217" width="1" height="49" as="geometry" />
        </mxCell>
        <mxCell id="orDnvlcrRDZUVHWyzbNt-116" value="" style="rounded=1;whiteSpace=wrap;html=1;strokeWidth=6;fillColor=none;" vertex="1" parent="orDnvlcrRDZUVHWyzbNt-106">
          <mxGeometry y="95.5" width="1" height="24" as="geometry" />
        </mxCell>
        <mxCell id="orDnvlcrRDZUVHWyzbNt-117" value="" style="rounded=1;whiteSpace=wrap;html=1;strokeWidth=6;fillColor=none;" vertex="1" parent="orDnvlcrRDZUVHWyzbNt-106">
          <mxGeometry y="150" width="1" height="49" as="geometry" />
        </mxCell>
        <mxCell id="orDnvlcrRDZUVHWyzbNt-93" value="" style="group;rounded=1;strokeColor=#000000;strokeWidth=6;fontColor=#000000;fillColor=#ffffff;" vertex="1" connectable="0" parent="N6LhWgBp62tD6HMa2VJL-1">
          <mxGeometry x="3665" y="-1192" width="366" height="763" as="geometry" />
        </mxCell>
        <mxCell id="orDnvlcrRDZUVHWyzbNt-94" value="" style="rounded=1;whiteSpace=wrap;html=1;strokeWidth=6;fillColor=none;" vertex="1" parent="orDnvlcrRDZUVHWyzbNt-93">
          <mxGeometry x="2.869999999999891" width="360" height="763" as="geometry" />
        </mxCell>
        <mxCell id="orDnvlcrRDZUVHWyzbNt-95" value="" style="rounded=1;whiteSpace=wrap;html=1;strokeWidth=6;fillColor=none;perimeterSpacing=0;" vertex="1" parent="orDnvlcrRDZUVHWyzbNt-93">
          <mxGeometry x="87.6400000000001" y="0.75" width="190" height="17.25" as="geometry" />
        </mxCell>
        <mxCell id="orDnvlcrRDZUVHWyzbNt-96" value="" style="ellipse;whiteSpace=wrap;html=1;rounded=1;strokeWidth=6;fillColor=#000000;" vertex="1" parent="orDnvlcrRDZUVHWyzbNt-93">
          <mxGeometry x="87.6400000000001" y="3" width="28" height="26" as="geometry" />
        </mxCell>
        <mxCell id="orDnvlcrRDZUVHWyzbNt-97" value="" style="ellipse;whiteSpace=wrap;html=1;rounded=1;strokeWidth=6;fillColor=#000000;" vertex="1" parent="orDnvlcrRDZUVHWyzbNt-93">
          <mxGeometry x="249.6400000000001" y="3" width="28" height="26" as="geometry" />
        </mxCell>
        <mxCell id="orDnvlcrRDZUVHWyzbNt-98" value="" style="rounded=0;whiteSpace=wrap;html=1;strokeWidth=6;fillColor=#000000;" vertex="1" parent="orDnvlcrRDZUVHWyzbNt-93">
          <mxGeometry x="102.87000000000012" y="5" width="160" height="24" as="geometry" />
        </mxCell>
        <mxCell id="orDnvlcrRDZUVHWyzbNt-99" value="" style="rounded=1;whiteSpace=wrap;html=1;strokeWidth=6;fillColor=none;strokeColor=#FFFFFF;" vertex="1" parent="orDnvlcrRDZUVHWyzbNt-93">
          <mxGeometry x="162" y="13" width="42" height="2" as="geometry" />
        </mxCell>
        <mxCell id="orDnvlcrRDZUVHWyzbNt-100" value="" style="rounded=1;whiteSpace=wrap;html=1;strokeWidth=6;fillColor=none;strokeColor=#FFFFFF;" vertex="1" parent="orDnvlcrRDZUVHWyzbNt-93">
          <mxGeometry x="219" y="13" width="2" height="2" as="geometry" />
        </mxCell>
        <mxCell id="orDnvlcrRDZUVHWyzbNt-101" value="" style="rounded=1;whiteSpace=wrap;html=1;strokeWidth=6;fillColor=none;" vertex="1" parent="orDnvlcrRDZUVHWyzbNt-93">
          <mxGeometry x="364" y="168" width="2" height="82" as="geometry" />
        </mxCell>
        <mxCell id="orDnvlcrRDZUVHWyzbNt-102" value="" style="rounded=1;whiteSpace=wrap;html=1;strokeWidth=6;fillColor=none;" vertex="1" parent="orDnvlcrRDZUVHWyzbNt-93">
          <mxGeometry y="217" width="1" height="49" as="geometry" />
        </mxCell>
        <mxCell id="orDnvlcrRDZUVHWyzbNt-103" value="" style="rounded=1;whiteSpace=wrap;html=1;strokeWidth=6;fillColor=none;" vertex="1" parent="orDnvlcrRDZUVHWyzbNt-93">
          <mxGeometry y="95.5" width="1" height="24" as="geometry" />
        </mxCell>
        <mxCell id="orDnvlcrRDZUVHWyzbNt-104" value="" style="rounded=1;whiteSpace=wrap;html=1;strokeWidth=6;fillColor=none;" vertex="1" parent="orDnvlcrRDZUVHWyzbNt-93">
          <mxGeometry y="150" width="1" height="49" as="geometry" />
        </mxCell>
        <mxCell id="orDnvlcrRDZUVHWyzbNt-81" value="" style="group;rounded=1;strokeColor=#000000;strokeWidth=6;fontColor=#000000;fillColor=#ffffff;" vertex="1" connectable="0" parent="N6LhWgBp62tD6HMa2VJL-1">
          <mxGeometry x="2910" y="-1188" width="366" height="763" as="geometry" />
        </mxCell>
        <mxCell id="orDnvlcrRDZUVHWyzbNt-82" value="" style="rounded=1;whiteSpace=wrap;html=1;strokeWidth=6;fillColor=none;" vertex="1" parent="orDnvlcrRDZUVHWyzbNt-81">
          <mxGeometry x="2.869999999999891" width="360" height="763" as="geometry" />
        </mxCell>
        <mxCell id="orDnvlcrRDZUVHWyzbNt-83" value="" style="rounded=1;whiteSpace=wrap;html=1;strokeWidth=6;fillColor=none;perimeterSpacing=0;" vertex="1" parent="orDnvlcrRDZUVHWyzbNt-81">
          <mxGeometry x="87.6400000000001" y="0.75" width="190" height="17.25" as="geometry" />
        </mxCell>
        <mxCell id="orDnvlcrRDZUVHWyzbNt-84" value="" style="ellipse;whiteSpace=wrap;html=1;rounded=1;strokeWidth=6;fillColor=#000000;" vertex="1" parent="orDnvlcrRDZUVHWyzbNt-81">
          <mxGeometry x="87.6400000000001" y="3" width="28" height="26" as="geometry" />
        </mxCell>
        <mxCell id="orDnvlcrRDZUVHWyzbNt-85" value="" style="ellipse;whiteSpace=wrap;html=1;rounded=1;strokeWidth=6;fillColor=#000000;" vertex="1" parent="orDnvlcrRDZUVHWyzbNt-81">
          <mxGeometry x="249.6400000000001" y="3" width="28" height="26" as="geometry" />
        </mxCell>
        <mxCell id="orDnvlcrRDZUVHWyzbNt-86" value="" style="rounded=0;whiteSpace=wrap;html=1;strokeWidth=6;fillColor=#000000;" vertex="1" parent="orDnvlcrRDZUVHWyzbNt-81">
          <mxGeometry x="102.87000000000012" y="5" width="160" height="24" as="geometry" />
        </mxCell>
        <mxCell id="orDnvlcrRDZUVHWyzbNt-87" value="" style="rounded=1;whiteSpace=wrap;html=1;strokeWidth=6;fillColor=none;strokeColor=#FFFFFF;" vertex="1" parent="orDnvlcrRDZUVHWyzbNt-81">
          <mxGeometry x="162" y="13" width="42" height="2" as="geometry" />
        </mxCell>
        <mxCell id="orDnvlcrRDZUVHWyzbNt-88" value="" style="rounded=1;whiteSpace=wrap;html=1;strokeWidth=6;fillColor=none;strokeColor=#FFFFFF;" vertex="1" parent="orDnvlcrRDZUVHWyzbNt-81">
          <mxGeometry x="219" y="13" width="2" height="2" as="geometry" />
        </mxCell>
        <mxCell id="orDnvlcrRDZUVHWyzbNt-89" value="" style="rounded=1;whiteSpace=wrap;html=1;strokeWidth=6;fillColor=none;" vertex="1" parent="orDnvlcrRDZUVHWyzbNt-81">
          <mxGeometry x="364" y="168" width="2" height="82" as="geometry" />
        </mxCell>
        <mxCell id="orDnvlcrRDZUVHWyzbNt-90" value="" style="rounded=1;whiteSpace=wrap;html=1;strokeWidth=6;fillColor=none;" vertex="1" parent="orDnvlcrRDZUVHWyzbNt-81">
          <mxGeometry y="217" width="1" height="49" as="geometry" />
        </mxCell>
        <mxCell id="orDnvlcrRDZUVHWyzbNt-91" value="" style="rounded=1;whiteSpace=wrap;html=1;strokeWidth=6;fillColor=none;" vertex="1" parent="orDnvlcrRDZUVHWyzbNt-81">
          <mxGeometry y="95.5" width="1" height="24" as="geometry" />
        </mxCell>
        <mxCell id="orDnvlcrRDZUVHWyzbNt-92" value="" style="rounded=1;whiteSpace=wrap;html=1;strokeWidth=6;fillColor=none;" vertex="1" parent="orDnvlcrRDZUVHWyzbNt-81">
          <mxGeometry y="150" width="1" height="49" as="geometry" />
        </mxCell>
        <mxCell id="orDnvlcrRDZUVHWyzbNt-69" value="" style="group;rounded=1;strokeColor=#000000;strokeWidth=6;fontColor=#000000;fillColor=#ffffff;" vertex="1" connectable="0" parent="N6LhWgBp62tD6HMa2VJL-1">
          <mxGeometry x="2376" y="-1195" width="366" height="763" as="geometry" />
        </mxCell>
        <mxCell id="orDnvlcrRDZUVHWyzbNt-70" value="" style="rounded=1;whiteSpace=wrap;html=1;strokeWidth=6;fillColor=none;" vertex="1" parent="orDnvlcrRDZUVHWyzbNt-69">
          <mxGeometry x="2.869999999999891" width="360" height="763" as="geometry" />
        </mxCell>
        <mxCell id="orDnvlcrRDZUVHWyzbNt-71" value="" style="rounded=1;whiteSpace=wrap;html=1;strokeWidth=6;fillColor=none;perimeterSpacing=0;" vertex="1" parent="orDnvlcrRDZUVHWyzbNt-69">
          <mxGeometry x="87.6400000000001" y="0.75" width="190" height="17.25" as="geometry" />
        </mxCell>
        <mxCell id="orDnvlcrRDZUVHWyzbNt-72" value="" style="ellipse;whiteSpace=wrap;html=1;rounded=1;strokeWidth=6;fillColor=#000000;" vertex="1" parent="orDnvlcrRDZUVHWyzbNt-69">
          <mxGeometry x="87.6400000000001" y="3" width="28" height="26" as="geometry" />
        </mxCell>
        <mxCell id="orDnvlcrRDZUVHWyzbNt-73" value="" style="ellipse;whiteSpace=wrap;html=1;rounded=1;strokeWidth=6;fillColor=#000000;" vertex="1" parent="orDnvlcrRDZUVHWyzbNt-69">
          <mxGeometry x="249.6400000000001" y="3" width="28" height="26" as="geometry" />
        </mxCell>
        <mxCell id="orDnvlcrRDZUVHWyzbNt-74" value="" style="rounded=0;whiteSpace=wrap;html=1;strokeWidth=6;fillColor=#000000;" vertex="1" parent="orDnvlcrRDZUVHWyzbNt-69">
          <mxGeometry x="102.87000000000012" y="5" width="160" height="24" as="geometry" />
        </mxCell>
        <mxCell id="orDnvlcrRDZUVHWyzbNt-75" value="" style="rounded=1;whiteSpace=wrap;html=1;strokeWidth=6;fillColor=none;strokeColor=#FFFFFF;" vertex="1" parent="orDnvlcrRDZUVHWyzbNt-69">
          <mxGeometry x="162" y="13" width="42" height="2" as="geometry" />
        </mxCell>
        <mxCell id="orDnvlcrRDZUVHWyzbNt-76" value="" style="rounded=1;whiteSpace=wrap;html=1;strokeWidth=6;fillColor=none;strokeColor=#FFFFFF;" vertex="1" parent="orDnvlcrRDZUVHWyzbNt-69">
          <mxGeometry x="219" y="13" width="2" height="2" as="geometry" />
        </mxCell>
        <mxCell id="orDnvlcrRDZUVHWyzbNt-77" value="" style="rounded=1;whiteSpace=wrap;html=1;strokeWidth=6;fillColor=none;" vertex="1" parent="orDnvlcrRDZUVHWyzbNt-69">
          <mxGeometry x="364" y="168" width="2" height="82" as="geometry" />
        </mxCell>
        <mxCell id="orDnvlcrRDZUVHWyzbNt-78" value="" style="rounded=1;whiteSpace=wrap;html=1;strokeWidth=6;fillColor=none;" vertex="1" parent="orDnvlcrRDZUVHWyzbNt-69">
          <mxGeometry y="217" width="1" height="49" as="geometry" />
        </mxCell>
        <mxCell id="orDnvlcrRDZUVHWyzbNt-79" value="" style="rounded=1;whiteSpace=wrap;html=1;strokeWidth=6;fillColor=none;" vertex="1" parent="orDnvlcrRDZUVHWyzbNt-69">
          <mxGeometry y="95.5" width="1" height="24" as="geometry" />
        </mxCell>
        <mxCell id="orDnvlcrRDZUVHWyzbNt-80" value="" style="rounded=1;whiteSpace=wrap;html=1;strokeWidth=6;fillColor=none;" vertex="1" parent="orDnvlcrRDZUVHWyzbNt-69">
          <mxGeometry y="150" width="1" height="49" as="geometry" />
        </mxCell>
        <mxCell id="orDnvlcrRDZUVHWyzbNt-57" value="" style="group;rounded=1;strokeColor=#000000;strokeWidth=6;fontColor=#000000;fillColor=#ffffff;" vertex="1" connectable="0" parent="N6LhWgBp62tD6HMa2VJL-1">
          <mxGeometry x="1756" y="-1190.5" width="366" height="763" as="geometry" />
        </mxCell>
        <mxCell id="orDnvlcrRDZUVHWyzbNt-58" value="" style="rounded=1;whiteSpace=wrap;html=1;strokeWidth=6;fillColor=none;" vertex="1" parent="orDnvlcrRDZUVHWyzbNt-57">
          <mxGeometry x="2.869999999999891" width="360" height="763" as="geometry" />
        </mxCell>
        <mxCell id="orDnvlcrRDZUVHWyzbNt-59" value="" style="rounded=1;whiteSpace=wrap;html=1;strokeWidth=6;fillColor=none;perimeterSpacing=0;" vertex="1" parent="orDnvlcrRDZUVHWyzbNt-57">
          <mxGeometry x="87.6400000000001" y="0.75" width="190" height="17.25" as="geometry" />
        </mxCell>
        <mxCell id="orDnvlcrRDZUVHWyzbNt-60" value="" style="ellipse;whiteSpace=wrap;html=1;rounded=1;strokeWidth=6;fillColor=#000000;" vertex="1" parent="orDnvlcrRDZUVHWyzbNt-57">
          <mxGeometry x="87.6400000000001" y="3" width="28" height="26" as="geometry" />
        </mxCell>
        <mxCell id="orDnvlcrRDZUVHWyzbNt-61" value="" style="ellipse;whiteSpace=wrap;html=1;rounded=1;strokeWidth=6;fillColor=#000000;" vertex="1" parent="orDnvlcrRDZUVHWyzbNt-57">
          <mxGeometry x="249.6400000000001" y="3" width="28" height="26" as="geometry" />
        </mxCell>
        <mxCell id="orDnvlcrRDZUVHWyzbNt-62" value="" style="rounded=0;whiteSpace=wrap;html=1;strokeWidth=6;fillColor=#000000;" vertex="1" parent="orDnvlcrRDZUVHWyzbNt-57">
          <mxGeometry x="102.87000000000012" y="5" width="160" height="24" as="geometry" />
        </mxCell>
        <mxCell id="orDnvlcrRDZUVHWyzbNt-63" value="" style="rounded=1;whiteSpace=wrap;html=1;strokeWidth=6;fillColor=none;strokeColor=#FFFFFF;" vertex="1" parent="orDnvlcrRDZUVHWyzbNt-57">
          <mxGeometry x="162" y="13" width="42" height="2" as="geometry" />
        </mxCell>
        <mxCell id="orDnvlcrRDZUVHWyzbNt-64" value="" style="rounded=1;whiteSpace=wrap;html=1;strokeWidth=6;fillColor=none;strokeColor=#FFFFFF;" vertex="1" parent="orDnvlcrRDZUVHWyzbNt-57">
          <mxGeometry x="219" y="13" width="2" height="2" as="geometry" />
        </mxCell>
        <mxCell id="orDnvlcrRDZUVHWyzbNt-65" value="" style="rounded=1;whiteSpace=wrap;html=1;strokeWidth=6;fillColor=none;" vertex="1" parent="orDnvlcrRDZUVHWyzbNt-57">
          <mxGeometry x="364" y="168" width="2" height="82" as="geometry" />
        </mxCell>
        <mxCell id="orDnvlcrRDZUVHWyzbNt-66" value="" style="rounded=1;whiteSpace=wrap;html=1;strokeWidth=6;fillColor=none;" vertex="1" parent="orDnvlcrRDZUVHWyzbNt-57">
          <mxGeometry y="217" width="1" height="49" as="geometry" />
        </mxCell>
        <mxCell id="orDnvlcrRDZUVHWyzbNt-67" value="" style="rounded=1;whiteSpace=wrap;html=1;strokeWidth=6;fillColor=none;" vertex="1" parent="orDnvlcrRDZUVHWyzbNt-57">
          <mxGeometry y="95.5" width="1" height="24" as="geometry" />
        </mxCell>
        <mxCell id="orDnvlcrRDZUVHWyzbNt-68" value="" style="rounded=1;whiteSpace=wrap;html=1;strokeWidth=6;fillColor=none;" vertex="1" parent="orDnvlcrRDZUVHWyzbNt-57">
          <mxGeometry y="150" width="1" height="49" as="geometry" />
        </mxCell>
        <mxCell id="t3Ic-TG8_IldfPgCIFjd-67" value="&lt;font style=&quot;font-size: 18px&quot;&gt;Feed Settings&lt;/font&gt;" style="rounded=0;whiteSpace=wrap;html=1;align=left;spacingLeft=45;fillColor=none;" parent="orDnvlcrRDZUVHWyzbNt-57" vertex="1">
          <mxGeometry x="4.64" y="83.5" width="356" height="40" as="geometry" />
        </mxCell>
        <mxCell id="fXl1buOdOmaUu1pD_32y-11" value="&lt;font style=&quot;font-size: 18px&quot;&gt;Collection Settings&lt;/font&gt;" style="rounded=0;whiteSpace=wrap;html=1;align=left;spacingLeft=45;fillColor=none;" parent="orDnvlcrRDZUVHWyzbNt-57" vertex="1">
          <mxGeometry x="4.64" y="123.5" width="356" height="40" as="geometry" />
        </mxCell>
        <mxCell id="fXl1buOdOmaUu1pD_32y-56" value="&lt;span style=&quot;font-size: 18px&quot;&gt;Dark Mode&lt;/span&gt;" style="rounded=0;whiteSpace=wrap;html=1;align=left;spacingLeft=45;fillColor=none;" parent="orDnvlcrRDZUVHWyzbNt-57" vertex="1">
          <mxGeometry x="4.6400000000001" y="199" width="356" height="40" as="geometry" />
        </mxCell>
        <mxCell id="fXl1buOdOmaUu1pD_32y-60" value="" style="html=1;verticalLabelPosition=bottom;labelBackgroundColor=#ffffff;verticalAlign=top;shadow=0;dashed=0;strokeWidth=1;shape=mxgraph.ios7ui.onOffButton;buttonState=off;strokeColor=#38D145;strokeColor2=#aaaaaa;fillColor=#38D145;fillColor2=#ffffff;fontSize=19;" parent="orDnvlcrRDZUVHWyzbNt-57" vertex="1">
          <mxGeometry x="294" y="211.5" width="43.5" height="15" as="geometry" />
        </mxCell>
        <mxCell id="orDnvlcrRDZUVHWyzbNt-44" value="" style="group;rounded=1;strokeColor=#000000;strokeWidth=6;fontColor=#000000;fillColor=#ffffff;" vertex="1" connectable="0" parent="N6LhWgBp62tD6HMa2VJL-1">
          <mxGeometry x="980" y="-1001" width="366" height="763" as="geometry" />
        </mxCell>
        <mxCell id="orDnvlcrRDZUVHWyzbNt-45" value="" style="rounded=1;whiteSpace=wrap;html=1;strokeWidth=6;fillColor=none;" vertex="1" parent="orDnvlcrRDZUVHWyzbNt-44">
          <mxGeometry x="2.869999999999891" width="360" height="763" as="geometry" />
        </mxCell>
        <mxCell id="orDnvlcrRDZUVHWyzbNt-46" value="" style="rounded=1;whiteSpace=wrap;html=1;strokeWidth=6;fillColor=none;perimeterSpacing=0;" vertex="1" parent="orDnvlcrRDZUVHWyzbNt-44">
          <mxGeometry x="87.6400000000001" y="0.75" width="190" height="17.25" as="geometry" />
        </mxCell>
        <mxCell id="orDnvlcrRDZUVHWyzbNt-47" value="" style="ellipse;whiteSpace=wrap;html=1;rounded=1;strokeWidth=6;fillColor=#000000;" vertex="1" parent="orDnvlcrRDZUVHWyzbNt-44">
          <mxGeometry x="87.6400000000001" y="3" width="28" height="26" as="geometry" />
        </mxCell>
        <mxCell id="orDnvlcrRDZUVHWyzbNt-48" value="" style="ellipse;whiteSpace=wrap;html=1;rounded=1;strokeWidth=6;fillColor=#000000;" vertex="1" parent="orDnvlcrRDZUVHWyzbNt-44">
          <mxGeometry x="249.6400000000001" y="3" width="28" height="26" as="geometry" />
        </mxCell>
        <mxCell id="orDnvlcrRDZUVHWyzbNt-49" value="" style="rounded=0;whiteSpace=wrap;html=1;strokeWidth=6;fillColor=#000000;" vertex="1" parent="orDnvlcrRDZUVHWyzbNt-44">
          <mxGeometry x="102.87000000000012" y="5" width="160" height="24" as="geometry" />
        </mxCell>
        <mxCell id="orDnvlcrRDZUVHWyzbNt-50" value="" style="rounded=1;whiteSpace=wrap;html=1;strokeWidth=6;fillColor=none;strokeColor=#FFFFFF;" vertex="1" parent="orDnvlcrRDZUVHWyzbNt-44">
          <mxGeometry x="162" y="13" width="42" height="2" as="geometry" />
        </mxCell>
        <mxCell id="orDnvlcrRDZUVHWyzbNt-51" value="" style="rounded=1;whiteSpace=wrap;html=1;strokeWidth=6;fillColor=none;strokeColor=#FFFFFF;" vertex="1" parent="orDnvlcrRDZUVHWyzbNt-44">
          <mxGeometry x="219" y="13" width="2" height="2" as="geometry" />
        </mxCell>
        <mxCell id="orDnvlcrRDZUVHWyzbNt-52" value="" style="rounded=1;whiteSpace=wrap;html=1;strokeWidth=6;fillColor=none;" vertex="1" parent="orDnvlcrRDZUVHWyzbNt-44">
          <mxGeometry x="364" y="168" width="2" height="82" as="geometry" />
        </mxCell>
        <mxCell id="orDnvlcrRDZUVHWyzbNt-53" value="" style="rounded=1;whiteSpace=wrap;html=1;strokeWidth=6;fillColor=none;" vertex="1" parent="orDnvlcrRDZUVHWyzbNt-44">
          <mxGeometry y="217" width="1" height="49" as="geometry" />
        </mxCell>
        <mxCell id="orDnvlcrRDZUVHWyzbNt-54" value="" style="rounded=1;whiteSpace=wrap;html=1;strokeWidth=6;fillColor=none;" vertex="1" parent="orDnvlcrRDZUVHWyzbNt-44">
          <mxGeometry y="95.5" width="1" height="24" as="geometry" />
        </mxCell>
        <mxCell id="orDnvlcrRDZUVHWyzbNt-55" value="" style="rounded=1;whiteSpace=wrap;html=1;strokeWidth=6;fillColor=none;" vertex="1" parent="orDnvlcrRDZUVHWyzbNt-44">
          <mxGeometry y="150" width="1" height="49" as="geometry" />
        </mxCell>
        <mxCell id="orDnvlcrRDZUVHWyzbNt-56" value="" style="rounded=0;whiteSpace=wrap;html=1;fontSize=25;align=left;labelBackgroundColor=none;fillColor=none;" vertex="1" parent="N6LhWgBp62tD6HMa2VJL-1">
          <mxGeometry x="984" y="-967" width="357" height="50" as="geometry" />
        </mxCell>
        <mxCell id="orDnvlcrRDZUVHWyzbNt-31" value="" style="group;rounded=1;strokeColor=#000000;strokeWidth=6;fontColor=#000000;fillColor=#ffffff;" vertex="1" connectable="0" parent="N6LhWgBp62tD6HMa2VJL-1">
          <mxGeometry x="216" y="-994" width="366" height="763" as="geometry" />
        </mxCell>
        <mxCell id="orDnvlcrRDZUVHWyzbNt-32" value="" style="rounded=1;whiteSpace=wrap;html=1;strokeWidth=6;fillColor=none;" vertex="1" parent="orDnvlcrRDZUVHWyzbNt-31">
          <mxGeometry x="2.869999999999891" width="360" height="763" as="geometry" />
        </mxCell>
        <mxCell id="orDnvlcrRDZUVHWyzbNt-33" value="" style="rounded=1;whiteSpace=wrap;html=1;strokeWidth=6;fillColor=none;perimeterSpacing=0;" vertex="1" parent="orDnvlcrRDZUVHWyzbNt-31">
          <mxGeometry x="87.6400000000001" y="0.75" width="190" height="17.25" as="geometry" />
        </mxCell>
        <mxCell id="orDnvlcrRDZUVHWyzbNt-34" value="" style="ellipse;whiteSpace=wrap;html=1;rounded=1;strokeWidth=6;fillColor=#000000;" vertex="1" parent="orDnvlcrRDZUVHWyzbNt-31">
          <mxGeometry x="87.6400000000001" y="3" width="28" height="26" as="geometry" />
        </mxCell>
        <mxCell id="orDnvlcrRDZUVHWyzbNt-35" value="" style="ellipse;whiteSpace=wrap;html=1;rounded=1;strokeWidth=6;fillColor=#000000;" vertex="1" parent="orDnvlcrRDZUVHWyzbNt-31">
          <mxGeometry x="249.6400000000001" y="3" width="28" height="26" as="geometry" />
        </mxCell>
        <mxCell id="orDnvlcrRDZUVHWyzbNt-36" value="" style="rounded=0;whiteSpace=wrap;html=1;strokeWidth=6;fillColor=#000000;" vertex="1" parent="orDnvlcrRDZUVHWyzbNt-31">
          <mxGeometry x="102.87000000000012" y="5" width="160" height="24" as="geometry" />
        </mxCell>
        <mxCell id="orDnvlcrRDZUVHWyzbNt-37" value="" style="rounded=1;whiteSpace=wrap;html=1;strokeWidth=6;fillColor=none;strokeColor=#FFFFFF;" vertex="1" parent="orDnvlcrRDZUVHWyzbNt-31">
          <mxGeometry x="162" y="13" width="42" height="2" as="geometry" />
        </mxCell>
        <mxCell id="orDnvlcrRDZUVHWyzbNt-38" value="" style="rounded=1;whiteSpace=wrap;html=1;strokeWidth=6;fillColor=none;strokeColor=#FFFFFF;" vertex="1" parent="orDnvlcrRDZUVHWyzbNt-31">
          <mxGeometry x="219" y="13" width="2" height="2" as="geometry" />
        </mxCell>
        <mxCell id="orDnvlcrRDZUVHWyzbNt-39" value="" style="rounded=1;whiteSpace=wrap;html=1;strokeWidth=6;fillColor=none;" vertex="1" parent="orDnvlcrRDZUVHWyzbNt-31">
          <mxGeometry x="364" y="168" width="2" height="82" as="geometry" />
        </mxCell>
        <mxCell id="orDnvlcrRDZUVHWyzbNt-40" value="" style="rounded=1;whiteSpace=wrap;html=1;strokeWidth=6;fillColor=none;" vertex="1" parent="orDnvlcrRDZUVHWyzbNt-31">
          <mxGeometry y="217" width="1" height="49" as="geometry" />
        </mxCell>
        <mxCell id="orDnvlcrRDZUVHWyzbNt-41" value="" style="rounded=1;whiteSpace=wrap;html=1;strokeWidth=6;fillColor=none;" vertex="1" parent="orDnvlcrRDZUVHWyzbNt-31">
          <mxGeometry y="95.5" width="1" height="24" as="geometry" />
        </mxCell>
        <mxCell id="orDnvlcrRDZUVHWyzbNt-42" value="" style="rounded=1;whiteSpace=wrap;html=1;strokeWidth=6;fillColor=none;" vertex="1" parent="orDnvlcrRDZUVHWyzbNt-31">
          <mxGeometry y="150" width="1" height="49" as="geometry" />
        </mxCell>
        <mxCell id="t3Ic-TG8_IldfPgCIFjd-328" value="" style="rounded=0;whiteSpace=wrap;html=1;labelBackgroundColor=none;fillColor=none;fontSize=16;fontColor=#000000;align=left;" parent="N6LhWgBp62tD6HMa2VJL-1" vertex="1">
          <mxGeometry x="-445" y="-1047" width="355" height="50" as="geometry" />
        </mxCell>
        <mxCell id="orDnvlcrRDZUVHWyzbNt-15" value="" style="group;fillColor=#ffffff;" vertex="1" connectable="0" parent="N6LhWgBp62tD6HMa2VJL-1">
          <mxGeometry x="-450" y="-1080" width="366" height="763" as="geometry" />
        </mxCell>
        <mxCell id="orDnvlcrRDZUVHWyzbNt-16" value="" style="rounded=1;whiteSpace=wrap;html=1;strokeWidth=6;fillColor=none;" vertex="1" parent="orDnvlcrRDZUVHWyzbNt-15">
          <mxGeometry x="2.869999999999891" width="360" height="763" as="geometry" />
        </mxCell>
        <mxCell id="orDnvlcrRDZUVHWyzbNt-17" value="" style="rounded=1;whiteSpace=wrap;html=1;strokeWidth=6;fillColor=none;perimeterSpacing=0;" vertex="1" parent="orDnvlcrRDZUVHWyzbNt-15">
          <mxGeometry x="87.6400000000001" y="0.75" width="190" height="17.25" as="geometry" />
        </mxCell>
        <mxCell id="orDnvlcrRDZUVHWyzbNt-18" value="" style="ellipse;whiteSpace=wrap;html=1;rounded=1;strokeWidth=6;fillColor=#000000;" vertex="1" parent="orDnvlcrRDZUVHWyzbNt-15">
          <mxGeometry x="87.6400000000001" y="3" width="28" height="26" as="geometry" />
        </mxCell>
        <mxCell id="orDnvlcrRDZUVHWyzbNt-19" value="" style="ellipse;whiteSpace=wrap;html=1;rounded=1;strokeWidth=6;fillColor=#000000;" vertex="1" parent="orDnvlcrRDZUVHWyzbNt-15">
          <mxGeometry x="249.6400000000001" y="3" width="28" height="26" as="geometry" />
        </mxCell>
        <mxCell id="orDnvlcrRDZUVHWyzbNt-20" value="" style="rounded=0;whiteSpace=wrap;html=1;strokeWidth=6;fillColor=#000000;" vertex="1" parent="orDnvlcrRDZUVHWyzbNt-15">
          <mxGeometry x="102.87000000000012" y="5" width="160" height="24" as="geometry" />
        </mxCell>
        <mxCell id="orDnvlcrRDZUVHWyzbNt-21" value="" style="rounded=1;whiteSpace=wrap;html=1;strokeWidth=6;fillColor=none;strokeColor=#FFFFFF;" vertex="1" parent="orDnvlcrRDZUVHWyzbNt-15">
          <mxGeometry x="162" y="13" width="42" height="2" as="geometry" />
        </mxCell>
        <mxCell id="orDnvlcrRDZUVHWyzbNt-22" value="" style="rounded=1;whiteSpace=wrap;html=1;strokeWidth=6;fillColor=none;strokeColor=#FFFFFF;" vertex="1" parent="orDnvlcrRDZUVHWyzbNt-15">
          <mxGeometry x="219" y="13" width="2" height="2" as="geometry" />
        </mxCell>
        <mxCell id="orDnvlcrRDZUVHWyzbNt-23" value="" style="rounded=1;whiteSpace=wrap;html=1;strokeWidth=6;fillColor=none;" vertex="1" parent="orDnvlcrRDZUVHWyzbNt-15">
          <mxGeometry x="364" y="168" width="2" height="82" as="geometry" />
        </mxCell>
        <mxCell id="orDnvlcrRDZUVHWyzbNt-24" value="" style="rounded=1;whiteSpace=wrap;html=1;strokeWidth=6;fillColor=none;" vertex="1" parent="orDnvlcrRDZUVHWyzbNt-15">
          <mxGeometry y="217" width="1" height="49" as="geometry" />
        </mxCell>
        <mxCell id="orDnvlcrRDZUVHWyzbNt-25" value="" style="rounded=1;whiteSpace=wrap;html=1;strokeWidth=6;fillColor=none;" vertex="1" parent="orDnvlcrRDZUVHWyzbNt-15">
          <mxGeometry y="95.5" width="1" height="24" as="geometry" />
        </mxCell>
        <mxCell id="orDnvlcrRDZUVHWyzbNt-26" value="" style="rounded=1;whiteSpace=wrap;html=1;strokeWidth=6;fillColor=none;" vertex="1" parent="orDnvlcrRDZUVHWyzbNt-15">
          <mxGeometry y="150" width="1" height="49" as="geometry" />
        </mxCell>
        <mxCell id="orDnvlcrRDZUVHWyzbNt-27" value="" style="rounded=0;whiteSpace=wrap;html=1;fillColor=none;" vertex="1" parent="orDnvlcrRDZUVHWyzbNt-15">
          <mxGeometry x="5" y="33" width="355" height="50" as="geometry" />
        </mxCell>
        <mxCell id="t3Ic-TG8_IldfPgCIFjd-331" value="NZZ" style="text;html=1;strokeColor=none;fillColor=none;align=center;verticalAlign=middle;whiteSpace=wrap;rounded=0;labelBackgroundColor=none;fontSize=16;fontColor=#000000;" parent="orDnvlcrRDZUVHWyzbNt-15" vertex="1">
          <mxGeometry x="137.5" y="48" width="91" height="20" as="geometry" />
        </mxCell>
        <mxCell id="t3Ic-TG8_IldfPgCIFjd-332" value="" style="html=1;verticalLabelPosition=bottom;align=center;labelBackgroundColor=#ffffff;verticalAlign=top;strokeWidth=2;strokeColor=#0080F0;shadow=0;dashed=0;shape=mxgraph.ios7.icons.share;fillColor=none;fontSize=16;" parent="orDnvlcrRDZUVHWyzbNt-15" vertex="1">
          <mxGeometry x="320" y="43.75" width="21" height="28.5" as="geometry" />
        </mxCell>
        <mxCell id="rbUkQHInW9VN2qn4slog-5" value="" style="html=1;verticalLabelPosition=bottom;labelBackgroundColor=#ffffff;verticalAlign=top;shadow=0;dashed=0;strokeWidth=2;shape=mxgraph.ios7.misc.adjust;gradientColor=none;" parent="orDnvlcrRDZUVHWyzbNt-15" vertex="1">
          <mxGeometry x="221" y="48" width="80" height="20" as="geometry" />
        </mxCell>
        <mxCell id="t3Ic-TG8_IldfPgCIFjd-344" value="&lt;font style=&quot;font-size: 19px&quot;&gt;Article Image&lt;/font&gt;" style="rounded=0;whiteSpace=wrap;html=1;shadow=0;fillColor=none;fontSize=8;fontColor=#000000;align=center;" parent="orDnvlcrRDZUVHWyzbNt-15" vertex="1">
          <mxGeometry x="31" y="185.79999999999995" width="303" height="164.2" as="geometry" />
        </mxCell>
        <mxCell id="orDnvlcrRDZUVHWyzbNt-14" value="" style="group;fillColor=#ffffff;" vertex="1" connectable="0" parent="N6LhWgBp62tD6HMa2VJL-1">
          <mxGeometry x="-1030" y="-1076" width="366" height="763" as="geometry" />
        </mxCell>
        <mxCell id="orDnvlcrRDZUVHWyzbNt-0" value="" style="rounded=1;whiteSpace=wrap;html=1;strokeWidth=6;fillColor=none;" vertex="1" parent="orDnvlcrRDZUVHWyzbNt-14">
          <mxGeometry x="2.869999999999891" width="360" height="763" as="geometry" />
        </mxCell>
        <mxCell id="orDnvlcrRDZUVHWyzbNt-2" value="" style="rounded=1;whiteSpace=wrap;html=1;strokeWidth=6;fillColor=none;perimeterSpacing=0;" vertex="1" parent="orDnvlcrRDZUVHWyzbNt-14">
          <mxGeometry x="87.6400000000001" y="0.75" width="190" height="17.25" as="geometry" />
        </mxCell>
        <mxCell id="orDnvlcrRDZUVHWyzbNt-3" value="" style="ellipse;whiteSpace=wrap;html=1;rounded=1;strokeWidth=6;fillColor=#000000;" vertex="1" parent="orDnvlcrRDZUVHWyzbNt-14">
          <mxGeometry x="87.6400000000001" y="3" width="28" height="26" as="geometry" />
        </mxCell>
        <mxCell id="orDnvlcrRDZUVHWyzbNt-4" value="" style="ellipse;whiteSpace=wrap;html=1;rounded=1;strokeWidth=6;fillColor=#000000;" vertex="1" parent="orDnvlcrRDZUVHWyzbNt-14">
          <mxGeometry x="249.6400000000001" y="3" width="28" height="26" as="geometry" />
        </mxCell>
        <mxCell id="orDnvlcrRDZUVHWyzbNt-5" value="" style="rounded=0;whiteSpace=wrap;html=1;strokeWidth=6;fillColor=#000000;" vertex="1" parent="orDnvlcrRDZUVHWyzbNt-14">
          <mxGeometry x="102.87000000000012" y="5" width="160" height="24" as="geometry" />
        </mxCell>
        <mxCell id="orDnvlcrRDZUVHWyzbNt-6" value="" style="rounded=1;whiteSpace=wrap;html=1;strokeWidth=6;fillColor=none;strokeColor=#FFFFFF;" vertex="1" parent="orDnvlcrRDZUVHWyzbNt-14">
          <mxGeometry x="162" y="13" width="42" height="2" as="geometry" />
        </mxCell>
        <mxCell id="orDnvlcrRDZUVHWyzbNt-7" value="" style="rounded=1;whiteSpace=wrap;html=1;strokeWidth=6;fillColor=none;strokeColor=#FFFFFF;" vertex="1" parent="orDnvlcrRDZUVHWyzbNt-14">
          <mxGeometry x="219" y="13" width="2" height="2" as="geometry" />
        </mxCell>
        <mxCell id="orDnvlcrRDZUVHWyzbNt-8" value="" style="rounded=1;whiteSpace=wrap;html=1;strokeWidth=6;fillColor=none;" vertex="1" parent="orDnvlcrRDZUVHWyzbNt-14">
          <mxGeometry x="364" y="168" width="2" height="82" as="geometry" />
        </mxCell>
        <mxCell id="orDnvlcrRDZUVHWyzbNt-10" value="" style="rounded=1;whiteSpace=wrap;html=1;strokeWidth=6;fillColor=none;" vertex="1" parent="orDnvlcrRDZUVHWyzbNt-14">
          <mxGeometry y="217" width="1" height="49" as="geometry" />
        </mxCell>
        <mxCell id="orDnvlcrRDZUVHWyzbNt-11" value="" style="rounded=1;whiteSpace=wrap;html=1;strokeWidth=6;fillColor=none;" vertex="1" parent="orDnvlcrRDZUVHWyzbNt-14">
          <mxGeometry y="95.5" width="1" height="24" as="geometry" />
        </mxCell>
        <mxCell id="orDnvlcrRDZUVHWyzbNt-13" value="" style="rounded=1;whiteSpace=wrap;html=1;strokeWidth=6;fillColor=none;" vertex="1" parent="orDnvlcrRDZUVHWyzbNt-14">
          <mxGeometry y="150" width="1" height="49" as="geometry" />
        </mxCell>
        <mxCell id="rbUkQHInW9VN2qn4slog-3" value="" style="rounded=0;whiteSpace=wrap;html=1;fillColor=none;" parent="orDnvlcrRDZUVHWyzbNt-14" vertex="1">
          <mxGeometry x="5" y="33" width="355" height="50" as="geometry" />
        </mxCell>
        <mxCell id="rbUkQHInW9VN2qn4slog-16" value="Share" style="text;html=1;strokeColor=none;fillColor=none;align=center;verticalAlign=middle;whiteSpace=wrap;rounded=0;fontSize=16;fontColor=#3399FF;" parent="orDnvlcrRDZUVHWyzbNt-14" vertex="1">
          <mxGeometry x="300" y="48" width="40" height="20" as="geometry" />
        </mxCell>
        <mxCell id="fXl1buOdOmaUu1pD_32y-2" value="" style="html=1;verticalLabelPosition=bottom;labelBackgroundColor=#ffffff;verticalAlign=top;shadow=0;dashed=0;strokeWidth=2;shape=mxgraph.ios7.misc.options;fillColor=#222222;" parent="N6LhWgBp62tD6HMa2VJL-1" vertex="1">
          <mxGeometry x="998" y="-950" width="32" height="20" as="geometry" />
        </mxCell>
        <mxCell id="t3Ic-TG8_IldfPgCIFjd-364" value="" style="rounded=0;whiteSpace=wrap;html=1;fillColor=none;fontSize=19;align=left;" parent="N6LhWgBp62tD6HMa2VJL-1" vertex="1">
          <mxGeometry x="220" y="260.5" width="359.32" height="49" as="geometry" />
        </mxCell>
        <mxCell id="t3Ic-TG8_IldfPgCIFjd-103" value="" style="rounded=0;whiteSpace=wrap;html=1;fontSize=25;align=left;labelBackgroundColor=none;fillColor=none;" parent="N6LhWgBp62tD6HMa2VJL-1" vertex="1">
          <mxGeometry x="221" y="210.5" width="358.62" height="50" as="geometry" />
        </mxCell>
        <mxCell id="t3Ic-TG8_IldfPgCIFjd-102" value="" style="rounded=0;whiteSpace=wrap;html=1;fontSize=25;align=left;labelBackgroundColor=none;fillColor=none;" parent="N6LhWgBp62tD6HMa2VJL-1" vertex="1">
          <mxGeometry x="220" y="-960" width="357" height="50" as="geometry" />
        </mxCell>
        <mxCell id="N6LhWgBp62tD6HMa2VJL-8" value="" style="html=1;verticalLabelPosition=bottom;labelBackgroundColor=#ffffff;verticalAlign=top;shadow=0;dashed=0;strokeWidth=2;shape=mxgraph.ios7.misc.scroll_(horizontal);fillColor=#a0a0a0;fontSize=14;fontColor=#000000;align=left;" parent="N6LhWgBp62tD6HMa2VJL-1" vertex="1">
          <mxGeometry x="323.5" y="-249.99999999999977" width="145" height="6" as="geometry" />
        </mxCell>
        <mxCell id="N6LhWgBp62tD6HMa2VJL-10" value="" style="rounded=0;whiteSpace=wrap;html=1;fontSize=14;fontColor=#000000;align=left;fillColor=none;" parent="N6LhWgBp62tD6HMa2VJL-1" vertex="1">
          <mxGeometry x="220" y="-910" width="360" height="110" as="geometry" />
        </mxCell>
        <mxCell id="N6LhWgBp62tD6HMa2VJL-14" value="Bad orange man bad" style="text;html=1;strokeColor=none;fillColor=none;align=center;verticalAlign=middle;whiteSpace=wrap;rounded=0;fontSize=14;fontColor=#000000;" parent="N6LhWgBp62tD6HMa2VJL-1" vertex="1">
          <mxGeometry x="230" y="-900" width="180" height="20" as="geometry" />
        </mxCell>
        <mxCell id="N6LhWgBp62tD6HMa2VJL-16" value="Lorem ipsum dolor sit amet, consetetur sadipscing elitr, sed diam nonumy eirmod tempor invidunt ut labore et dolore magna aliquyam erat, sed diam voluptua." style="text;strokeColor=none;fillColor=none;align=left;verticalAlign=middle;whiteSpace=wrap;rounded=0;fontSize=8;fontColor=#000000;shadow=0;html=1;" parent="N6LhWgBp62tD6HMa2VJL-1" vertex="1">
          <mxGeometry x="230" y="-870" width="180" height="59.67" as="geometry" />
        </mxCell>
        <mxCell id="N6LhWgBp62tD6HMa2VJL-17" value="Spiegel Online / 4 Minutes ago" style="text;html=1;strokeColor=none;fillColor=none;align=center;verticalAlign=middle;whiteSpace=wrap;rounded=0;shadow=0;fontSize=8;fontColor=#000000;" parent="N6LhWgBp62tD6HMa2VJL-1" vertex="1">
          <mxGeometry x="230" y="-880" width="180" height="10" as="geometry" />
        </mxCell>
        <mxCell id="t3Ic-TG8_IldfPgCIFjd-338" style="edgeStyle=orthogonalEdgeStyle;rounded=0;orthogonalLoop=1;jettySize=auto;html=1;startArrow=none;startFill=0;fontSize=16;fontColor=#000000;" parent="N6LhWgBp62tD6HMa2VJL-1" source="N6LhWgBp62tD6HMa2VJL-18" edge="1">
          <mxGeometry relative="1" as="geometry">
            <Array as="points">
              <mxPoint x="-50" y="-745" />
              <mxPoint x="-50" y="-745" />
            </Array>
            <mxPoint x="-68.75000000000045" y="-745" as="targetPoint" />
          </mxGeometry>
        </mxCell>
        <mxCell id="t3Ic-TG8_IldfPgCIFjd-406" value="View Article" style="edgeLabel;html=1;align=center;verticalAlign=middle;resizable=0;points=[];fontSize=19;fontColor=#000000;" parent="t3Ic-TG8_IldfPgCIFjd-338" vertex="1" connectable="0">
          <mxGeometry x="-0.4642" relative="1" as="geometry">
            <mxPoint x="-4" as="offset" />
          </mxGeometry>
        </mxCell>
        <mxCell id="N6LhWgBp62tD6HMa2VJL-18" value="" style="rounded=0;whiteSpace=wrap;html=1;fontSize=14;fontColor=#000000;align=left;fillColor=none;" parent="N6LhWgBp62tD6HMa2VJL-1" vertex="1">
          <mxGeometry x="220" y="-800" width="360" height="110" as="geometry" />
        </mxCell>
        <mxCell id="N6LhWgBp62tD6HMa2VJL-20" value="Bad orange man really really really bad" style="text;html=1;strokeColor=none;fillColor=none;align=center;verticalAlign=middle;whiteSpace=wrap;rounded=0;fontSize=14;fontColor=#000000;" parent="N6LhWgBp62tD6HMa2VJL-1" vertex="1">
          <mxGeometry x="231" y="-790" width="180" height="20" as="geometry" />
        </mxCell>
        <mxCell id="N6LhWgBp62tD6HMa2VJL-21" value="Lorem ipsum dolor sit amet, consetetur sadipscing elitr, sed diam nonumy eirmod tempor invidunt ut labore et dolore magna aliquyam erat, sed diam voluptua." style="text;strokeColor=none;fillColor=none;align=left;verticalAlign=middle;whiteSpace=wrap;rounded=0;fontSize=8;fontColor=#000000;shadow=0;html=1;" parent="N6LhWgBp62tD6HMa2VJL-1" vertex="1">
          <mxGeometry x="231" y="-760" width="180" height="59.67" as="geometry" />
        </mxCell>
        <mxCell id="N6LhWgBp62tD6HMa2VJL-22" value="Spiegel Online / 6 Minutes ago" style="text;html=1;strokeColor=none;fillColor=none;align=center;verticalAlign=middle;whiteSpace=wrap;rounded=0;shadow=0;fontSize=8;fontColor=#000000;" parent="N6LhWgBp62tD6HMa2VJL-1" vertex="1">
          <mxGeometry x="231" y="-760" width="180" height="10" as="geometry" />
        </mxCell>
        <mxCell id="N6LhWgBp62tD6HMa2VJL-24" value="" style="rounded=0;whiteSpace=wrap;html=1;fontSize=14;fontColor=#000000;align=left;fillColor=none;" parent="N6LhWgBp62tD6HMa2VJL-1" vertex="1">
          <mxGeometry x="220" y="-690" width="360" height="110" as="geometry" />
        </mxCell>
        <mxCell id="N6LhWgBp62tD6HMa2VJL-26" value="Bad orange man saying chinese virus is from china in xenophobic rant" style="text;html=1;strokeColor=none;fillColor=none;align=center;verticalAlign=middle;whiteSpace=wrap;rounded=0;fontSize=14;fontColor=#CCCCCC;" parent="N6LhWgBp62tD6HMa2VJL-1" vertex="1">
          <mxGeometry x="230" y="-690" width="180" height="60" as="geometry" />
        </mxCell>
        <mxCell id="N6LhWgBp62tD6HMa2VJL-27" value="Lorem ipsum dolor sit amet, consetetur sadipscing elitr, sed diam nonumy eirmod tempor invidunt ut labore et dolore magna aliquyam erat, sed diam voluptua." style="text;strokeColor=none;fillColor=none;align=left;verticalAlign=middle;whiteSpace=wrap;rounded=0;fontSize=8;shadow=0;html=1;fontColor=#CCCCCC;" parent="N6LhWgBp62tD6HMa2VJL-1" vertex="1">
          <mxGeometry x="230" y="-630" width="180" height="59.67" as="geometry" />
        </mxCell>
        <mxCell id="N6LhWgBp62tD6HMa2VJL-28" value="Spiegel Online / 14 Minutes ago" style="text;html=1;strokeColor=none;fillColor=none;align=center;verticalAlign=middle;whiteSpace=wrap;rounded=0;shadow=0;fontSize=8;fontColor=#CCCCCC;" parent="N6LhWgBp62tD6HMa2VJL-1" vertex="1">
          <mxGeometry x="231" y="-630" width="180" height="10" as="geometry" />
        </mxCell>
        <mxCell id="N6LhWgBp62tD6HMa2VJL-30" value="" style="rounded=0;whiteSpace=wrap;html=1;fontSize=14;fontColor=#000000;align=left;fillColor=none;" parent="N6LhWgBp62tD6HMa2VJL-1" vertex="1">
          <mxGeometry x="220" y="-580" width="360" height="110" as="geometry" />
        </mxCell>
        <mxCell id="N6LhWgBp62tD6HMa2VJL-32" value="Überschrift" style="text;html=1;strokeColor=none;fillColor=none;align=center;verticalAlign=middle;whiteSpace=wrap;rounded=0;fontSize=14;fontColor=#000000;" parent="N6LhWgBp62tD6HMa2VJL-1" vertex="1">
          <mxGeometry x="230" y="-570" width="180" height="20" as="geometry" />
        </mxCell>
        <mxCell id="N6LhWgBp62tD6HMa2VJL-33" value="Lorem ipsum dolor sit amet, consetetur sadipscing elitr, sed diam nonumy eirmod tempor invidunt ut labore et dolore magna aliquyam erat, sed diam voluptua." style="text;strokeColor=none;fillColor=none;align=left;verticalAlign=middle;whiteSpace=wrap;rounded=0;fontSize=8;fontColor=#000000;shadow=0;html=1;" parent="N6LhWgBp62tD6HMa2VJL-1" vertex="1">
          <mxGeometry x="230" y="-540" width="180" height="59.67" as="geometry" />
        </mxCell>
        <mxCell id="N6LhWgBp62tD6HMa2VJL-34" value="News Site / x Minutes ago" style="text;html=1;strokeColor=none;fillColor=none;align=center;verticalAlign=middle;whiteSpace=wrap;rounded=0;shadow=0;fontSize=8;fontColor=#000000;" parent="N6LhWgBp62tD6HMa2VJL-1" vertex="1">
          <mxGeometry x="230" y="-550" width="180" height="10" as="geometry" />
        </mxCell>
        <mxCell id="N6LhWgBp62tD6HMa2VJL-35" value="" style="rounded=0;whiteSpace=wrap;html=1;shadow=0;fillColor=none;fontSize=8;fontColor=#000000;align=left;" parent="N6LhWgBp62tD6HMa2VJL-1" vertex="1">
          <mxGeometry x="420.96000000000004" y="-570" width="139" height="90" as="geometry" />
        </mxCell>
        <mxCell id="N6LhWgBp62tD6HMa2VJL-36" value="" style="rounded=0;whiteSpace=wrap;html=1;fontSize=14;fontColor=#000000;align=left;fillColor=none;" parent="N6LhWgBp62tD6HMa2VJL-1" vertex="1">
          <mxGeometry x="220" y="-470" width="360" height="110" as="geometry" />
        </mxCell>
        <mxCell id="N6LhWgBp62tD6HMa2VJL-37" value="Überschrift" style="text;html=1;strokeColor=none;fillColor=none;align=center;verticalAlign=middle;whiteSpace=wrap;rounded=0;fontSize=14;fontColor=#000000;" parent="N6LhWgBp62tD6HMa2VJL-1" vertex="1">
          <mxGeometry x="230.5" y="-460" width="180" height="20" as="geometry" />
        </mxCell>
        <mxCell id="N6LhWgBp62tD6HMa2VJL-38" value="Lorem ipsum dolor sit amet, consetetur sadipscing elitr, sed diam nonumy eirmod tempor invidunt ut labore et dolore magna aliquyam erat, sed diam voluptua." style="text;strokeColor=none;fillColor=none;align=left;verticalAlign=middle;whiteSpace=wrap;rounded=0;fontSize=8;fontColor=#000000;shadow=0;html=1;" parent="N6LhWgBp62tD6HMa2VJL-1" vertex="1">
          <mxGeometry x="230.5" y="-430" width="180" height="59.67" as="geometry" />
        </mxCell>
        <mxCell id="N6LhWgBp62tD6HMa2VJL-39" value="News Site / x Minutes ago" style="text;html=1;strokeColor=none;fillColor=none;align=center;verticalAlign=middle;whiteSpace=wrap;rounded=0;shadow=0;fontSize=8;fontColor=#000000;" parent="N6LhWgBp62tD6HMa2VJL-1" vertex="1">
          <mxGeometry x="230.5" y="-440" width="180" height="10" as="geometry" />
        </mxCell>
        <mxCell id="N6LhWgBp62tD6HMa2VJL-40" value="" style="rounded=0;whiteSpace=wrap;html=1;shadow=0;fillColor=none;fontSize=8;fontColor=#000000;align=left;" parent="N6LhWgBp62tD6HMa2VJL-1" vertex="1">
          <mxGeometry x="421.46000000000004" y="-460" width="139" height="90" as="geometry" />
        </mxCell>
        <mxCell id="cWaQ5dqtFAyHzU469Amu-0" value="" style="rounded=0;whiteSpace=wrap;html=1;shadow=0;fillColor=none;fontSize=8;fontColor=#000000;align=left;" parent="N6LhWgBp62tD6HMa2VJL-1" vertex="1">
          <mxGeometry x="420.96000000000004" y="-680" width="139" height="90" as="geometry" />
        </mxCell>
        <mxCell id="cWaQ5dqtFAyHzU469Amu-1" value="" style="rounded=0;whiteSpace=wrap;html=1;shadow=0;fillColor=none;fontSize=8;fontColor=#000000;align=left;" parent="N6LhWgBp62tD6HMa2VJL-1" vertex="1">
          <mxGeometry x="420.96000000000004" y="-790" width="139" height="90" as="geometry" />
        </mxCell>
        <mxCell id="cWaQ5dqtFAyHzU469Amu-2" value="" style="rounded=0;whiteSpace=wrap;html=1;shadow=0;fillColor=none;fontSize=8;fontColor=#000000;align=left;" parent="N6LhWgBp62tD6HMa2VJL-1" vertex="1">
          <mxGeometry x="420.96000000000004" y="-900" width="139" height="90" as="geometry" />
        </mxCell>
        <mxCell id="9yo1BAda04gmjQnF2BIP-6" value="" style="html=1;verticalLabelPosition=bottom;labelBackgroundColor=#ffffff;verticalAlign=top;shadow=0;dashed=0;strokeWidth=2;shape=mxgraph.ios7.misc.scroll_(horizontal);fillColor=#a0a0a0;" parent="N6LhWgBp62tD6HMa2VJL-1" vertex="1">
          <mxGeometry x="332.5" y="920" width="145" height="6" as="geometry" />
        </mxCell>
        <mxCell id="9yo1BAda04gmjQnF2BIP-11" value="Feed Settings" style="text;html=1;strokeColor=none;fillColor=none;align=center;verticalAlign=middle;whiteSpace=wrap;rounded=0;fontSize=19;" parent="N6LhWgBp62tD6HMa2VJL-1" vertex="1">
          <mxGeometry x="291.5" y="225" width="210" height="20" as="geometry" />
        </mxCell>
        <mxCell id="9yo1BAda04gmjQnF2BIP-12" value="" style="rounded=0;whiteSpace=wrap;html=1;fillColor=none;fontSize=19;align=left;" parent="N6LhWgBp62tD6HMa2VJL-1" vertex="1">
          <mxGeometry x="220" y="309.5" width="359.53" height="49" as="geometry" />
        </mxCell>
        <mxCell id="9yo1BAda04gmjQnF2BIP-13" value="NZZ - Politik" style="text;html=1;strokeColor=none;fillColor=none;align=center;verticalAlign=middle;whiteSpace=wrap;rounded=0;fontSize=19;" parent="N6LhWgBp62tD6HMa2VJL-1" vertex="1">
          <mxGeometry x="292.21000000000004" y="323.5" width="225" height="20" as="geometry" />
        </mxCell>
        <mxCell id="t3Ic-TG8_IldfPgCIFjd-366" style="edgeStyle=orthogonalEdgeStyle;rounded=0;orthogonalLoop=1;jettySize=auto;html=1;startArrow=none;startFill=0;fontSize=16;fontColor=#000000;" parent="N6LhWgBp62tD6HMa2VJL-1" source="9yo1BAda04gmjQnF2BIP-14" edge="1">
          <mxGeometry relative="1" as="geometry">
            <Array as="points">
              <mxPoint x="720" y="334" />
              <mxPoint x="720" y="80" />
            </Array>
            <mxPoint x="-178.75" y="80" as="targetPoint" />
          </mxGeometry>
        </mxCell>
        <mxCell id="t3Ic-TG8_IldfPgCIFjd-387" value="Edit Feed" style="edgeLabel;html=1;align=center;verticalAlign=middle;resizable=0;points=[];fontSize=19;fontColor=#000000;" parent="t3Ic-TG8_IldfPgCIFjd-366" vertex="1" connectable="0">
          <mxGeometry x="-0.8573" y="1" relative="1" as="geometry">
            <mxPoint x="-19.22" y="0.5" as="offset" />
          </mxGeometry>
        </mxCell>
        <mxCell id="9yo1BAda04gmjQnF2BIP-14" value="" style="html=1;verticalLabelPosition=bottom;labelBackgroundColor=#ffffff;verticalAlign=top;shadow=0;dashed=0;strokeWidth=2;shape=mxgraph.ios7.misc.right;strokeColor=#0080f0;fillColor=none;" parent="N6LhWgBp62tD6HMa2VJL-1" vertex="1">
          <mxGeometry x="546.6500000000001" y="321" width="16" height="26" as="geometry" />
        </mxCell>
        <mxCell id="VdVNATxboIgPf-oeL4fD-6" value="" style="html=1;verticalLabelPosition=bottom;labelBackgroundColor=#ffffff;verticalAlign=top;shadow=0;dashed=0;strokeWidth=2;shape=mxgraph.ios7.misc.scroll_(horizontal);fillColor=#a0a0a0;rounded=0;fontSize=18;fontColor=#000000;align=left;" parent="N6LhWgBp62tD6HMa2VJL-1" vertex="1">
          <mxGeometry x="-1036.5" y="1032.0000000000002" width="145" height="6" as="geometry" />
        </mxCell>
        <mxCell id="VdVNATxboIgPf-oeL4fD-8" value="" style="rounded=0;whiteSpace=wrap;html=1;shadow=0;fontSize=8;fontColor=#CCCCCC;align=left;fillColor=none;" parent="N6LhWgBp62tD6HMa2VJL-1" vertex="1">
          <mxGeometry x="-1139" y="322" width="359" height="40" as="geometry" />
        </mxCell>
        <mxCell id="t3Ic-TG8_IldfPgCIFjd-317" style="edgeStyle=orthogonalEdgeStyle;rounded=0;orthogonalLoop=1;jettySize=auto;html=1;fontSize=16;fontColor=#000000;" parent="N6LhWgBp62tD6HMa2VJL-1" source="VdVNATxboIgPf-oeL4fD-9" edge="1">
          <mxGeometry relative="1" as="geometry">
            <Array as="points">
              <mxPoint x="-1200" y="346" />
              <mxPoint x="-1200" y="160" />
            </Array>
            <mxPoint x="-570" y="160" as="targetPoint" />
          </mxGeometry>
        </mxCell>
        <mxCell id="t3Ic-TG8_IldfPgCIFjd-353" value="Back/Save Changes" style="edgeLabel;html=1;align=center;verticalAlign=middle;resizable=0;points=[];fontSize=16;fontColor=#000000;" parent="t3Ic-TG8_IldfPgCIFjd-317" vertex="1" connectable="0">
          <mxGeometry x="-0.6599" y="4" relative="1" as="geometry">
            <mxPoint y="-1" as="offset" />
          </mxGeometry>
        </mxCell>
        <mxCell id="VdVNATxboIgPf-oeL4fD-9" value="" style="html=1;verticalLabelPosition=bottom;labelBackgroundColor=#ffffff;verticalAlign=top;shadow=0;dashed=0;strokeWidth=2;shape=mxgraph.ios7.misc.left;strokeColor=#0080f0;rounded=0;fillColor=none;fontSize=8;fontColor=#CCCCCC;align=left;" parent="N6LhWgBp62tD6HMa2VJL-1" vertex="1">
          <mxGeometry x="-1130" y="332" width="10" height="20" as="geometry" />
        </mxCell>
        <mxCell id="VdVNATxboIgPf-oeL4fD-10" value="Filter - Kürzel - Name" style="text;html=1;strokeColor=none;fillColor=none;align=center;verticalAlign=middle;whiteSpace=wrap;rounded=0;shadow=0;fontSize=11;" parent="N6LhWgBp62tD6HMa2VJL-1" vertex="1">
          <mxGeometry x="-1029" y="332" width="146" height="20" as="geometry" />
        </mxCell>
        <mxCell id="VdVNATxboIgPf-oeL4fD-12" value="" style="rounded=0;whiteSpace=wrap;html=1;shadow=0;fillColor=none;fontSize=13;fontColor=#000000;align=left;" parent="N6LhWgBp62tD6HMa2VJL-1" vertex="1">
          <mxGeometry x="-1140" y="362" width="360" height="40" as="geometry" />
        </mxCell>
        <mxCell id="VdVNATxboIgPf-oeL4fD-13" value="Trump" style="text;html=1;strokeColor=none;fillColor=none;align=left;verticalAlign=middle;whiteSpace=wrap;rounded=0;shadow=0;fontSize=18;fontColor=#000000;" parent="N6LhWgBp62tD6HMa2VJL-1" vertex="1">
          <mxGeometry x="-1127" y="372" width="107" height="20" as="geometry" />
        </mxCell>
        <mxCell id="VdVNATxboIgPf-oeL4fD-14" value="" style="html=1;verticalLabelPosition=bottom;labelBackgroundColor=#ffffff;verticalAlign=top;shadow=0;dashed=0;strokeWidth=1;shape=mxgraph.ios7ui.onOffButton;buttonState=off;strokeColor=#38D145;strokeColor2=#aaaaaa;fillColor=#38D145;fillColor2=#ffffff;rounded=0;fontSize=18;fontColor=#000000;align=left;" parent="N6LhWgBp62tD6HMa2VJL-1" vertex="1">
          <mxGeometry x="-840" y="377" width="43.5" height="15" as="geometry" />
        </mxCell>
        <mxCell id="VdVNATxboIgPf-oeL4fD-15" value="" style="rounded=0;whiteSpace=wrap;html=1;shadow=0;fillColor=none;fontSize=13;fontColor=#000000;align=left;" parent="N6LhWgBp62tD6HMa2VJL-1" vertex="1">
          <mxGeometry x="-1139" y="402" width="359" height="40" as="geometry" />
        </mxCell>
        <mxCell id="VdVNATxboIgPf-oeL4fD-16" value="China" style="text;html=1;strokeColor=none;fillColor=none;align=left;verticalAlign=middle;whiteSpace=wrap;rounded=0;shadow=0;fontSize=18;fontColor=#000000;" parent="N6LhWgBp62tD6HMa2VJL-1" vertex="1">
          <mxGeometry x="-1126" y="412" width="107" height="20" as="geometry" />
        </mxCell>
        <mxCell id="VdVNATxboIgPf-oeL4fD-17" value="" style="html=1;verticalLabelPosition=bottom;labelBackgroundColor=#ffffff;verticalAlign=top;shadow=0;dashed=0;strokeWidth=1;shape=mxgraph.ios7ui.onOffButton;buttonState=off;strokeColor=#38D145;strokeColor2=#aaaaaa;fillColor=#38D145;fillColor2=#ffffff;rounded=0;fontSize=18;fontColor=#000000;align=left;" parent="N6LhWgBp62tD6HMa2VJL-1" vertex="1">
          <mxGeometry x="-839" y="417" width="43.5" height="15" as="geometry" />
        </mxCell>
        <mxCell id="VdVNATxboIgPf-oeL4fD-18" value="" style="rounded=0;whiteSpace=wrap;html=1;shadow=0;fillColor=none;fontSize=13;fontColor=#000000;align=left;" parent="N6LhWgBp62tD6HMa2VJL-1" vertex="1">
          <mxGeometry x="-1140" y="442" width="360" height="40" as="geometry" />
        </mxCell>
        <mxCell id="VdVNATxboIgPf-oeL4fD-19" value="Corona, Covid" style="text;html=1;strokeColor=none;fillColor=none;align=left;verticalAlign=middle;whiteSpace=wrap;rounded=0;shadow=0;fontSize=18;fontColor=#000000;" parent="N6LhWgBp62tD6HMa2VJL-1" vertex="1">
          <mxGeometry x="-1127" y="452" width="267" height="20" as="geometry" />
        </mxCell>
        <mxCell id="VdVNATxboIgPf-oeL4fD-20" value="" style="html=1;verticalLabelPosition=bottom;labelBackgroundColor=#ffffff;verticalAlign=top;shadow=0;dashed=0;strokeWidth=1;shape=mxgraph.ios7ui.onOffButton;buttonState=on;strokeColor=#38D145;strokeColor2=#aaaaaa;fillColor=#38D145;fillColor2=#ffffff;rounded=0;fontSize=18;fontColor=#000000;align=left;" parent="N6LhWgBp62tD6HMa2VJL-1" vertex="1">
          <mxGeometry x="-840" y="457" width="43.5" height="15" as="geometry" />
        </mxCell>
        <mxCell id="VdVNATxboIgPf-oeL4fD-21" value="" style="rounded=1;whiteSpace=wrap;html=1;" parent="N6LhWgBp62tD6HMa2VJL-1" vertex="1">
          <mxGeometry x="-1040" y="332" width="20" height="20" as="geometry" />
        </mxCell>
        <mxCell id="t3Ic-TG8_IldfPgCIFjd-99" style="edgeStyle=orthogonalEdgeStyle;rounded=0;orthogonalLoop=1;jettySize=auto;html=1;fontSize=25;" parent="N6LhWgBp62tD6HMa2VJL-1" source="t3Ic-TG8_IldfPgCIFjd-0" edge="1">
          <mxGeometry relative="1" as="geometry">
            <mxPoint x="964.5" y="-625" as="targetPoint" />
            <Array as="points">
              <mxPoint x="253" y="-1110" />
              <mxPoint x="620" y="-1110" />
              <mxPoint x="620" y="-625" />
            </Array>
          </mxGeometry>
        </mxCell>
        <mxCell id="t3Ic-TG8_IldfPgCIFjd-417" value="View Menu" style="edgeLabel;html=1;align=center;verticalAlign=middle;resizable=0;points=[];fontSize=19;fontColor=#000000;" parent="t3Ic-TG8_IldfPgCIFjd-99" vertex="1" connectable="0">
          <mxGeometry x="-0.4911" y="-3" relative="1" as="geometry">
            <mxPoint x="1" y="-4.03" as="offset" />
          </mxGeometry>
        </mxCell>
        <mxCell id="t3Ic-TG8_IldfPgCIFjd-0" value="" style="html=1;verticalLabelPosition=bottom;labelBackgroundColor=#ffffff;verticalAlign=top;shadow=0;dashed=0;strokeWidth=2;shape=mxgraph.ios7.misc.options;fillColor=#222222;" parent="N6LhWgBp62tD6HMa2VJL-1" vertex="1">
          <mxGeometry x="237.13" y="-945" width="32" height="20" as="geometry" />
        </mxCell>
        <mxCell id="t3Ic-TG8_IldfPgCIFjd-36" value="" style="html=1;verticalLabelPosition=bottom;labelBackgroundColor=#ffffff;verticalAlign=top;shadow=0;dashed=0;strokeWidth=2;shape=mxgraph.ios7.misc.scroll_(horizontal);fillColor=#a0a0a0;fontSize=14;fontColor=#000000;align=left;" parent="N6LhWgBp62tD6HMa2VJL-1" vertex="1">
          <mxGeometry x="1088" y="-256.9999999999998" width="145" height="6" as="geometry" />
        </mxCell>
        <mxCell id="t3Ic-TG8_IldfPgCIFjd-37" value="" style="rounded=0;whiteSpace=wrap;html=1;fontSize=14;fontColor=#000000;align=left;fillColor=none;" parent="N6LhWgBp62tD6HMa2VJL-1" vertex="1">
          <mxGeometry x="985.5" y="-917" width="355.5" height="110" as="geometry" />
        </mxCell>
        <mxCell id="t3Ic-TG8_IldfPgCIFjd-39" value="Lorem ipsum dolor sit amet, consetetur sadipscing elitr, sed diam nonumy eirmod tempor invidunt ut labore et dolore magna aliquyam erat, sed diam voluptua." style="text;strokeColor=none;fillColor=none;align=left;verticalAlign=middle;whiteSpace=wrap;rounded=0;fontSize=8;fontColor=#000000;shadow=0;html=1;" parent="N6LhWgBp62tD6HMa2VJL-1" vertex="1">
          <mxGeometry x="993.5" y="-967" width="180" height="59.67" as="geometry" />
        </mxCell>
        <mxCell id="t3Ic-TG8_IldfPgCIFjd-40" value="Spiegel Online / 4 Minutes ago" style="text;html=1;strokeColor=none;fillColor=none;align=center;verticalAlign=middle;whiteSpace=wrap;rounded=0;shadow=0;fontSize=8;fontColor=#000000;" parent="N6LhWgBp62tD6HMa2VJL-1" vertex="1">
          <mxGeometry x="993.25" y="-884" width="180" height="10" as="geometry" />
        </mxCell>
        <mxCell id="t3Ic-TG8_IldfPgCIFjd-41" value="" style="rounded=0;whiteSpace=wrap;html=1;fontSize=14;fontColor=#000000;align=left;fillColor=none;" parent="N6LhWgBp62tD6HMa2VJL-1" vertex="1">
          <mxGeometry x="986.5" y="-807" width="354.5" height="110" as="geometry" />
        </mxCell>
        <mxCell id="t3Ic-TG8_IldfPgCIFjd-42" value="Bad orange man really really really bad" style="text;html=1;strokeColor=none;fillColor=none;align=center;verticalAlign=middle;whiteSpace=wrap;rounded=0;fontSize=14;fontColor=#000000;" parent="N6LhWgBp62tD6HMa2VJL-1" vertex="1">
          <mxGeometry x="994.5" y="-847" width="180" height="20" as="geometry" />
        </mxCell>
        <mxCell id="t3Ic-TG8_IldfPgCIFjd-43" value="Lorem ipsum dolor sit amet, consetetur sadipscing elitr, sed diam nonumy eirmod tempor invidunt ut labore et dolore magna aliquyam erat, sed diam voluptua." style="text;strokeColor=none;fillColor=none;align=left;verticalAlign=middle;whiteSpace=wrap;rounded=0;fontSize=8;fontColor=#000000;shadow=0;html=1;" parent="N6LhWgBp62tD6HMa2VJL-1" vertex="1">
          <mxGeometry x="994.5" y="-817" width="180" height="59.67" as="geometry" />
        </mxCell>
        <mxCell id="t3Ic-TG8_IldfPgCIFjd-44" value="Spiegel Online / 6 Minutes ago" style="text;html=1;strokeColor=none;fillColor=none;align=center;verticalAlign=middle;whiteSpace=wrap;rounded=0;shadow=0;fontSize=8;fontColor=#000000;" parent="N6LhWgBp62tD6HMa2VJL-1" vertex="1">
          <mxGeometry x="994.5" y="-817" width="180" height="10" as="geometry" />
        </mxCell>
        <mxCell id="t3Ic-TG8_IldfPgCIFjd-45" value="" style="rounded=0;whiteSpace=wrap;html=1;fontSize=14;fontColor=#000000;align=left;fillColor=none;" parent="N6LhWgBp62tD6HMa2VJL-1" vertex="1">
          <mxGeometry x="986.5" y="-697" width="353.5" height="110" as="geometry" />
        </mxCell>
        <mxCell id="t3Ic-TG8_IldfPgCIFjd-46" value="Bad orange man saying chinese virus is from china in xenophobic rant" style="text;html=1;strokeColor=none;fillColor=none;align=center;verticalAlign=middle;whiteSpace=wrap;rounded=0;fontSize=14;fontColor=#CCCCCC;" parent="N6LhWgBp62tD6HMa2VJL-1" vertex="1">
          <mxGeometry x="993.5" y="-787" width="180" height="60" as="geometry" />
        </mxCell>
        <mxCell id="t3Ic-TG8_IldfPgCIFjd-47" value="Lorem ipsum dolor sit amet, consetetur sadipscing elitr, sed diam nonumy eirmod tempor invidunt ut labore et dolore magna aliquyam erat, sed diam voluptua." style="text;strokeColor=none;fillColor=none;align=left;verticalAlign=middle;whiteSpace=wrap;rounded=0;fontSize=8;shadow=0;html=1;fontColor=#CCCCCC;" parent="N6LhWgBp62tD6HMa2VJL-1" vertex="1">
          <mxGeometry x="993.5" y="-727" width="180" height="59.67" as="geometry" />
        </mxCell>
        <mxCell id="t3Ic-TG8_IldfPgCIFjd-48" value="Spiegel Online / 14 Minutes ago" style="text;html=1;strokeColor=none;fillColor=none;align=center;verticalAlign=middle;whiteSpace=wrap;rounded=0;shadow=0;fontSize=8;fontColor=#CCCCCC;" parent="N6LhWgBp62tD6HMa2VJL-1" vertex="1">
          <mxGeometry x="994.5" y="-727" width="180" height="10" as="geometry" />
        </mxCell>
        <mxCell id="t3Ic-TG8_IldfPgCIFjd-49" value="" style="rounded=0;whiteSpace=wrap;html=1;fontSize=14;fontColor=#000000;align=left;fillColor=none;" parent="N6LhWgBp62tD6HMa2VJL-1" vertex="1">
          <mxGeometry x="985.5" y="-587" width="355.5" height="110" as="geometry" />
        </mxCell>
        <mxCell id="t3Ic-TG8_IldfPgCIFjd-50" value="Überschrift" style="text;html=1;strokeColor=none;fillColor=none;align=center;verticalAlign=middle;whiteSpace=wrap;rounded=0;fontSize=14;fontColor=#000000;" parent="N6LhWgBp62tD6HMa2VJL-1" vertex="1">
          <mxGeometry x="993.5" y="-667" width="180" height="20" as="geometry" />
        </mxCell>
        <mxCell id="t3Ic-TG8_IldfPgCIFjd-51" value="Lorem ipsum dolor sit amet, consetetur sadipscing elitr, sed diam nonumy eirmod tempor invidunt ut labore et dolore magna aliquyam erat, sed diam voluptua." style="text;strokeColor=none;fillColor=none;align=left;verticalAlign=middle;whiteSpace=wrap;rounded=0;fontSize=8;fontColor=#000000;shadow=0;html=1;" parent="N6LhWgBp62tD6HMa2VJL-1" vertex="1">
          <mxGeometry x="993.5" y="-637" width="180" height="59.67" as="geometry" />
        </mxCell>
        <mxCell id="t3Ic-TG8_IldfPgCIFjd-52" value="News Site / x Minutes ago" style="text;html=1;strokeColor=none;fillColor=none;align=center;verticalAlign=middle;whiteSpace=wrap;rounded=0;shadow=0;fontSize=8;fontColor=#000000;" parent="N6LhWgBp62tD6HMa2VJL-1" vertex="1">
          <mxGeometry x="993.5" y="-647" width="180" height="10" as="geometry" />
        </mxCell>
        <mxCell id="t3Ic-TG8_IldfPgCIFjd-53" value="" style="rounded=0;whiteSpace=wrap;html=1;shadow=0;fillColor=none;fontSize=8;fontColor=#000000;align=left;" parent="N6LhWgBp62tD6HMa2VJL-1" vertex="1">
          <mxGeometry x="1185.46" y="-577" width="139" height="90" as="geometry" />
        </mxCell>
        <mxCell id="t3Ic-TG8_IldfPgCIFjd-54" value="" style="rounded=0;whiteSpace=wrap;html=1;fontSize=14;fontColor=#000000;align=left;fillColor=none;" parent="N6LhWgBp62tD6HMa2VJL-1" vertex="1">
          <mxGeometry x="986" y="-477" width="355" height="110" as="geometry" />
        </mxCell>
        <mxCell id="t3Ic-TG8_IldfPgCIFjd-55" value="Überschrift" style="text;html=1;strokeColor=none;fillColor=none;align=center;verticalAlign=middle;whiteSpace=wrap;rounded=0;fontSize=14;fontColor=#000000;" parent="N6LhWgBp62tD6HMa2VJL-1" vertex="1">
          <mxGeometry x="994" y="-557" width="180" height="20" as="geometry" />
        </mxCell>
        <mxCell id="t3Ic-TG8_IldfPgCIFjd-56" value="Lorem ipsum dolor sit amet, consetetur sadipscing elitr, sed diam nonumy eirmod tempor invidunt ut labore et dolore magna aliquyam erat, sed diam voluptua." style="text;strokeColor=none;fillColor=none;align=left;verticalAlign=middle;whiteSpace=wrap;rounded=0;fontSize=8;fontColor=#000000;shadow=0;html=1;" parent="N6LhWgBp62tD6HMa2VJL-1" vertex="1">
          <mxGeometry x="994" y="-527" width="180" height="59.67" as="geometry" />
        </mxCell>
        <mxCell id="t3Ic-TG8_IldfPgCIFjd-57" value="News Site / x Minutes ago" style="text;html=1;strokeColor=none;fillColor=none;align=center;verticalAlign=middle;whiteSpace=wrap;rounded=0;shadow=0;fontSize=8;fontColor=#000000;" parent="N6LhWgBp62tD6HMa2VJL-1" vertex="1">
          <mxGeometry x="994" y="-537" width="180" height="10" as="geometry" />
        </mxCell>
        <mxCell id="t3Ic-TG8_IldfPgCIFjd-58" value="" style="rounded=0;whiteSpace=wrap;html=1;shadow=0;fillColor=none;fontSize=8;fontColor=#000000;align=left;" parent="N6LhWgBp62tD6HMa2VJL-1" vertex="1">
          <mxGeometry x="1185.96" y="-467" width="139" height="90" as="geometry" />
        </mxCell>
        <mxCell id="t3Ic-TG8_IldfPgCIFjd-59" value="" style="rounded=0;whiteSpace=wrap;html=1;shadow=0;fillColor=none;fontSize=8;fontColor=#000000;align=left;" parent="N6LhWgBp62tD6HMa2VJL-1" vertex="1">
          <mxGeometry x="1185.46" y="-687" width="139" height="90" as="geometry" />
        </mxCell>
        <mxCell id="t3Ic-TG8_IldfPgCIFjd-60" value="" style="rounded=0;whiteSpace=wrap;html=1;shadow=0;fillColor=none;fontSize=8;fontColor=#000000;align=left;" parent="N6LhWgBp62tD6HMa2VJL-1" vertex="1">
          <mxGeometry x="1185.46" y="-797" width="139" height="90" as="geometry" />
        </mxCell>
        <mxCell id="t3Ic-TG8_IldfPgCIFjd-61" value="" style="rounded=0;whiteSpace=wrap;html=1;shadow=0;fillColor=none;fontSize=8;fontColor=#000000;align=left;" parent="N6LhWgBp62tD6HMa2VJL-1" vertex="1">
          <mxGeometry x="1185.46" y="-907" width="139" height="90" as="geometry" />
        </mxCell>
        <mxCell id="t3Ic-TG8_IldfPgCIFjd-62" value="" style="html=1;verticalLabelPosition=bottom;labelBackgroundColor=#ffffff;verticalAlign=top;shadow=0;dashed=0;strokeWidth=2;shape=mxgraph.ios7.misc.options;fillColor=#222222;" parent="N6LhWgBp62tD6HMa2VJL-1" vertex="1">
          <mxGeometry x="1001.13" y="-902" width="32" height="20" as="geometry" />
        </mxCell>
        <mxCell id="t3Ic-TG8_IldfPgCIFjd-63" value="" style="rounded=0;whiteSpace=wrap;html=1;" parent="N6LhWgBp62tD6HMa2VJL-1" vertex="1">
          <mxGeometry x="984.5" y="-967" width="263" height="703" as="geometry" />
        </mxCell>
        <mxCell id="t3Ic-TG8_IldfPgCIFjd-108" style="edgeStyle=orthogonalEdgeStyle;rounded=0;orthogonalLoop=1;jettySize=auto;html=1;fontSize=25;fontColor=#000000;strokeColor=#3333FF;" parent="N6LhWgBp62tD6HMa2VJL-1" source="t3Ic-TG8_IldfPgCIFjd-67" edge="1">
          <mxGeometry relative="1" as="geometry">
            <mxPoint x="600.25" y="555" as="targetPoint" />
            <Array as="points">
              <mxPoint x="750" y="-1086" />
              <mxPoint x="750" y="555" />
            </Array>
          </mxGeometry>
        </mxCell>
        <mxCell id="t3Ic-TG8_IldfPgCIFjd-392" value="Edit Feeds" style="edgeLabel;html=1;align=center;verticalAlign=middle;resizable=0;points=[];fontSize=19;fontColor=#000000;" parent="t3Ic-TG8_IldfPgCIFjd-108" vertex="1" connectable="0">
          <mxGeometry x="-0.8613" y="-1" relative="1" as="geometry">
            <mxPoint as="offset" />
          </mxGeometry>
        </mxCell>
        <mxCell id="t3Ic-TG8_IldfPgCIFjd-68" value="" style="html=1;verticalLabelPosition=bottom;align=center;labelBackgroundColor=#ffffff;verticalAlign=top;strokeWidth=2;strokeColor=#0080F0;shadow=0;dashed=0;shape=mxgraph.ios7.icons.most_viewed;pointerEvents=1" parent="N6LhWgBp62tD6HMa2VJL-1" vertex="1">
          <mxGeometry x="1770" y="-1097" width="28.2" height="22.8" as="geometry" />
        </mxCell>
        <mxCell id="t3Ic-TG8_IldfPgCIFjd-70" value="Feeds" style="text;html=1;strokeColor=none;fillColor=none;align=left;verticalAlign=middle;whiteSpace=wrap;rounded=0;spacingLeft=10;" parent="N6LhWgBp62tD6HMa2VJL-1" vertex="1">
          <mxGeometry x="989" y="-962" width="260" height="20" as="geometry" />
        </mxCell>
        <mxCell id="t3Ic-TG8_IldfPgCIFjd-71" value="&lt;font style=&quot;font-size: 18px&quot;&gt;All&lt;/font&gt;" style="rounded=0;whiteSpace=wrap;html=1;align=left;spacingLeft=45;" parent="N6LhWgBp62tD6HMa2VJL-1" vertex="1">
          <mxGeometry x="984.5" y="-937" width="262.5" height="40" as="geometry" />
        </mxCell>
        <mxCell id="t3Ic-TG8_IldfPgCIFjd-340" style="edgeStyle=orthogonalEdgeStyle;rounded=0;orthogonalLoop=1;jettySize=auto;html=1;startArrow=none;startFill=0;fontSize=16;fontColor=#000000;strokeColor=#FF8000;" parent="N6LhWgBp62tD6HMa2VJL-1" source="t3Ic-TG8_IldfPgCIFjd-72" edge="1">
          <mxGeometry relative="1" as="geometry">
            <Array as="points">
              <mxPoint x="780" y="-917" />
              <mxPoint x="780" y="-460" />
            </Array>
            <mxPoint x="591.25" y="-459.9411764705883" as="targetPoint" />
          </mxGeometry>
        </mxCell>
        <mxCell id="t3Ic-TG8_IldfPgCIFjd-414" value="View Main Feed" style="edgeLabel;html=1;align=center;verticalAlign=middle;resizable=0;points=[];fontSize=19;fontColor=#000000;" parent="t3Ic-TG8_IldfPgCIFjd-340" vertex="1" connectable="0">
          <mxGeometry x="-0.8444" y="-1" relative="1" as="geometry">
            <mxPoint x="-56" y="1.01" as="offset" />
          </mxGeometry>
        </mxCell>
        <mxCell id="t3Ic-TG8_IldfPgCIFjd-72" value="" style="html=1;verticalLabelPosition=bottom;align=center;labelBackgroundColor=#ffffff;verticalAlign=top;strokeWidth=2;strokeColor=#0080F0;shadow=0;dashed=0;shape=mxgraph.ios7.icons.folders_2;" parent="N6LhWgBp62tD6HMa2VJL-1" vertex="1">
          <mxGeometry x="995" y="-928" width="30" height="22.5" as="geometry" />
        </mxCell>
        <mxCell id="t3Ic-TG8_IldfPgCIFjd-341" style="edgeStyle=orthogonalEdgeStyle;rounded=0;orthogonalLoop=1;jettySize=auto;html=1;startArrow=none;startFill=0;fontSize=16;fontColor=#000000;strokeColor=#FF8000;" parent="N6LhWgBp62tD6HMa2VJL-1" source="t3Ic-TG8_IldfPgCIFjd-73" edge="1">
          <mxGeometry relative="1" as="geometry">
            <Array as="points">
              <mxPoint x="780" y="-804" />
              <mxPoint x="780" y="-460" />
            </Array>
            <mxPoint x="591.25" y="-459.9411764705883" as="targetPoint" />
          </mxGeometry>
        </mxCell>
        <mxCell id="t3Ic-TG8_IldfPgCIFjd-415" value="View Category Feed" style="edgeLabel;html=1;align=center;verticalAlign=middle;resizable=0;points=[];fontSize=19;fontColor=#000000;" parent="t3Ic-TG8_IldfPgCIFjd-341" vertex="1" connectable="0">
          <mxGeometry x="-0.6624" relative="1" as="geometry">
            <mxPoint x="20.07" y="-0.01" as="offset" />
          </mxGeometry>
        </mxCell>
        <mxCell id="t3Ic-TG8_IldfPgCIFjd-73" value="&lt;font style=&quot;font-size: 18px&quot;&gt;Politics&lt;/font&gt;" style="rounded=0;whiteSpace=wrap;html=1;align=left;spacingLeft=45;" parent="N6LhWgBp62tD6HMa2VJL-1" vertex="1">
          <mxGeometry x="984.5" y="-824.5" width="262.5" height="40" as="geometry" />
        </mxCell>
        <mxCell id="t3Ic-TG8_IldfPgCIFjd-75" value="" style="html=1;verticalLabelPosition=bottom;labelBackgroundColor=#ffffff;verticalAlign=top;shadow=0;dashed=0;strokeWidth=2;shape=mxgraph.ios7.misc.down;strokeColor=#0080f0;align=left;" parent="N6LhWgBp62tD6HMa2VJL-1" vertex="1">
          <mxGeometry x="999.5" y="-812.5" width="21" height="16" as="geometry" />
        </mxCell>
        <mxCell id="t3Ic-TG8_IldfPgCIFjd-76" value="&lt;font style=&quot;font-size: 18px&quot;&gt;Culture&lt;/font&gt;" style="rounded=0;whiteSpace=wrap;html=1;align=left;spacingLeft=45;" parent="N6LhWgBp62tD6HMa2VJL-1" vertex="1">
          <mxGeometry x="984.5" y="-704.5" width="262.5" height="40" as="geometry" />
        </mxCell>
        <mxCell id="t3Ic-TG8_IldfPgCIFjd-77" value="" style="html=1;verticalLabelPosition=bottom;labelBackgroundColor=#ffffff;verticalAlign=top;shadow=0;dashed=0;strokeWidth=2;shape=mxgraph.ios7.misc.right;strokeColor=#0080f0;align=left;" parent="N6LhWgBp62tD6HMa2VJL-1" vertex="1">
          <mxGeometry x="1003" y="-695.5" width="14" height="22" as="geometry" />
        </mxCell>
        <mxCell id="t3Ic-TG8_IldfPgCIFjd-78" value="&lt;font style=&quot;font-size: 18px&quot;&gt;Gaming&lt;/font&gt;" style="rounded=0;whiteSpace=wrap;html=1;align=left;spacingLeft=45;" parent="N6LhWgBp62tD6HMa2VJL-1" vertex="1">
          <mxGeometry x="984.5" y="-664" width="262.5" height="40" as="geometry" />
        </mxCell>
        <mxCell id="t3Ic-TG8_IldfPgCIFjd-79" value="" style="html=1;verticalLabelPosition=bottom;labelBackgroundColor=#ffffff;verticalAlign=top;shadow=0;dashed=0;strokeWidth=2;shape=mxgraph.ios7.misc.right;strokeColor=#0080f0;align=left;" parent="N6LhWgBp62tD6HMa2VJL-1" vertex="1">
          <mxGeometry x="1003" y="-655" width="14" height="22" as="geometry" />
        </mxCell>
        <mxCell id="t3Ic-TG8_IldfPgCIFjd-80" value="Categories" style="text;html=1;strokeColor=none;fillColor=none;align=left;verticalAlign=middle;whiteSpace=wrap;rounded=0;spacingLeft=10;" parent="N6LhWgBp62tD6HMa2VJL-1" vertex="1">
          <mxGeometry x="987.75" y="-850.17" width="260" height="20" as="geometry" />
        </mxCell>
        <mxCell id="t3Ic-TG8_IldfPgCIFjd-342" style="edgeStyle=orthogonalEdgeStyle;rounded=0;orthogonalLoop=1;jettySize=auto;html=1;startArrow=none;startFill=0;fontSize=16;fontColor=#000000;strokeColor=#FF8000;" parent="N6LhWgBp62tD6HMa2VJL-1" source="t3Ic-TG8_IldfPgCIFjd-81" edge="1">
          <mxGeometry relative="1" as="geometry">
            <Array as="points">
              <mxPoint x="780" y="-764" />
              <mxPoint x="780" y="-460" />
            </Array>
            <mxPoint x="591.25" y="-459.9411764705883" as="targetPoint" />
          </mxGeometry>
        </mxCell>
        <mxCell id="t3Ic-TG8_IldfPgCIFjd-416" value="View Single Feed" style="edgeLabel;html=1;align=center;verticalAlign=middle;resizable=0;points=[];fontSize=19;fontColor=#000000;" parent="t3Ic-TG8_IldfPgCIFjd-342" vertex="1" connectable="0">
          <mxGeometry x="-0.5615" y="1" relative="1" as="geometry">
            <mxPoint x="37.83" y="-1.02" as="offset" />
          </mxGeometry>
        </mxCell>
        <mxCell id="t3Ic-TG8_IldfPgCIFjd-81" value="&lt;font style=&quot;font-size: 18px&quot;&gt;SPON - Politik&lt;/font&gt;" style="rounded=0;whiteSpace=wrap;html=1;align=left;spacingLeft=65;" parent="N6LhWgBp62tD6HMa2VJL-1" vertex="1">
          <mxGeometry x="984.5" y="-784.5" width="262.5" height="40" as="geometry" />
        </mxCell>
        <mxCell id="t3Ic-TG8_IldfPgCIFjd-82" value="&lt;font style=&quot;font-size: 18px&quot;&gt;NZZ - Politik&lt;/font&gt;" style="rounded=0;whiteSpace=wrap;html=1;align=left;spacingLeft=65;" parent="N6LhWgBp62tD6HMa2VJL-1" vertex="1">
          <mxGeometry x="984.5" y="-744.5" width="262.5" height="40" as="geometry" />
        </mxCell>
        <mxCell id="t3Ic-TG8_IldfPgCIFjd-84" value="Newspapers" style="text;html=1;strokeColor=none;fillColor=none;align=left;verticalAlign=middle;whiteSpace=wrap;rounded=0;spacingLeft=10;" parent="N6LhWgBp62tD6HMa2VJL-1" vertex="1">
          <mxGeometry x="987.25" y="-617.1700000000001" width="260" height="20" as="geometry" />
        </mxCell>
        <mxCell id="t3Ic-TG8_IldfPgCIFjd-85" value="&lt;span style=&quot;font-size: 18px&quot;&gt;Neue Züricher Zeitung&lt;/span&gt;" style="rounded=0;whiteSpace=wrap;html=1;align=left;spacingLeft=67;" parent="N6LhWgBp62tD6HMa2VJL-1" vertex="1">
          <mxGeometry x="984.5" y="-587" width="262.5" height="40" as="geometry" />
        </mxCell>
        <mxCell id="t3Ic-TG8_IldfPgCIFjd-86" value="&lt;font style=&quot;font-size: 18px&quot;&gt;Politik&lt;/font&gt;" style="rounded=0;whiteSpace=wrap;html=1;align=left;spacingLeft=65;" parent="N6LhWgBp62tD6HMa2VJL-1" vertex="1">
          <mxGeometry x="984.5" y="-547" width="262.5" height="40" as="geometry" />
        </mxCell>
        <mxCell id="t3Ic-TG8_IldfPgCIFjd-87" value="&lt;font style=&quot;font-size: 18px&quot;&gt;Kultur&lt;/font&gt;" style="rounded=0;whiteSpace=wrap;html=1;align=left;spacingLeft=65;" parent="N6LhWgBp62tD6HMa2VJL-1" vertex="1">
          <mxGeometry x="984.5" y="-507" width="262.5" height="40" as="geometry" />
        </mxCell>
        <mxCell id="t3Ic-TG8_IldfPgCIFjd-88" value="" style="html=1;verticalLabelPosition=bottom;labelBackgroundColor=#ffffff;verticalAlign=top;shadow=0;dashed=0;strokeWidth=2;shape=mxgraph.ios7.misc.down;strokeColor=#0080f0;align=left;" parent="N6LhWgBp62tD6HMa2VJL-1" vertex="1">
          <mxGeometry x="999.5" y="-573" width="21" height="16" as="geometry" />
        </mxCell>
        <mxCell id="t3Ic-TG8_IldfPgCIFjd-89" value="" style="rounded=1;whiteSpace=wrap;html=1;align=left;" parent="N6LhWgBp62tD6HMa2VJL-1" vertex="1">
          <mxGeometry x="1029" y="-576" width="19.33" height="19.33" as="geometry" />
        </mxCell>
        <mxCell id="t3Ic-TG8_IldfPgCIFjd-90" value="&lt;span style=&quot;font-size: 18px&quot;&gt;Spiegel Online&lt;/span&gt;" style="rounded=0;whiteSpace=wrap;html=1;align=left;spacingLeft=67;" parent="N6LhWgBp62tD6HMa2VJL-1" vertex="1">
          <mxGeometry x="984.5" y="-467" width="262.5" height="40" as="geometry" />
        </mxCell>
        <mxCell id="t3Ic-TG8_IldfPgCIFjd-92" value="" style="rounded=1;whiteSpace=wrap;html=1;align=left;" parent="N6LhWgBp62tD6HMa2VJL-1" vertex="1">
          <mxGeometry x="1029" y="-456.65999999999997" width="19.33" height="19.33" as="geometry" />
        </mxCell>
        <mxCell id="t3Ic-TG8_IldfPgCIFjd-93" value="&lt;span style=&quot;font-size: 18px&quot;&gt;Gamestar&lt;/span&gt;" style="rounded=0;whiteSpace=wrap;html=1;align=left;spacingLeft=67;" parent="N6LhWgBp62tD6HMa2VJL-1" vertex="1">
          <mxGeometry x="984.5" y="-427" width="262.5" height="40" as="geometry" />
        </mxCell>
        <mxCell id="t3Ic-TG8_IldfPgCIFjd-95" value="" style="rounded=1;whiteSpace=wrap;html=1;align=left;" parent="N6LhWgBp62tD6HMa2VJL-1" vertex="1">
          <mxGeometry x="1029" y="-416.65999999999997" width="19.33" height="19.33" as="geometry" />
        </mxCell>
        <mxCell id="t3Ic-TG8_IldfPgCIFjd-96" value="" style="html=1;verticalLabelPosition=bottom;labelBackgroundColor=#ffffff;verticalAlign=top;shadow=0;dashed=0;strokeWidth=2;shape=mxgraph.ios7.misc.right;strokeColor=#0080f0;align=left;" parent="N6LhWgBp62tD6HMa2VJL-1" vertex="1">
          <mxGeometry x="1003" y="-458" width="14" height="22" as="geometry" />
        </mxCell>
        <mxCell id="t3Ic-TG8_IldfPgCIFjd-97" value="" style="html=1;verticalLabelPosition=bottom;labelBackgroundColor=#ffffff;verticalAlign=top;shadow=0;dashed=0;strokeWidth=2;shape=mxgraph.ios7.misc.right;strokeColor=#0080f0;align=left;" parent="N6LhWgBp62tD6HMa2VJL-1" vertex="1">
          <mxGeometry x="1003" y="-418" width="14" height="22" as="geometry" />
        </mxCell>
        <mxCell id="t3Ic-TG8_IldfPgCIFjd-98" value="Main/Reader View" style="text;html=1;strokeColor=none;fillColor=none;align=center;verticalAlign=middle;whiteSpace=wrap;rounded=0;fontSize=25;" parent="N6LhWgBp62tD6HMa2VJL-1" vertex="1">
          <mxGeometry x="248.38" y="-1030" width="312.5" height="20" as="geometry" />
        </mxCell>
        <mxCell id="t3Ic-TG8_IldfPgCIFjd-100" value="Side Menu" style="text;html=1;strokeColor=none;fillColor=none;align=center;verticalAlign=middle;whiteSpace=wrap;rounded=0;fontSize=25;" parent="N6LhWgBp62tD6HMa2VJL-1" vertex="1">
          <mxGeometry x="1001.63" y="-1030" width="312.5" height="20" as="geometry" />
        </mxCell>
        <mxCell id="t3Ic-TG8_IldfPgCIFjd-101" value="Feed Blacklist Keywords Selection" style="text;html=1;strokeColor=none;fillColor=none;align=center;verticalAlign=middle;whiteSpace=wrap;rounded=0;fontSize=25;" parent="N6LhWgBp62tD6HMa2VJL-1" vertex="1">
          <mxGeometry x="-1120.75" y="232" width="312.5" height="50" as="geometry" />
        </mxCell>
        <mxCell id="t3Ic-TG8_IldfPgCIFjd-127" style="edgeStyle=orthogonalEdgeStyle;rounded=0;orthogonalLoop=1;jettySize=auto;html=1;fontSize=16;fontColor=#000000;" parent="N6LhWgBp62tD6HMa2VJL-1" source="t3Ic-TG8_IldfPgCIFjd-105" edge="1">
          <mxGeometry relative="1" as="geometry">
            <Array as="points">
              <mxPoint x="246" y="-120" />
              <mxPoint x="1160" y="-120" />
            </Array>
            <mxPoint x="1160" y="-217" as="targetPoint" />
          </mxGeometry>
        </mxCell>
        <mxCell id="t3Ic-TG8_IldfPgCIFjd-105" value="" style="html=1;verticalLabelPosition=bottom;labelBackgroundColor=#ffffff;verticalAlign=top;shadow=0;dashed=0;strokeWidth=2;shape=mxgraph.ios7.misc.left;strokeColor=#0080f0;fillColor=none;fontSize=25;align=left;" parent="N6LhWgBp62tD6HMa2VJL-1" vertex="1">
          <mxGeometry x="237.13" y="222.5" width="17" height="26" as="geometry" />
        </mxCell>
        <mxCell id="t3Ic-TG8_IldfPgCIFjd-297" style="edgeStyle=orthogonalEdgeStyle;rounded=0;orthogonalLoop=1;jettySize=auto;html=1;fontSize=16;fontColor=#000000;" parent="N6LhWgBp62tD6HMa2VJL-1" source="t3Ic-TG8_IldfPgCIFjd-106" edge="1">
          <mxGeometry relative="1" as="geometry">
            <mxPoint x="-178.75" y="80" as="targetPoint" />
            <Array as="points">
              <mxPoint x="555" y="80" />
            </Array>
          </mxGeometry>
        </mxCell>
        <mxCell id="t3Ic-TG8_IldfPgCIFjd-388" value="Add Feed" style="edgeLabel;html=1;align=center;verticalAlign=middle;resizable=0;points=[];fontSize=19;fontColor=#000000;" parent="t3Ic-TG8_IldfPgCIFjd-297" vertex="1" connectable="0">
          <mxGeometry x="-0.7929" y="1" relative="1" as="geometry">
            <mxPoint as="offset" />
          </mxGeometry>
        </mxCell>
        <mxCell id="t3Ic-TG8_IldfPgCIFjd-106" value="" style="html=1;verticalLabelPosition=bottom;labelBackgroundColor=#ffffff;verticalAlign=top;shadow=0;dashed=0;strokeWidth=2;shape=mxgraph.ios7.misc.flagged;strokeColor=#0080f0;fillColor=none;fontSize=25;fontColor=#000000;align=left;" parent="N6LhWgBp62tD6HMa2VJL-1" vertex="1">
          <mxGeometry x="544.62" y="225" width="21" height="21" as="geometry" />
        </mxCell>
        <mxCell id="t3Ic-TG8_IldfPgCIFjd-125" value="Neue Züricher Zeitung" style="text;html=1;strokeColor=none;fillColor=none;align=center;verticalAlign=middle;whiteSpace=wrap;rounded=0;labelBackgroundColor=none;fontSize=16;fontColor=#000000;" parent="N6LhWgBp62tD6HMa2VJL-1" vertex="1">
          <mxGeometry x="302.46" y="276" width="184.5" height="20" as="geometry" />
        </mxCell>
        <mxCell id="t3Ic-TG8_IldfPgCIFjd-185" value="" style="rounded=1;whiteSpace=wrap;html=1;labelBackgroundColor=none;fillColor=none;fontSize=16;fontColor=#000000;align=left;" parent="N6LhWgBp62tD6HMa2VJL-1" vertex="1">
          <mxGeometry x="237.13" y="270" width="30" height="30" as="geometry" />
        </mxCell>
        <mxCell id="t3Ic-TG8_IldfPgCIFjd-365" style="edgeStyle=orthogonalEdgeStyle;rounded=0;orthogonalLoop=1;jettySize=auto;html=1;startArrow=none;startFill=0;fontSize=16;fontColor=#000000;" parent="N6LhWgBp62tD6HMa2VJL-1" source="t3Ic-TG8_IldfPgCIFjd-186" edge="1">
          <mxGeometry relative="1" as="geometry">
            <Array as="points">
              <mxPoint x="910" y="285" />
              <mxPoint x="910" y="285" />
            </Array>
            <mxPoint x="1030" y="285" as="targetPoint" />
          </mxGeometry>
        </mxCell>
        <mxCell id="t3Ic-TG8_IldfPgCIFjd-389" value="Edit Source" style="edgeLabel;html=1;align=center;verticalAlign=middle;resizable=0;points=[];fontSize=19;fontColor=#000000;" parent="t3Ic-TG8_IldfPgCIFjd-365" vertex="1" connectable="0">
          <mxGeometry x="0.4863" y="-264" relative="1" as="geometry">
            <mxPoint x="-260.26" y="-264.03" as="offset" />
          </mxGeometry>
        </mxCell>
        <mxCell id="t3Ic-TG8_IldfPgCIFjd-186" value="" style="html=1;verticalLabelPosition=bottom;labelBackgroundColor=#ffffff;verticalAlign=top;shadow=0;dashed=0;strokeWidth=2;shape=mxgraph.ios7.misc.right;strokeColor=#0080f0;fillColor=none;" parent="N6LhWgBp62tD6HMa2VJL-1" vertex="1">
          <mxGeometry x="546.83" y="272" width="16" height="26" as="geometry" />
        </mxCell>
        <mxCell id="t3Ic-TG8_IldfPgCIFjd-233" value="" style="html=1;verticalLabelPosition=bottom;labelBackgroundColor=#ffffff;verticalAlign=top;shadow=0;dashed=0;strokeWidth=2;shape=mxgraph.ios7.misc.scroll_(horizontal);fillColor=#a0a0a0;fontSize=14;fontColor=#000000;align=left;" parent="N6LhWgBp62tD6HMa2VJL-1" vertex="1">
          <mxGeometry x="1153.5" y="802" width="145" height="6" as="geometry" />
        </mxCell>
        <mxCell id="t3Ic-TG8_IldfPgCIFjd-234" value="" style="rounded=0;whiteSpace=wrap;html=1;labelBackgroundColor=none;fillColor=none;fontSize=16;fontColor=#000000;align=left;" parent="N6LhWgBp62tD6HMa2VJL-1" vertex="1">
          <mxGeometry x="1051" y="92" width="357" height="50" as="geometry" />
        </mxCell>
        <mxCell id="t3Ic-TG8_IldfPgCIFjd-322" style="edgeStyle=orthogonalEdgeStyle;rounded=0;orthogonalLoop=1;jettySize=auto;html=1;fontSize=16;fontColor=#000000;strokeColor=#3333FF;" parent="N6LhWgBp62tD6HMa2VJL-1" source="t3Ic-TG8_IldfPgCIFjd-236" edge="1">
          <mxGeometry relative="1" as="geometry">
            <Array as="points">
              <mxPoint x="750" y="117" />
              <mxPoint x="750" y="555" />
            </Array>
            <mxPoint x="600.25" y="555" as="targetPoint" />
          </mxGeometry>
        </mxCell>
        <mxCell id="t3Ic-TG8_IldfPgCIFjd-390" value="Back/Discard Changes" style="edgeLabel;html=1;align=center;verticalAlign=middle;resizable=0;points=[];fontSize=19;fontColor=#000000;" parent="t3Ic-TG8_IldfPgCIFjd-322" vertex="1" connectable="0">
          <mxGeometry x="-0.6656" y="1" relative="1" as="geometry">
            <mxPoint as="offset" />
          </mxGeometry>
        </mxCell>
        <mxCell id="t3Ic-TG8_IldfPgCIFjd-236" value="" style="html=1;verticalLabelPosition=bottom;labelBackgroundColor=#ffffff;verticalAlign=top;shadow=0;dashed=0;strokeWidth=2;shape=mxgraph.ios7.misc.left;strokeColor=#0080f0;fillColor=none;fontSize=25;align=left;" parent="N6LhWgBp62tD6HMa2VJL-1" vertex="1">
          <mxGeometry x="1060" y="104" width="17" height="26" as="geometry" />
        </mxCell>
        <mxCell id="t3Ic-TG8_IldfPgCIFjd-237" value="Name" style="text;html=1;strokeColor=none;fillColor=none;align=left;verticalAlign=middle;whiteSpace=wrap;rounded=0;shadow=0;fontSize=18;fontColor=#000000;" parent="N6LhWgBp62tD6HMa2VJL-1" vertex="1">
          <mxGeometry x="1063" y="327" width="77" height="20" as="geometry" />
        </mxCell>
        <mxCell id="t3Ic-TG8_IldfPgCIFjd-238" value="&lt;span style=&quot;color: rgb(0 , 0 , 0) ; font-family: &amp;#34;helvetica&amp;#34; ; font-size: 18px ; font-style: normal ; font-weight: 400 ; letter-spacing: normal ; text-align: left ; text-indent: 0px ; text-transform: none ; word-spacing: 0px ; background-color: rgb(248 , 249 , 250) ; display: inline ; float: none&quot;&gt;Neue Züricher Zeitung&lt;/span&gt;" style="rounded=1;whiteSpace=wrap;html=1;shadow=0;fillColor=none;fontSize=18;fontColor=#000000;align=left;" parent="N6LhWgBp62tD6HMa2VJL-1" vertex="1">
          <mxGeometry x="1140" y="322" width="250" height="30" as="geometry" />
        </mxCell>
        <mxCell id="t3Ic-TG8_IldfPgCIFjd-243" value="Kürzel" style="text;html=1;strokeColor=none;fillColor=none;align=left;verticalAlign=middle;whiteSpace=wrap;rounded=0;shadow=0;fontSize=18;fontColor=#000000;" parent="N6LhWgBp62tD6HMa2VJL-1" vertex="1">
          <mxGeometry x="1063" y="368" width="77" height="20" as="geometry" />
        </mxCell>
        <mxCell id="t3Ic-TG8_IldfPgCIFjd-244" value="&lt;span style=&quot;color: rgb(0 , 0 , 0) ; font-family: &amp;#34;helvetica&amp;#34; ; font-size: 18px ; font-style: normal ; font-weight: 400 ; letter-spacing: normal ; text-align: left ; text-indent: 0px ; text-transform: none ; word-spacing: 0px ; background-color: rgb(248 , 249 , 250) ; display: inline ; float: none&quot;&gt;NZZ&lt;/span&gt;" style="rounded=1;whiteSpace=wrap;html=1;shadow=0;fillColor=none;fontSize=18;fontColor=#000000;align=left;" parent="N6LhWgBp62tD6HMa2VJL-1" vertex="1">
          <mxGeometry x="1140" y="365.5" width="250" height="30" as="geometry" />
        </mxCell>
        <mxCell id="t3Ic-TG8_IldfPgCIFjd-245" value="Settings - NZZ" style="text;html=1;strokeColor=none;fillColor=none;align=center;verticalAlign=middle;whiteSpace=wrap;rounded=0;fontSize=19;" parent="N6LhWgBp62tD6HMa2VJL-1" vertex="1">
          <mxGeometry x="1121" y="107" width="210" height="20" as="geometry" />
        </mxCell>
        <mxCell id="t3Ic-TG8_IldfPgCIFjd-250" value="Feed Settings" style="text;html=1;strokeColor=none;fillColor=none;align=center;verticalAlign=middle;whiteSpace=wrap;rounded=0;fontSize=25;" parent="N6LhWgBp62tD6HMa2VJL-1" vertex="1">
          <mxGeometry x="259.44" y="127" width="269.75" height="20" as="geometry" />
        </mxCell>
        <mxCell id="t3Ic-TG8_IldfPgCIFjd-252" value="&lt;span style=&quot;color: rgb(0 , 0 , 0) ; font-family: &amp;#34;helvetica&amp;#34; ; font-size: 18px ; font-style: normal ; font-weight: 400 ; letter-spacing: normal ; text-align: left ; text-indent: 0px ; text-transform: none ; word-spacing: 0px ; background-color: rgb(248 , 249 , 250) ; display: inline ; float: none&quot;&gt;www.nzz.ch&lt;/span&gt;" style="rounded=1;whiteSpace=wrap;html=1;shadow=0;fillColor=none;fontSize=18;fontColor=#000000;align=left;" parent="N6LhWgBp62tD6HMa2VJL-1" vertex="1">
          <mxGeometry x="1140" y="410" width="250" height="30" as="geometry" />
        </mxCell>
        <mxCell id="t3Ic-TG8_IldfPgCIFjd-254" value="URL" style="text;html=1;strokeColor=none;fillColor=none;align=left;verticalAlign=middle;whiteSpace=wrap;rounded=0;shadow=0;fontSize=18;fontColor=#000000;" parent="N6LhWgBp62tD6HMa2VJL-1" vertex="1">
          <mxGeometry x="1063" y="411" width="77" height="20" as="geometry" />
        </mxCell>
        <mxCell id="t3Ic-TG8_IldfPgCIFjd-323" style="edgeStyle=orthogonalEdgeStyle;rounded=0;orthogonalLoop=1;jettySize=auto;html=1;fontSize=16;fontColor=#000000;strokeColor=#3333FF;" parent="N6LhWgBp62tD6HMa2VJL-1" source="t3Ic-TG8_IldfPgCIFjd-255" edge="1">
          <mxGeometry relative="1" as="geometry">
            <Array as="points">
              <mxPoint x="1370" y="20" />
              <mxPoint x="750" y="20" />
              <mxPoint x="750" y="555" />
            </Array>
            <mxPoint x="600.25" y="555" as="targetPoint" />
          </mxGeometry>
        </mxCell>
        <mxCell id="t3Ic-TG8_IldfPgCIFjd-391" value="Back/Save Changes" style="edgeLabel;html=1;align=center;verticalAlign=middle;resizable=0;points=[];fontSize=19;fontColor=#000000;" parent="t3Ic-TG8_IldfPgCIFjd-323" vertex="1" connectable="0">
          <mxGeometry x="-0.4576" y="-2" relative="1" as="geometry">
            <mxPoint x="1" as="offset" />
          </mxGeometry>
        </mxCell>
        <mxCell id="t3Ic-TG8_IldfPgCIFjd-255" value="Save" style="text;html=1;strokeColor=none;fillColor=none;align=center;verticalAlign=middle;whiteSpace=wrap;rounded=0;shadow=0;fontSize=13;fontColor=#007FFF;" parent="N6LhWgBp62tD6HMa2VJL-1" vertex="1">
          <mxGeometry x="1350" y="107" width="40" height="20" as="geometry" />
        </mxCell>
        <mxCell id="t3Ic-TG8_IldfPgCIFjd-273" value="" style="html=1;verticalLabelPosition=bottom;labelBackgroundColor=#ffffff;verticalAlign=top;shadow=0;dashed=0;strokeWidth=2;shape=mxgraph.ios7.misc.scroll_(horizontal);fillColor=#a0a0a0;fontSize=14;fontColor=#000000;align=left;" parent="N6LhWgBp62tD6HMa2VJL-1" vertex="1">
          <mxGeometry x="-446.5" y="624" width="145" height="6" as="geometry" />
        </mxCell>
        <mxCell id="t3Ic-TG8_IldfPgCIFjd-274" value="" style="rounded=0;whiteSpace=wrap;html=1;labelBackgroundColor=none;fillColor=none;fontSize=16;fontColor=#000000;align=left;" parent="N6LhWgBp62tD6HMa2VJL-1" vertex="1">
          <mxGeometry x="-549" y="-86" width="357" height="50" as="geometry" />
        </mxCell>
        <mxCell id="t3Ic-TG8_IldfPgCIFjd-282" value="Add Feed" style="text;html=1;strokeColor=none;fillColor=none;align=center;verticalAlign=middle;whiteSpace=wrap;rounded=0;fontSize=19;" parent="N6LhWgBp62tD6HMa2VJL-1" vertex="1">
          <mxGeometry x="-479" y="-71" width="210" height="20" as="geometry" />
        </mxCell>
        <mxCell id="t3Ic-TG8_IldfPgCIFjd-298" style="edgeStyle=orthogonalEdgeStyle;rounded=0;orthogonalLoop=1;jettySize=auto;html=1;fontSize=16;fontColor=#000000;" parent="N6LhWgBp62tD6HMa2VJL-1" source="t3Ic-TG8_IldfPgCIFjd-286" edge="1">
          <mxGeometry relative="1" as="geometry">
            <Array as="points">
              <mxPoint x="130" y="-61" />
              <mxPoint x="130" y="555" />
            </Array>
            <mxPoint x="209" y="555" as="targetPoint" />
          </mxGeometry>
        </mxCell>
        <mxCell id="t3Ic-TG8_IldfPgCIFjd-352" value="Save Feed/Changes" style="edgeLabel;html=1;align=center;verticalAlign=middle;resizable=0;points=[];fontSize=16;fontColor=#000000;" parent="t3Ic-TG8_IldfPgCIFjd-298" vertex="1" connectable="0">
          <mxGeometry x="-0.7479" y="-3" relative="1" as="geometry">
            <mxPoint x="-0.6" y="-3" as="offset" />
          </mxGeometry>
        </mxCell>
        <mxCell id="t3Ic-TG8_IldfPgCIFjd-286" value="Save" style="text;html=1;strokeColor=none;fillColor=none;align=center;verticalAlign=middle;whiteSpace=wrap;rounded=0;shadow=0;fontSize=13;fontColor=#007FFF;" parent="N6LhWgBp62tD6HMa2VJL-1" vertex="1">
          <mxGeometry x="-260" y="-71" width="40" height="20" as="geometry" />
        </mxCell>
        <mxCell id="t3Ic-TG8_IldfPgCIFjd-288" value="Name" style="text;html=1;strokeColor=none;fillColor=none;align=left;verticalAlign=middle;whiteSpace=wrap;rounded=0;shadow=0;fontSize=18;fontColor=#000000;" parent="N6LhWgBp62tD6HMa2VJL-1" vertex="1">
          <mxGeometry x="-534.5" y="-13" width="77" height="20" as="geometry" />
        </mxCell>
        <mxCell id="t3Ic-TG8_IldfPgCIFjd-289" value="&lt;span style=&quot;color: rgb(0 , 0 , 0) ; font-family: &amp;#34;helvetica&amp;#34; ; font-size: 18px ; font-style: normal ; font-weight: 400 ; letter-spacing: normal ; text-align: left ; text-indent: 0px ; text-transform: none ; word-spacing: 0px ; background-color: rgb(248 , 249 , 250) ; display: inline ; float: none&quot;&gt;Wirtschaft&lt;/span&gt;" style="rounded=1;whiteSpace=wrap;html=1;shadow=0;fillColor=none;fontSize=18;fontColor=#000000;align=left;" parent="N6LhWgBp62tD6HMa2VJL-1" vertex="1">
          <mxGeometry x="-440" y="-18" width="240" height="30" as="geometry" />
        </mxCell>
        <mxCell id="t3Ic-TG8_IldfPgCIFjd-290" value="&lt;span style=&quot;color: rgb(0 , 0 , 0) ; font-family: &amp;#34;helvetica&amp;#34; ; font-size: 18px ; font-style: normal ; font-weight: 400 ; letter-spacing: normal ; text-align: left ; text-indent: 0px ; text-transform: none ; word-spacing: 0px ; background-color: rgb(248 , 249 , 250) ; display: inline ; float: none&quot;&gt;www.nzz.ch/wirtschaft.rss&lt;/span&gt;" style="rounded=1;whiteSpace=wrap;html=1;shadow=0;fillColor=none;fontSize=18;fontColor=#000000;align=left;" parent="N6LhWgBp62tD6HMa2VJL-1" vertex="1">
          <mxGeometry x="-440" y="26.5" width="240" height="30" as="geometry" />
        </mxCell>
        <mxCell id="t3Ic-TG8_IldfPgCIFjd-291" value="URL" style="text;html=1;strokeColor=none;fillColor=none;align=left;verticalAlign=middle;whiteSpace=wrap;rounded=0;shadow=0;fontSize=18;fontColor=#000000;" parent="N6LhWgBp62tD6HMa2VJL-1" vertex="1">
          <mxGeometry x="-534.5" y="31.5" width="77" height="20" as="geometry" />
        </mxCell>
        <mxCell id="t3Ic-TG8_IldfPgCIFjd-304" value="Show in Main Feed" style="text;html=1;strokeColor=none;fillColor=none;align=left;verticalAlign=middle;whiteSpace=wrap;rounded=0;shadow=0;fontSize=18;fontColor=#000000;" parent="N6LhWgBp62tD6HMa2VJL-1" vertex="1">
          <mxGeometry x="-530.63" y="80.75" width="264.25" height="20" as="geometry" />
        </mxCell>
        <mxCell id="t3Ic-TG8_IldfPgCIFjd-306" value="Use Filters" style="text;html=1;strokeColor=none;fillColor=none;align=left;verticalAlign=middle;whiteSpace=wrap;rounded=0;shadow=0;fontSize=18;fontColor=#000000;" parent="N6LhWgBp62tD6HMa2VJL-1" vertex="1">
          <mxGeometry x="-530.63" y="130.75" width="264.25" height="20" as="geometry" />
        </mxCell>
        <mxCell id="t3Ic-TG8_IldfPgCIFjd-313" value="Filters selected: 1" style="text;html=1;strokeColor=none;fillColor=none;align=left;verticalAlign=middle;whiteSpace=wrap;rounded=0;shadow=0;fontSize=18;fontColor=#000000;" parent="N6LhWgBp62tD6HMa2VJL-1" vertex="1">
          <mxGeometry x="-530.63" y="173.25" width="174.25" height="20" as="geometry" />
        </mxCell>
        <mxCell id="t3Ic-TG8_IldfPgCIFjd-315" style="edgeStyle=orthogonalEdgeStyle;rounded=0;orthogonalLoop=1;jettySize=auto;html=1;fontSize=16;fontColor=#000000;" parent="N6LhWgBp62tD6HMa2VJL-1" source="t3Ic-TG8_IldfPgCIFjd-314" edge="1">
          <mxGeometry relative="1" as="geometry">
            <Array as="points">
              <mxPoint y="183" />
              <mxPoint y="667" />
            </Array>
            <mxPoint x="-768.75" y="667.1428571428569" as="targetPoint" />
          </mxGeometry>
        </mxCell>
        <mxCell id="t3Ic-TG8_IldfPgCIFjd-354" value="Manage Filters" style="edgeLabel;html=1;align=center;verticalAlign=middle;resizable=0;points=[];fontSize=16;fontColor=#000000;" parent="t3Ic-TG8_IldfPgCIFjd-315" vertex="1" connectable="0">
          <mxGeometry x="-0.8311" y="-1" relative="1" as="geometry">
            <mxPoint x="-3.18" y="-1.52" as="offset" />
          </mxGeometry>
        </mxCell>
        <mxCell id="t3Ic-TG8_IldfPgCIFjd-314" value="Manage" style="text;html=1;strokeColor=none;fillColor=none;align=center;verticalAlign=middle;whiteSpace=wrap;rounded=0;shadow=0;fontSize=13;fontColor=#007FFF;" parent="N6LhWgBp62tD6HMa2VJL-1" vertex="1">
          <mxGeometry x="-256.38" y="173.25" width="44.5" height="20" as="geometry" />
        </mxCell>
        <mxCell id="t3Ic-TG8_IldfPgCIFjd-319" value="Add/Edit Feed" style="text;html=1;strokeColor=none;fillColor=none;align=center;verticalAlign=middle;whiteSpace=wrap;rounded=0;fontSize=25;" parent="N6LhWgBp62tD6HMa2VJL-1" vertex="1">
          <mxGeometry x="-530.63" y="-158" width="312.5" height="20" as="geometry" />
        </mxCell>
        <mxCell id="t3Ic-TG8_IldfPgCIFjd-321" style="edgeStyle=orthogonalEdgeStyle;rounded=0;orthogonalLoop=1;jettySize=auto;html=1;fontSize=16;fontColor=#000000;" parent="N6LhWgBp62tD6HMa2VJL-1" source="t3Ic-TG8_IldfPgCIFjd-320" edge="1">
          <mxGeometry relative="1" as="geometry">
            <mxPoint x="209" y="555" as="targetPoint" />
            <Array as="points">
              <mxPoint x="-515" y="-220" />
              <mxPoint x="130" y="-220" />
              <mxPoint x="130" y="555" />
            </Array>
          </mxGeometry>
        </mxCell>
        <mxCell id="t3Ic-TG8_IldfPgCIFjd-351" value="Back/Discard Changes" style="edgeLabel;html=1;align=center;verticalAlign=middle;resizable=0;points=[];fontSize=16;fontColor=#000000;" parent="t3Ic-TG8_IldfPgCIFjd-321" vertex="1" connectable="0">
          <mxGeometry x="-0.5611" relative="1" as="geometry">
            <mxPoint x="-1" as="offset" />
          </mxGeometry>
        </mxCell>
        <mxCell id="t3Ic-TG8_IldfPgCIFjd-320" value="" style="html=1;verticalLabelPosition=bottom;labelBackgroundColor=#ffffff;verticalAlign=top;shadow=0;dashed=0;strokeWidth=2;shape=mxgraph.ios7.misc.left;strokeColor=#0080f0;rounded=0;fillColor=none;fontSize=8;fontColor=#CCCCCC;align=left;" parent="N6LhWgBp62tD6HMa2VJL-1" vertex="1">
          <mxGeometry x="-520" y="-71" width="10" height="20" as="geometry" />
        </mxCell>
        <mxCell id="t3Ic-TG8_IldfPgCIFjd-324" value="" style="html=1;verticalLabelPosition=bottom;labelBackgroundColor=#ffffff;verticalAlign=top;shadow=0;dashed=0;strokeWidth=1;shape=mxgraph.ios7ui.onOffButton;buttonState=off;strokeColor=#38D145;strokeColor2=#aaaaaa;fillColor=#38D145;fillColor2=#ffffff;rounded=0;fontSize=18;fontColor=#000000;align=left;" parent="N6LhWgBp62tD6HMa2VJL-1" vertex="1">
          <mxGeometry x="-250.88" y="133.25" width="43.5" height="15" as="geometry" />
        </mxCell>
        <mxCell id="t3Ic-TG8_IldfPgCIFjd-327" value="" style="html=1;verticalLabelPosition=bottom;labelBackgroundColor=#ffffff;verticalAlign=top;shadow=0;dashed=0;strokeWidth=2;shape=mxgraph.ios7.misc.scroll_(horizontal);fillColor=#a0a0a0;fontSize=14;fontColor=#000000;align=left;" parent="N6LhWgBp62tD6HMa2VJL-1" vertex="1">
          <mxGeometry x="-336.5" y="-337" width="145" height="6" as="geometry" />
        </mxCell>
        <mxCell id="t3Ic-TG8_IldfPgCIFjd-339" style="edgeStyle=orthogonalEdgeStyle;rounded=0;orthogonalLoop=1;jettySize=auto;html=1;startArrow=none;startFill=0;fontSize=16;fontColor=#000000;" parent="N6LhWgBp62tD6HMa2VJL-1" source="t3Ic-TG8_IldfPgCIFjd-330" edge="1">
          <mxGeometry relative="1" as="geometry">
            <Array as="points">
              <mxPoint x="-418" y="-1240" />
              <mxPoint x="70" y="-1240" />
              <mxPoint x="70" y="-615" />
            </Array>
            <mxPoint x="200" y="-615" as="targetPoint" />
          </mxGeometry>
        </mxCell>
        <mxCell id="t3Ic-TG8_IldfPgCIFjd-350" value="Back" style="edgeLabel;html=1;align=center;verticalAlign=middle;resizable=0;points=[];fontSize=16;fontColor=#000000;" parent="t3Ic-TG8_IldfPgCIFjd-339" vertex="1" connectable="0">
          <mxGeometry x="-0.1205" y="-2" relative="1" as="geometry">
            <mxPoint x="-331.14" y="-2" as="offset" />
          </mxGeometry>
        </mxCell>
        <mxCell id="t3Ic-TG8_IldfPgCIFjd-330" value="" style="html=1;verticalLabelPosition=bottom;labelBackgroundColor=#ffffff;verticalAlign=top;shadow=0;dashed=0;strokeWidth=2;shape=mxgraph.ios7.misc.left;strokeColor=#0080f0;rounded=0;fillColor=none;fontSize=8;fontColor=#CCCCCC;align=left;" parent="N6LhWgBp62tD6HMa2VJL-1" vertex="1">
          <mxGeometry x="-423" y="-1032" width="10" height="20" as="geometry" />
        </mxCell>
        <mxCell id="rbUkQHInW9VN2qn4slog-6" style="edgeStyle=orthogonalEdgeStyle;rounded=0;orthogonalLoop=1;jettySize=auto;html=1;" parent="N6LhWgBp62tD6HMa2VJL-1" source="t3Ic-TG8_IldfPgCIFjd-332" target="rbUkQHInW9VN2qn4slog-14" edge="1">
          <mxGeometry relative="1" as="geometry">
            <Array as="points">
              <mxPoint x="-120" y="-1160" />
              <mxPoint x="-844" y="-1160" />
            </Array>
            <mxPoint x="-844" y="-1110" as="targetPoint" />
          </mxGeometry>
        </mxCell>
        <mxCell id="rbUkQHInW9VN2qn4slog-7" value="Share Article" style="edgeLabel;html=1;align=center;verticalAlign=middle;resizable=0;points=[];fontSize=16;" parent="rbUkQHInW9VN2qn4slog-6" vertex="1" connectable="0">
          <mxGeometry x="-0.4798" y="-1" relative="1" as="geometry">
            <mxPoint x="-8.61" y="-0.5" as="offset" />
          </mxGeometry>
        </mxCell>
        <mxCell id="t3Ic-TG8_IldfPgCIFjd-333" value="&lt;font style=&quot;font-size: 18px&quot;&gt;Saved&lt;/font&gt;" style="rounded=0;whiteSpace=wrap;html=1;align=left;spacingLeft=45;" parent="N6LhWgBp62tD6HMa2VJL-1" vertex="1">
          <mxGeometry x="984.5" y="-897" width="262.5" height="40" as="geometry" />
        </mxCell>
        <mxCell id="t3Ic-TG8_IldfPgCIFjd-336" value="" style="html=1;verticalLabelPosition=bottom;align=center;labelBackgroundColor=#ffffff;verticalAlign=top;strokeWidth=2;strokeColor=#0080F0;shadow=0;dashed=0;shape=mxgraph.ios7.icons.folder;fillColor=none;fontSize=16;fontColor=#000000;" parent="N6LhWgBp62tD6HMa2VJL-1" vertex="1">
          <mxGeometry x="995" y="-886" width="30" height="19.5" as="geometry" />
        </mxCell>
        <mxCell id="t3Ic-TG8_IldfPgCIFjd-337" value="&lt;h1&gt;Title of the Article in all its glory&lt;/h1&gt;" style="text;html=1;strokeColor=none;fillColor=none;spacing=5;spacingTop=-20;whiteSpace=wrap;overflow=hidden;rounded=0;labelBackgroundColor=none;fontSize=16;fontColor=#000000;align=left;spacingLeft=10;spacingRight=10;" parent="N6LhWgBp62tD6HMa2VJL-1" vertex="1">
          <mxGeometry x="-444" y="-995" width="354" height="95" as="geometry" />
        </mxCell>
        <mxCell id="t3Ic-TG8_IldfPgCIFjd-343" value="&lt;span style=&quot;&quot;&gt;Lorem ipsum dolor sit amet, consetetur sadipscing elitr, sed diam nonumy eirmod tempor invidunt ut labore et dolore magna aliquyam erat, sed diam voluptua. At vero eos et accusam et justo duo dolores et ea rebum. Stet clita kasd gubergren, no sea takimata sanctus est Lorem ipsum dolor sit amet. Lorem ipsum dolor sit amet, consetetur sadipscing elitr, sed diam nonumy eirmod tempor invidunt ut labore et dolore magna aliquyam erat, sed diam voluptua. At vero eos et accusam et justo duo dolores et ea rebum. Stet clita kasd gubergren, no sea takimata sanctus est Lorem ipsum dolor sit amet.&lt;/span&gt;" style="text;html=1;strokeColor=none;fillColor=none;align=left;verticalAlign=top;whiteSpace=wrap;rounded=0;labelBackgroundColor=none;fontSize=16;fontColor=#000000;spacingLeft=10;spacingRight=10;" parent="N6LhWgBp62tD6HMa2VJL-1" vertex="1">
          <mxGeometry x="-444" y="-710" width="354" height="360" as="geometry" />
        </mxCell>
        <mxCell id="rbUkQHInW9VN2qn4slog-13" style="edgeStyle=orthogonalEdgeStyle;rounded=0;orthogonalLoop=1;jettySize=auto;html=1;fontSize=16;" parent="N6LhWgBp62tD6HMa2VJL-1" source="t3Ic-TG8_IldfPgCIFjd-348" target="rbUkQHInW9VN2qn4slog-5" edge="1">
          <mxGeometry relative="1" as="geometry" />
        </mxCell>
        <mxCell id="t3Ic-TG8_IldfPgCIFjd-348" value="Text font size changing stepper" style="text;html=1;strokeColor=none;fillColor=none;align=left;verticalAlign=middle;whiteSpace=wrap;rounded=0;labelBackgroundColor=none;fontSize=16;fontColor=#000000;" parent="N6LhWgBp62tD6HMa2VJL-1" vertex="1">
          <mxGeometry x="-49" y="-1340" width="249" height="80" as="geometry" />
        </mxCell>
        <mxCell id="t3Ic-TG8_IldfPgCIFjd-358" value="" style="rounded=0;whiteSpace=wrap;html=1;fillColor=none;fontSize=19;align=left;" parent="N6LhWgBp62tD6HMa2VJL-1" vertex="1">
          <mxGeometry x="220" y="358.5" width="359.71" height="49" as="geometry" />
        </mxCell>
        <mxCell id="t3Ic-TG8_IldfPgCIFjd-359" value="NZZ - Kultur" style="text;html=1;strokeColor=none;fillColor=none;align=center;verticalAlign=middle;whiteSpace=wrap;rounded=0;fontSize=19;" parent="N6LhWgBp62tD6HMa2VJL-1" vertex="1">
          <mxGeometry x="292.39000000000004" y="372.5" width="225" height="20" as="geometry" />
        </mxCell>
        <mxCell id="t3Ic-TG8_IldfPgCIFjd-360" value="" style="html=1;verticalLabelPosition=bottom;labelBackgroundColor=#ffffff;verticalAlign=top;shadow=0;dashed=0;strokeWidth=2;shape=mxgraph.ios7.misc.right;strokeColor=#0080f0;fillColor=none;" parent="N6LhWgBp62tD6HMa2VJL-1" vertex="1">
          <mxGeometry x="546.83" y="370" width="16" height="26" as="geometry" />
        </mxCell>
        <mxCell id="t3Ic-TG8_IldfPgCIFjd-367" value="" style="rounded=0;whiteSpace=wrap;html=1;fillColor=none;fontSize=19;align=left;" parent="N6LhWgBp62tD6HMa2VJL-1" vertex="1">
          <mxGeometry x="220" y="407.5" width="358.93" height="49" as="geometry" />
        </mxCell>
        <mxCell id="t3Ic-TG8_IldfPgCIFjd-368" value="" style="rounded=0;whiteSpace=wrap;html=1;fillColor=none;fontSize=19;align=left;" parent="N6LhWgBp62tD6HMa2VJL-1" vertex="1">
          <mxGeometry x="220" y="456.5" width="359.14" height="49" as="geometry" />
        </mxCell>
        <mxCell id="t3Ic-TG8_IldfPgCIFjd-369" value="SPON - Politik" style="text;html=1;strokeColor=none;fillColor=none;align=center;verticalAlign=middle;whiteSpace=wrap;rounded=0;fontSize=19;" parent="N6LhWgBp62tD6HMa2VJL-1" vertex="1">
          <mxGeometry x="291.82000000000005" y="470.5" width="225" height="20" as="geometry" />
        </mxCell>
        <mxCell id="t3Ic-TG8_IldfPgCIFjd-370" value="" style="html=1;verticalLabelPosition=bottom;labelBackgroundColor=#ffffff;verticalAlign=top;shadow=0;dashed=0;strokeWidth=2;shape=mxgraph.ios7.misc.right;strokeColor=#0080f0;fillColor=none;" parent="N6LhWgBp62tD6HMa2VJL-1" vertex="1">
          <mxGeometry x="546.26" y="468" width="16" height="26" as="geometry" />
        </mxCell>
        <mxCell id="t3Ic-TG8_IldfPgCIFjd-371" value="Spiegel Online" style="text;html=1;strokeColor=none;fillColor=none;align=center;verticalAlign=middle;whiteSpace=wrap;rounded=0;labelBackgroundColor=none;fontSize=16;fontColor=#000000;" parent="N6LhWgBp62tD6HMa2VJL-1" vertex="1">
          <mxGeometry x="302.07" y="423" width="184.5" height="20" as="geometry" />
        </mxCell>
        <mxCell id="t3Ic-TG8_IldfPgCIFjd-372" value="" style="rounded=1;whiteSpace=wrap;html=1;labelBackgroundColor=none;fillColor=none;fontSize=16;fontColor=#000000;align=left;" parent="N6LhWgBp62tD6HMa2VJL-1" vertex="1">
          <mxGeometry x="237.13" y="417" width="30" height="30" as="geometry" />
        </mxCell>
        <mxCell id="t3Ic-TG8_IldfPgCIFjd-373" value="" style="html=1;verticalLabelPosition=bottom;labelBackgroundColor=#ffffff;verticalAlign=top;shadow=0;dashed=0;strokeWidth=2;shape=mxgraph.ios7.misc.right;strokeColor=#0080f0;fillColor=none;" parent="N6LhWgBp62tD6HMa2VJL-1" vertex="1">
          <mxGeometry x="546.4399999999999" y="419" width="16" height="26" as="geometry" />
        </mxCell>
        <mxCell id="t3Ic-TG8_IldfPgCIFjd-374" value="" style="rounded=0;whiteSpace=wrap;html=1;fillColor=none;fontSize=19;align=left;" parent="N6LhWgBp62tD6HMa2VJL-1" vertex="1">
          <mxGeometry x="220" y="505.5" width="359.32" height="49" as="geometry" />
        </mxCell>
        <mxCell id="t3Ic-TG8_IldfPgCIFjd-375" value="SPON - Kultur" style="text;html=1;strokeColor=none;fillColor=none;align=center;verticalAlign=middle;whiteSpace=wrap;rounded=0;fontSize=19;" parent="N6LhWgBp62tD6HMa2VJL-1" vertex="1">
          <mxGeometry x="292.00000000000006" y="519.5" width="225" height="20" as="geometry" />
        </mxCell>
        <mxCell id="t3Ic-TG8_IldfPgCIFjd-376" value="" style="html=1;verticalLabelPosition=bottom;labelBackgroundColor=#ffffff;verticalAlign=top;shadow=0;dashed=0;strokeWidth=2;shape=mxgraph.ios7.misc.right;strokeColor=#0080f0;fillColor=none;" parent="N6LhWgBp62tD6HMa2VJL-1" vertex="1">
          <mxGeometry x="546.4399999999999" y="517" width="16" height="26" as="geometry" />
        </mxCell>
        <mxCell id="t3Ic-TG8_IldfPgCIFjd-377" value="" style="rounded=0;whiteSpace=wrap;html=1;fillColor=none;fontSize=19;align=left;" parent="N6LhWgBp62tD6HMa2VJL-1" vertex="1">
          <mxGeometry x="220" y="554.5" width="358.54" height="49" as="geometry" />
        </mxCell>
        <mxCell id="t3Ic-TG8_IldfPgCIFjd-378" value="" style="rounded=0;whiteSpace=wrap;html=1;fillColor=none;fontSize=19;align=left;" parent="N6LhWgBp62tD6HMa2VJL-1" vertex="1">
          <mxGeometry x="220" y="603.5" width="358.75" height="49" as="geometry" />
        </mxCell>
        <mxCell id="t3Ic-TG8_IldfPgCIFjd-379" value="&lt;span style=&quot;font-size: 18px;&quot;&gt;Gamestar&lt;/span&gt;&amp;nbsp;- News" style="text;html=1;strokeColor=none;fillColor=none;align=center;verticalAlign=middle;whiteSpace=wrap;rounded=0;fontSize=18;" parent="N6LhWgBp62tD6HMa2VJL-1" vertex="1">
          <mxGeometry x="291.43000000000006" y="617.5" width="225" height="20" as="geometry" />
        </mxCell>
        <mxCell id="t3Ic-TG8_IldfPgCIFjd-380" value="" style="html=1;verticalLabelPosition=bottom;labelBackgroundColor=#ffffff;verticalAlign=top;shadow=0;dashed=0;strokeWidth=2;shape=mxgraph.ios7.misc.right;strokeColor=#0080f0;fillColor=none;" parent="N6LhWgBp62tD6HMa2VJL-1" vertex="1">
          <mxGeometry x="545.87" y="615" width="16" height="26" as="geometry" />
        </mxCell>
        <mxCell id="t3Ic-TG8_IldfPgCIFjd-381" value="Gamestar" style="text;html=1;strokeColor=none;fillColor=none;align=center;verticalAlign=middle;whiteSpace=wrap;rounded=0;labelBackgroundColor=none;fontSize=16;fontColor=#000000;" parent="N6LhWgBp62tD6HMa2VJL-1" vertex="1">
          <mxGeometry x="301.68" y="570" width="184.5" height="20" as="geometry" />
        </mxCell>
        <mxCell id="t3Ic-TG8_IldfPgCIFjd-382" value="" style="rounded=1;whiteSpace=wrap;html=1;labelBackgroundColor=none;fillColor=none;fontSize=16;fontColor=#000000;align=left;" parent="N6LhWgBp62tD6HMa2VJL-1" vertex="1">
          <mxGeometry x="237.13000000000002" y="564" width="30" height="30" as="geometry" />
        </mxCell>
        <mxCell id="t3Ic-TG8_IldfPgCIFjd-383" value="" style="html=1;verticalLabelPosition=bottom;labelBackgroundColor=#ffffff;verticalAlign=top;shadow=0;dashed=0;strokeWidth=2;shape=mxgraph.ios7.misc.right;strokeColor=#0080f0;fillColor=none;" parent="N6LhWgBp62tD6HMa2VJL-1" vertex="1">
          <mxGeometry x="546.05" y="566" width="16" height="26" as="geometry" />
        </mxCell>
        <mxCell id="t3Ic-TG8_IldfPgCIFjd-395" value="" style="html=1;verticalLabelPosition=bottom;labelBackgroundColor=#ffffff;verticalAlign=top;shadow=0;dashed=0;strokeWidth=2;shape=mxgraph.ios7.misc.scroll_(horizontal);fillColor=#a0a0a0;fontSize=14;fontColor=#000000;align=left;" parent="N6LhWgBp62tD6HMa2VJL-1" vertex="1">
          <mxGeometry x="1863.5" y="-447.1" width="145" height="6" as="geometry" />
        </mxCell>
        <mxCell id="t3Ic-TG8_IldfPgCIFjd-396" value="" style="rounded=0;whiteSpace=wrap;html=1;labelBackgroundColor=none;fontSize=19;fontColor=#000000;align=left;fillColor=none;" parent="N6LhWgBp62tD6HMa2VJL-1" vertex="1">
          <mxGeometry x="1761" y="-1157.1" width="357" height="50" as="geometry" />
        </mxCell>
        <mxCell id="t3Ic-TG8_IldfPgCIFjd-401" style="edgeStyle=orthogonalEdgeStyle;rounded=0;orthogonalLoop=1;jettySize=auto;html=1;startArrow=none;startFill=0;fontSize=19;fontColor=#000000;" parent="N6LhWgBp62tD6HMa2VJL-1" source="t3Ic-TG8_IldfPgCIFjd-398" edge="1">
          <mxGeometry relative="1" as="geometry">
            <Array as="points">
              <mxPoint x="1480" y="-1132" />
              <mxPoint x="1480" y="-880" />
            </Array>
            <mxPoint x="1355.75" y="-880" as="targetPoint" />
          </mxGeometry>
        </mxCell>
        <mxCell id="t3Ic-TG8_IldfPgCIFjd-402" value="Back/Save Changes" style="edgeLabel;html=1;align=center;verticalAlign=middle;resizable=0;points=[];fontSize=19;fontColor=#000000;" parent="t3Ic-TG8_IldfPgCIFjd-401" vertex="1" connectable="0">
          <mxGeometry x="-0.6023" y="-2" relative="1" as="geometry">
            <mxPoint x="-15" y="2.07" as="offset" />
          </mxGeometry>
        </mxCell>
        <mxCell id="t3Ic-TG8_IldfPgCIFjd-398" value="" style="html=1;verticalLabelPosition=bottom;labelBackgroundColor=#ffffff;verticalAlign=top;shadow=0;dashed=0;strokeWidth=2;shape=mxgraph.ios7.misc.left;strokeColor=#0080f0;fillColor=none;fontSize=25;align=left;" parent="N6LhWgBp62tD6HMa2VJL-1" vertex="1">
          <mxGeometry x="1780" y="-1145.1" width="17" height="26" as="geometry" />
        </mxCell>
        <mxCell id="t3Ic-TG8_IldfPgCIFjd-399" value="App Settings" style="text;html=1;strokeColor=none;fillColor=none;align=center;verticalAlign=middle;whiteSpace=wrap;rounded=0;fontSize=19;" parent="N6LhWgBp62tD6HMa2VJL-1" vertex="1">
          <mxGeometry x="1840" y="-1142.1" width="210" height="20" as="geometry" />
        </mxCell>
        <mxCell id="t3Ic-TG8_IldfPgCIFjd-404" style="edgeStyle=orthogonalEdgeStyle;rounded=0;orthogonalLoop=1;jettySize=auto;html=1;startArrow=none;startFill=0;fontSize=19;fontColor=#000000;" parent="N6LhWgBp62tD6HMa2VJL-1" source="t3Ic-TG8_IldfPgCIFjd-66" edge="1">
          <mxGeometry relative="1" as="geometry">
            <mxPoint x="1936" y="-1200" as="targetPoint" />
            <Array as="points">
              <mxPoint x="1302" y="-1290" />
              <mxPoint x="1936" y="-1290" />
            </Array>
          </mxGeometry>
        </mxCell>
        <mxCell id="t3Ic-TG8_IldfPgCIFjd-405" value="Edit App Settings" style="edgeLabel;html=1;align=center;verticalAlign=middle;resizable=0;points=[];fontSize=19;fontColor=#000000;" parent="t3Ic-TG8_IldfPgCIFjd-404" vertex="1" connectable="0">
          <mxGeometry x="-0.6907" y="-1" relative="1" as="geometry">
            <mxPoint y="-1" as="offset" />
          </mxGeometry>
        </mxCell>
        <mxCell id="t3Ic-TG8_IldfPgCIFjd-66" value="" style="html=1;verticalLabelPosition=bottom;align=center;labelBackgroundColor=#ffffff;verticalAlign=top;strokeWidth=2;strokeColor=#0080F0;shadow=0;dashed=0;shape=mxgraph.ios7.icons.settings;" parent="N6LhWgBp62tD6HMa2VJL-1" vertex="1">
          <mxGeometry x="1287.12" y="-956" width="30" height="30" as="geometry" />
        </mxCell>
        <mxCell id="fXl1buOdOmaUu1pD_32y-5" value="" style="html=1;verticalLabelPosition=bottom;labelBackgroundColor=#ffffff;verticalAlign=top;shadow=0;dashed=0;strokeWidth=2;shape=mxgraph.ios7.misc.scroll_(horizontal);fillColor=#a0a0a0;fontSize=14;fontColor=#000000;align=left;" parent="N6LhWgBp62tD6HMa2VJL-1" vertex="1">
          <mxGeometry x="2483.5" y="-450" width="145" height="6" as="geometry" />
        </mxCell>
        <mxCell id="fXl1buOdOmaUu1pD_32y-6" value="" style="rounded=0;whiteSpace=wrap;html=1;fillColor=none;" parent="N6LhWgBp62tD6HMa2VJL-1" vertex="1">
          <mxGeometry x="2381" y="-1160" width="356" height="50" as="geometry" />
        </mxCell>
        <mxCell id="fXl1buOdOmaUu1pD_32y-14" style="edgeStyle=orthogonalEdgeStyle;rounded=0;orthogonalLoop=1;jettySize=auto;html=1;" parent="N6LhWgBp62tD6HMa2VJL-1" source="fXl1buOdOmaUu1pD_32y-8" edge="1">
          <mxGeometry relative="1" as="geometry">
            <Array as="points">
              <mxPoint x="2280" y="-1135" />
              <mxPoint x="2280" y="-1135" />
            </Array>
            <mxPoint x="2131.25" y="-1134.9999999999998" as="targetPoint" />
          </mxGeometry>
        </mxCell>
        <mxCell id="fXl1buOdOmaUu1pD_32y-15" value="Back" style="edgeLabel;html=1;align=center;verticalAlign=middle;resizable=0;points=[];fontSize=19;" parent="fXl1buOdOmaUu1pD_32y-14" vertex="1" connectable="0">
          <mxGeometry x="0.6232" y="-76" relative="1" as="geometry">
            <mxPoint x="75" y="75" as="offset" />
          </mxGeometry>
        </mxCell>
        <mxCell id="fXl1buOdOmaUu1pD_32y-8" value="" style="html=1;verticalLabelPosition=bottom;labelBackgroundColor=#ffffff;verticalAlign=top;shadow=0;dashed=0;strokeWidth=2;shape=mxgraph.ios7.misc.left;strokeColor=#0080f0;fillColor=none;fontSize=25;align=left;" parent="N6LhWgBp62tD6HMa2VJL-1" vertex="1">
          <mxGeometry x="2390" y="-1148" width="17" height="26" as="geometry" />
        </mxCell>
        <mxCell id="fXl1buOdOmaUu1pD_32y-9" value="Collection Settings" style="text;html=1;strokeColor=none;fillColor=none;align=center;verticalAlign=middle;whiteSpace=wrap;rounded=0;fontSize=19;" parent="N6LhWgBp62tD6HMa2VJL-1" vertex="1">
          <mxGeometry x="2460" y="-1145" width="210" height="20" as="geometry" />
        </mxCell>
        <mxCell id="fXl1buOdOmaUu1pD_32y-13" style="edgeStyle=orthogonalEdgeStyle;rounded=0;orthogonalLoop=1;jettySize=auto;html=1;" parent="N6LhWgBp62tD6HMa2VJL-1" source="fXl1buOdOmaUu1pD_32y-11" edge="1">
          <mxGeometry relative="1" as="geometry">
            <Array as="points">
              <mxPoint x="2300" y="-1047" />
              <mxPoint x="2300" y="-1047" />
            </Array>
            <mxPoint x="2360" y="-1047" as="targetPoint" />
          </mxGeometry>
        </mxCell>
        <mxCell id="fXl1buOdOmaUu1pD_32y-16" value="Collection Settings" style="edgeLabel;html=1;align=center;verticalAlign=middle;resizable=0;points=[];fontSize=19;" parent="fXl1buOdOmaUu1pD_32y-13" vertex="1" connectable="0">
          <mxGeometry x="0.52" y="-67" relative="1" as="geometry">
            <mxPoint x="-67" y="-68" as="offset" />
          </mxGeometry>
        </mxCell>
        <mxCell id="fXl1buOdOmaUu1pD_32y-17" value="" style="html=1;verticalLabelPosition=bottom;labelBackgroundColor=#ffffff;verticalAlign=top;shadow=0;dashed=0;strokeWidth=2;shape=mxgraph.ios7.misc.flagged;strokeColor=#0080f0;fillColor=none;fontSize=25;fontColor=#000000;align=left;" parent="N6LhWgBp62tD6HMa2VJL-1" vertex="1">
          <mxGeometry x="2698.12" y="-1145.5" width="21" height="21" as="geometry" />
        </mxCell>
        <mxCell id="fXl1buOdOmaUu1pD_32y-20" value="" style="rounded=0;whiteSpace=wrap;html=1;fontSize=19;align=left;fillColor=none;" parent="N6LhWgBp62tD6HMa2VJL-1" vertex="1">
          <mxGeometry x="2381" y="-1110" width="356" height="49" as="geometry" />
        </mxCell>
        <mxCell id="fXl1buOdOmaUu1pD_32y-21" value="Economy" style="text;html=1;strokeColor=none;fillColor=none;align=center;verticalAlign=middle;whiteSpace=wrap;rounded=0;fontSize=18;" parent="N6LhWgBp62tD6HMa2VJL-1" vertex="1">
          <mxGeometry x="2443.6800000000003" y="-1096" width="225" height="20" as="geometry" />
        </mxCell>
        <mxCell id="fXl1buOdOmaUu1pD_32y-22" value="" style="html=1;verticalLabelPosition=bottom;labelBackgroundColor=#ffffff;verticalAlign=top;shadow=0;dashed=0;strokeWidth=2;shape=mxgraph.ios7.misc.right;strokeColor=#0080f0;fillColor=none;" parent="N6LhWgBp62tD6HMa2VJL-1" vertex="1">
          <mxGeometry x="2700.62" y="-1099" width="16" height="26" as="geometry" />
        </mxCell>
        <mxCell id="fXl1buOdOmaUu1pD_32y-23" value="" style="rounded=0;whiteSpace=wrap;html=1;fontSize=19;align=left;fillColor=none;" parent="N6LhWgBp62tD6HMa2VJL-1" vertex="1">
          <mxGeometry x="2381" y="-1061" width="356" height="49" as="geometry" />
        </mxCell>
        <mxCell id="fXl1buOdOmaUu1pD_32y-24" value="Culture" style="text;html=1;strokeColor=none;fillColor=none;align=center;verticalAlign=middle;whiteSpace=wrap;rounded=0;fontSize=18;" parent="N6LhWgBp62tD6HMa2VJL-1" vertex="1">
          <mxGeometry x="2443.6800000000003" y="-1047" width="225" height="20" as="geometry" />
        </mxCell>
        <mxCell id="fXl1buOdOmaUu1pD_32y-25" value="" style="html=1;verticalLabelPosition=bottom;labelBackgroundColor=#ffffff;verticalAlign=top;shadow=0;dashed=0;strokeWidth=2;shape=mxgraph.ios7.misc.right;strokeColor=#0080f0;fillColor=none;" parent="N6LhWgBp62tD6HMa2VJL-1" vertex="1">
          <mxGeometry x="2700.62" y="-1049.5" width="16" height="26" as="geometry" />
        </mxCell>
        <mxCell id="fXl1buOdOmaUu1pD_32y-26" value="" style="rounded=0;whiteSpace=wrap;html=1;fontSize=19;align=left;fillColor=none;" parent="N6LhWgBp62tD6HMa2VJL-1" vertex="1">
          <mxGeometry x="2380.62" y="-1012" width="357.38" height="49" as="geometry" />
        </mxCell>
        <mxCell id="fXl1buOdOmaUu1pD_32y-27" value="Funny" style="text;html=1;strokeColor=none;fillColor=none;align=center;verticalAlign=middle;whiteSpace=wrap;rounded=0;fontSize=18;" parent="N6LhWgBp62tD6HMa2VJL-1" vertex="1">
          <mxGeometry x="2443.3" y="-998" width="225" height="20" as="geometry" />
        </mxCell>
        <mxCell id="fXl1buOdOmaUu1pD_32y-36" style="edgeStyle=orthogonalEdgeStyle;rounded=0;orthogonalLoop=1;jettySize=auto;html=1;fontSize=19;" parent="N6LhWgBp62tD6HMa2VJL-1" source="fXl1buOdOmaUu1pD_32y-28" edge="1">
          <mxGeometry relative="1" as="geometry">
            <Array as="points">
              <mxPoint x="2850" y="-987" />
              <mxPoint x="2850" y="-987" />
            </Array>
            <mxPoint x="2900" y="-987.4857142857143" as="targetPoint" />
          </mxGeometry>
        </mxCell>
        <mxCell id="fXl1buOdOmaUu1pD_32y-50" value="Edit Collection" style="edgeLabel;html=1;align=center;verticalAlign=middle;resizable=0;points=[];fontSize=19;" parent="fXl1buOdOmaUu1pD_32y-36" vertex="1" connectable="0">
          <mxGeometry x="-0.1029" y="1" relative="1" as="geometry">
            <mxPoint x="22.81" y="0.52" as="offset" />
          </mxGeometry>
        </mxCell>
        <mxCell id="fXl1buOdOmaUu1pD_32y-28" value="" style="html=1;verticalLabelPosition=bottom;labelBackgroundColor=#ffffff;verticalAlign=top;shadow=0;dashed=0;strokeWidth=2;shape=mxgraph.ios7.misc.right;strokeColor=#0080f0;fillColor=none;" parent="N6LhWgBp62tD6HMa2VJL-1" vertex="1">
          <mxGeometry x="2700.62" y="-1000.5" width="16" height="26" as="geometry" />
        </mxCell>
        <mxCell id="fXl1buOdOmaUu1pD_32y-31" value="" style="html=1;verticalLabelPosition=bottom;labelBackgroundColor=#ffffff;verticalAlign=top;shadow=0;dashed=0;strokeWidth=2;shape=mxgraph.ios7.misc.scroll_(horizontal);fillColor=#a0a0a0;fontSize=14;fontColor=#000000;align=left;" parent="N6LhWgBp62tD6HMa2VJL-1" vertex="1">
          <mxGeometry x="3023.5" y="-444" width="145" height="6" as="geometry" />
        </mxCell>
        <mxCell id="fXl1buOdOmaUu1pD_32y-32" value="" style="rounded=0;whiteSpace=wrap;html=1;fontSize=19;fillColor=none;" parent="N6LhWgBp62tD6HMa2VJL-1" vertex="1">
          <mxGeometry x="2914" y="-1154" width="357" height="50" as="geometry" />
        </mxCell>
        <mxCell id="fXl1buOdOmaUu1pD_32y-37" style="edgeStyle=orthogonalEdgeStyle;rounded=0;orthogonalLoop=1;jettySize=auto;html=1;fontSize=19;" parent="N6LhWgBp62tD6HMa2VJL-1" source="fXl1buOdOmaUu1pD_32y-34" edge="1">
          <mxGeometry relative="1" as="geometry">
            <Array as="points">
              <mxPoint x="2760" y="-1128" />
              <mxPoint x="2760" y="-1128" />
            </Array>
            <mxPoint x="2751.25" y="-1128" as="targetPoint" />
          </mxGeometry>
        </mxCell>
        <mxCell id="fXl1buOdOmaUu1pD_32y-49" value="Back" style="edgeLabel;html=1;align=center;verticalAlign=middle;resizable=0;points=[];fontSize=19;" parent="fXl1buOdOmaUu1pD_32y-37" vertex="1" connectable="0">
          <mxGeometry x="0.0884" relative="1" as="geometry">
            <mxPoint as="offset" />
          </mxGeometry>
        </mxCell>
        <mxCell id="fXl1buOdOmaUu1pD_32y-34" value="" style="html=1;verticalLabelPosition=bottom;labelBackgroundColor=#ffffff;verticalAlign=top;shadow=0;dashed=0;strokeWidth=2;shape=mxgraph.ios7.misc.left;strokeColor=#0080f0;fillColor=none;fontSize=25;align=left;" parent="N6LhWgBp62tD6HMa2VJL-1" vertex="1">
          <mxGeometry x="2940" y="-1141" width="17" height="26" as="geometry" />
        </mxCell>
        <mxCell id="fXl1buOdOmaUu1pD_32y-35" value="Funny" style="text;html=1;strokeColor=none;fillColor=none;align=center;verticalAlign=middle;whiteSpace=wrap;rounded=0;fontSize=19;" parent="N6LhWgBp62tD6HMa2VJL-1" vertex="1">
          <mxGeometry x="2990.63" y="-1139" width="210" height="20" as="geometry" />
        </mxCell>
        <mxCell id="fXl1buOdOmaUu1pD_32y-41" value="Edit" style="text;html=1;strokeColor=none;fillColor=none;align=center;verticalAlign=middle;whiteSpace=wrap;rounded=0;shadow=0;fontSize=13;fontColor=#007FFF;" parent="N6LhWgBp62tD6HMa2VJL-1" vertex="1">
          <mxGeometry x="3220" y="-1138" width="40" height="20" as="geometry" />
        </mxCell>
        <mxCell id="fXl1buOdOmaUu1pD_32y-42" value="" style="rounded=0;whiteSpace=wrap;html=1;fillColor=none;fontSize=19;align=left;" parent="N6LhWgBp62tD6HMa2VJL-1" vertex="1">
          <mxGeometry x="2914" y="-1104" width="357" height="49" as="geometry" />
        </mxCell>
        <mxCell id="fXl1buOdOmaUu1pD_32y-43" value="SPON - Wirtschaft" style="text;html=1;strokeColor=none;fillColor=none;align=center;verticalAlign=middle;whiteSpace=wrap;rounded=0;labelBackgroundColor=none;fontSize=16;fontColor=#000000;" parent="N6LhWgBp62tD6HMa2VJL-1" vertex="1">
          <mxGeometry x="2994.14" y="-1088.5" width="265.86" height="20" as="geometry" />
        </mxCell>
        <mxCell id="fXl1buOdOmaUu1pD_32y-44" value="" style="rounded=1;whiteSpace=wrap;html=1;labelBackgroundColor=none;fillColor=none;fontSize=16;fontColor=#000000;align=left;" parent="N6LhWgBp62tD6HMa2VJL-1" vertex="1">
          <mxGeometry x="2935.63" y="-1094.5" width="30" height="30" as="geometry" />
        </mxCell>
        <mxCell id="fXl1buOdOmaUu1pD_32y-46" value="" style="rounded=0;whiteSpace=wrap;html=1;fillColor=none;fontSize=19;align=left;" parent="N6LhWgBp62tD6HMa2VJL-1" vertex="1">
          <mxGeometry x="2914" y="-1055" width="357" height="49" as="geometry" />
        </mxCell>
        <mxCell id="fXl1buOdOmaUu1pD_32y-47" value="SPON - Wirtschaft" style="text;html=1;strokeColor=none;fillColor=none;align=center;verticalAlign=middle;whiteSpace=wrap;rounded=0;labelBackgroundColor=none;fontSize=16;fontColor=#000000;" parent="N6LhWgBp62tD6HMa2VJL-1" vertex="1">
          <mxGeometry x="2994.14" y="-1039.5" width="265.86" height="20" as="geometry" />
        </mxCell>
        <mxCell id="fXl1buOdOmaUu1pD_32y-48" value="" style="rounded=1;whiteSpace=wrap;html=1;labelBackgroundColor=none;fillColor=none;fontSize=16;fontColor=#000000;align=left;" parent="N6LhWgBp62tD6HMa2VJL-1" vertex="1">
          <mxGeometry x="2935.63" y="-1045.5" width="30" height="30" as="geometry" />
        </mxCell>
        <mxCell id="fXl1buOdOmaUu1pD_32y-51" value="" style="html=1;verticalLabelPosition=bottom;align=center;labelBackgroundColor=#ffffff;verticalAlign=top;strokeWidth=2;strokeColor=#0080F0;shadow=0;dashed=0;shape=mxgraph.ios7.icons.folder;fontSize=19;" parent="N6LhWgBp62tD6HMa2VJL-1" vertex="1">
          <mxGeometry x="1770" y="-1056" width="30" height="19.5" as="geometry" />
        </mxCell>
        <mxCell id="fXl1buOdOmaUu1pD_32y-58" value="Settings" style="text;html=1;strokeColor=none;fillColor=none;align=center;verticalAlign=middle;whiteSpace=wrap;rounded=0;fontSize=19;" parent="N6LhWgBp62tD6HMa2VJL-1" vertex="1">
          <mxGeometry x="1915.5" y="-1020.5" width="40" height="20" as="geometry" />
        </mxCell>
        <mxCell id="rbUkQHInW9VN2qn4slog-2" value="" style="html=1;verticalLabelPosition=bottom;labelBackgroundColor=#ffffff;verticalAlign=top;shadow=0;dashed=0;strokeWidth=2;shape=mxgraph.ios7.misc.scroll_(horizontal);fillColor=#a0a0a0;fontSize=14;fontColor=#000000;align=left;" parent="N6LhWgBp62tD6HMa2VJL-1" vertex="1">
          <mxGeometry x="-916.5" y="-332" width="145" height="6" as="geometry" />
        </mxCell>
        <mxCell id="rbUkQHInW9VN2qn4slog-9" style="edgeStyle=orthogonalEdgeStyle;rounded=0;orthogonalLoop=1;jettySize=auto;html=1;fontSize=16;" parent="N6LhWgBp62tD6HMa2VJL-1" source="rbUkQHInW9VN2qn4slog-8" edge="1">
          <mxGeometry relative="1" as="geometry">
            <Array as="points">
              <mxPoint x="-1080" y="-1017" />
              <mxPoint x="-1080" y="-1240" />
              <mxPoint x="-590" y="-1240" />
              <mxPoint x="-590" y="-702" />
            </Array>
            <mxPoint x="-460.00000000000045" y="-702" as="targetPoint" />
          </mxGeometry>
        </mxCell>
        <mxCell id="rbUkQHInW9VN2qn4slog-10" value="Back" style="edgeLabel;html=1;align=center;verticalAlign=middle;resizable=0;points=[];fontSize=16;" parent="rbUkQHInW9VN2qn4slog-9" vertex="1" connectable="0">
          <mxGeometry x="-0.5415" y="-1" relative="1" as="geometry">
            <mxPoint x="1" as="offset" />
          </mxGeometry>
        </mxCell>
        <mxCell id="rbUkQHInW9VN2qn4slog-8" value="" style="html=1;verticalLabelPosition=bottom;labelBackgroundColor=#ffffff;verticalAlign=top;shadow=0;dashed=0;strokeWidth=2;shape=mxgraph.ios7.misc.left;strokeColor=#0080f0;rounded=0;fillColor=none;fontSize=8;fontColor=#CCCCCC;align=left;" parent="N6LhWgBp62tD6HMa2VJL-1" vertex="1">
          <mxGeometry x="-1010" y="-1027" width="10" height="20" as="geometry" />
        </mxCell>
        <mxCell id="rbUkQHInW9VN2qn4slog-11" value="Article View" style="text;html=1;strokeColor=none;fillColor=none;align=center;verticalAlign=middle;whiteSpace=wrap;rounded=0;fontSize=25;" parent="N6LhWgBp62tD6HMa2VJL-1" vertex="1">
          <mxGeometry x="-440" y="-1118" width="312.5" height="20" as="geometry" />
        </mxCell>
        <mxCell id="rbUkQHInW9VN2qn4slog-14" value="Share Sheet" style="text;html=1;strokeColor=none;fillColor=none;align=center;verticalAlign=middle;whiteSpace=wrap;rounded=0;fontSize=25;" parent="N6LhWgBp62tD6HMa2VJL-1" vertex="1">
          <mxGeometry x="-1010" y="-1101.5" width="312.5" height="20" as="geometry" />
        </mxCell>
        <mxCell id="rbUkQHInW9VN2qn4slog-15" value="" style="rounded=1;whiteSpace=wrap;html=1;fontSize=16;" parent="N6LhWgBp62tD6HMa2VJL-1" vertex="1">
          <mxGeometry x="-977.5" y="-957" width="267" height="267" as="geometry" />
        </mxCell>
        <mxCell id="rbUkQHInW9VN2qn4slog-17" value="Lorem ipsum dolor sit amet, consetetur sadipscing elitr, sed diam nonumy eirmod tempor invidunt ut labore et dolore magna aliquyam erat, sed diam voluptua.&amp;nbsp;" style="text;html=1;strokeColor=none;fillColor=none;align=left;verticalAlign=middle;whiteSpace=wrap;rounded=0;fontSize=16;" parent="N6LhWgBp62tD6HMa2VJL-1" vertex="1">
          <mxGeometry x="-940" y="-917" width="190" height="157" as="geometry" />
        </mxCell>
        <mxCell id="rbUkQHInW9VN2qn4slog-18" value="- Source" style="text;html=1;strokeColor=none;fillColor=none;align=left;verticalAlign=middle;whiteSpace=wrap;rounded=0;fontSize=16;fontColor=#000000;" parent="N6LhWgBp62tD6HMa2VJL-1" vertex="1">
          <mxGeometry x="-850" y="-760" width="120" height="20" as="geometry" />
        </mxCell>
        <mxCell id="rbUkQHInW9VN2qn4slog-21" value="" style="html=1;verticalLabelPosition=bottom;labelBackgroundColor=#ffffff;verticalAlign=top;shadow=0;dashed=0;strokeWidth=2;shape=mxgraph.ios7.misc.scroll_(horizontal);fillColor=#a0a0a0;fontSize=14;fontColor=#000000;align=left;" parent="N6LhWgBp62tD6HMa2VJL-1" vertex="1">
          <mxGeometry x="3023.5" y="573" width="145" height="6" as="geometry" />
        </mxCell>
        <mxCell id="rbUkQHInW9VN2qn4slog-22" value="" style="rounded=0;whiteSpace=wrap;html=1;fontSize=16;fontColor=#000000;align=left;fillColor=none;" parent="N6LhWgBp62tD6HMa2VJL-1" vertex="1">
          <mxGeometry x="2921" y="-137" width="358" height="50" as="geometry" />
        </mxCell>
        <mxCell id="rbUkQHInW9VN2qn4slog-26" style="edgeStyle=orthogonalEdgeStyle;rounded=0;orthogonalLoop=1;jettySize=auto;html=1;fontSize=16;fontColor=#000000;" parent="N6LhWgBp62tD6HMa2VJL-1" source="rbUkQHInW9VN2qn4slog-25" edge="1">
          <mxGeometry relative="1" as="geometry">
            <mxPoint x="2555.666666666667" y="-410" as="targetPoint" />
          </mxGeometry>
        </mxCell>
        <mxCell id="rbUkQHInW9VN2qn4slog-25" value="" style="html=1;verticalLabelPosition=bottom;labelBackgroundColor=#ffffff;verticalAlign=top;shadow=0;dashed=0;strokeWidth=2;shape=mxgraph.ios7.misc.left;strokeColor=#0080f0;fillColor=none;fontSize=25;align=left;" parent="N6LhWgBp62tD6HMa2VJL-1" vertex="1">
          <mxGeometry x="2935.63" y="-125" width="17" height="26" as="geometry" />
        </mxCell>
        <mxCell id="rbUkQHInW9VN2qn4slog-41" style="edgeStyle=orthogonalEdgeStyle;rounded=0;orthogonalLoop=1;jettySize=auto;html=1;fontSize=16;fontColor=#000000;" parent="N6LhWgBp62tD6HMa2VJL-1" source="rbUkQHInW9VN2qn4slog-27" edge="1">
          <mxGeometry relative="1" as="geometry">
            <mxPoint x="3095.6571428571424" y="-404" as="targetPoint" />
          </mxGeometry>
        </mxCell>
        <mxCell id="rbUkQHInW9VN2qn4slog-27" value="Done" style="text;html=1;strokeColor=none;fillColor=none;align=center;verticalAlign=middle;whiteSpace=wrap;rounded=0;shadow=0;fontSize=13;fontColor=#007FFF;" parent="N6LhWgBp62tD6HMa2VJL-1" vertex="1">
          <mxGeometry x="3220" y="-122" width="40" height="20" as="geometry" />
        </mxCell>
        <mxCell id="rbUkQHInW9VN2qn4slog-28" value="" style="rounded=0;whiteSpace=wrap;html=1;fillColor=none;fontSize=19;align=left;" parent="N6LhWgBp62tD6HMa2VJL-1" vertex="1">
          <mxGeometry x="2921" y="-87" width="357" height="49" as="geometry" />
        </mxCell>
        <mxCell id="rbUkQHInW9VN2qn4slog-29" value="SPON - Wirtschaft" style="text;html=1;strokeColor=none;fillColor=none;align=center;verticalAlign=middle;whiteSpace=wrap;rounded=0;labelBackgroundColor=none;fontSize=16;fontColor=#000000;" parent="N6LhWgBp62tD6HMa2VJL-1" vertex="1">
          <mxGeometry x="2994.14" y="-71.5" width="265.86" height="20" as="geometry" />
        </mxCell>
        <mxCell id="rbUkQHInW9VN2qn4slog-30" value="" style="rounded=1;whiteSpace=wrap;html=1;labelBackgroundColor=none;fillColor=none;fontSize=16;fontColor=#000000;align=left;" parent="N6LhWgBp62tD6HMa2VJL-1" vertex="1">
          <mxGeometry x="2935.63" y="-77.5" width="30" height="30" as="geometry" />
        </mxCell>
        <mxCell id="rbUkQHInW9VN2qn4slog-31" value="" style="rounded=0;whiteSpace=wrap;html=1;fillColor=none;fontSize=19;align=left;" parent="N6LhWgBp62tD6HMa2VJL-1" vertex="1">
          <mxGeometry x="2921" y="-38" width="359" height="49" as="geometry" />
        </mxCell>
        <mxCell id="rbUkQHInW9VN2qn4slog-32" value="SPON - Wirtschaft" style="text;html=1;strokeColor=none;fillColor=none;align=center;verticalAlign=middle;whiteSpace=wrap;rounded=0;labelBackgroundColor=none;fontSize=16;fontColor=#000000;" parent="N6LhWgBp62tD6HMa2VJL-1" vertex="1">
          <mxGeometry x="2994.14" y="-22.5" width="265.86" height="20" as="geometry" />
        </mxCell>
        <mxCell id="rbUkQHInW9VN2qn4slog-33" value="" style="rounded=1;whiteSpace=wrap;html=1;labelBackgroundColor=none;fillColor=none;fontSize=16;fontColor=#000000;align=left;" parent="N6LhWgBp62tD6HMa2VJL-1" vertex="1">
          <mxGeometry x="2935.63" y="-28.5" width="30" height="30" as="geometry" />
        </mxCell>
        <mxCell id="rbUkQHInW9VN2qn4slog-34" value="" style="html=1;verticalLabelPosition=bottom;labelBackgroundColor=#ffffff;verticalAlign=top;shadow=0;dashed=0;strokeWidth=2;shape=mxgraph.ios7.misc.delete;fillColor=#ff0000;strokeColor=#ffffff;fontSize=16;fontColor=#000000;align=left;" parent="N6LhWgBp62tD6HMa2VJL-1" vertex="1">
          <mxGeometry x="3249" y="-69" width="12" height="12" as="geometry" />
        </mxCell>
        <mxCell id="rbUkQHInW9VN2qn4slog-35" value="" style="html=1;verticalLabelPosition=bottom;labelBackgroundColor=#ffffff;verticalAlign=top;shadow=0;dashed=0;strokeWidth=2;shape=mxgraph.ios7.misc.delete;fillColor=#ff0000;strokeColor=#ffffff;fontSize=16;fontColor=#000000;align=left;" parent="N6LhWgBp62tD6HMa2VJL-1" vertex="1">
          <mxGeometry x="3249" y="-21.5" width="12" height="12" as="geometry" />
        </mxCell>
        <mxCell id="rbUkQHInW9VN2qn4slog-73" style="edgeStyle=orthogonalEdgeStyle;rounded=0;orthogonalLoop=1;jettySize=auto;html=1;fontSize=16;fontColor=#000000;" parent="N6LhWgBp62tD6HMa2VJL-1" source="rbUkQHInW9VN2qn4slog-43" edge="1">
          <mxGeometry relative="1" as="geometry">
            <Array as="points">
              <mxPoint x="-750" y="342" />
              <mxPoint x="-750" y="200" />
              <mxPoint x="-1584" y="200" />
            </Array>
            <mxPoint x="-1583.9999999999995" y="267" as="targetPoint" />
          </mxGeometry>
        </mxCell>
        <mxCell id="rbUkQHInW9VN2qn4slog-43" value="Edit" style="text;html=1;strokeColor=none;fillColor=none;align=center;verticalAlign=middle;whiteSpace=wrap;rounded=0;shadow=0;fontSize=13;fontColor=#007FFF;" parent="N6LhWgBp62tD6HMa2VJL-1" vertex="1">
          <mxGeometry x="-835.5" y="332" width="40" height="20" as="geometry" />
        </mxCell>
        <mxCell id="rbUkQHInW9VN2qn4slog-48" value="" style="html=1;verticalLabelPosition=bottom;labelBackgroundColor=#ffffff;verticalAlign=top;shadow=0;dashed=0;strokeWidth=2;shape=mxgraph.ios7.misc.scroll_(horizontal);fillColor=#a0a0a0;fontSize=14;fontColor=#000000;align=left;" parent="N6LhWgBp62tD6HMa2VJL-1" vertex="1">
          <mxGeometry x="-1656.5" y="1037" width="145" height="6" as="geometry" />
        </mxCell>
        <mxCell id="rbUkQHInW9VN2qn4slog-49" value="" style="rounded=0;whiteSpace=wrap;html=1;fontSize=16;fontColor=#000000;align=left;fillColor=none;" parent="N6LhWgBp62tD6HMa2VJL-1" vertex="1">
          <mxGeometry x="-1759" y="327" width="359" height="50" as="geometry" />
        </mxCell>
        <mxCell id="rbUkQHInW9VN2qn4slog-71" style="edgeStyle=orthogonalEdgeStyle;rounded=0;orthogonalLoop=1;jettySize=auto;html=1;fontSize=16;fontColor=#000000;" parent="N6LhWgBp62tD6HMa2VJL-1" source="rbUkQHInW9VN2qn4slog-51" edge="1">
          <mxGeometry relative="1" as="geometry">
            <Array as="points">
              <mxPoint x="-1790" y="352" />
              <mxPoint x="-1790" y="160" />
            </Array>
            <mxPoint x="-570" y="160" as="targetPoint" />
          </mxGeometry>
        </mxCell>
        <mxCell id="rbUkQHInW9VN2qn4slog-51" value="" style="html=1;verticalLabelPosition=bottom;labelBackgroundColor=#ffffff;verticalAlign=top;shadow=0;dashed=0;strokeWidth=2;shape=mxgraph.ios7.misc.left;strokeColor=#0080f0;rounded=0;fillColor=none;fontSize=8;fontColor=#CCCCCC;align=left;" parent="N6LhWgBp62tD6HMa2VJL-1" vertex="1">
          <mxGeometry x="-1748" y="342" width="10" height="20" as="geometry" />
        </mxCell>
        <mxCell id="rbUkQHInW9VN2qn4slog-52" value="Edit Filter Keywords" style="text;html=1;strokeColor=none;fillColor=none;align=center;verticalAlign=middle;whiteSpace=wrap;rounded=0;shadow=0;fontSize=11;" parent="N6LhWgBp62tD6HMa2VJL-1" vertex="1">
          <mxGeometry x="-1647" y="342" width="146" height="20" as="geometry" />
        </mxCell>
        <mxCell id="rbUkQHInW9VN2qn4slog-72" style="edgeStyle=orthogonalEdgeStyle;rounded=0;orthogonalLoop=1;jettySize=auto;html=1;fontSize=16;fontColor=#000000;" parent="N6LhWgBp62tD6HMa2VJL-1" source="rbUkQHInW9VN2qn4slog-53" edge="1">
          <mxGeometry relative="1" as="geometry">
            <mxPoint x="-1190" y="750" as="targetPoint" />
            <Array as="points">
              <mxPoint x="-1300" y="352" />
              <mxPoint x="-1300" y="750" />
            </Array>
          </mxGeometry>
        </mxCell>
        <mxCell id="rbUkQHInW9VN2qn4slog-53" value="Done" style="text;html=1;strokeColor=none;fillColor=none;align=center;verticalAlign=middle;whiteSpace=wrap;rounded=0;shadow=0;fontSize=13;fontColor=#007FFF;" parent="N6LhWgBp62tD6HMa2VJL-1" vertex="1">
          <mxGeometry x="-1450" y="342" width="40" height="20" as="geometry" />
        </mxCell>
        <mxCell id="rbUkQHInW9VN2qn4slog-54" value="" style="rounded=0;whiteSpace=wrap;html=1;shadow=0;fillColor=none;fontSize=13;fontColor=#000000;align=left;" parent="N6LhWgBp62tD6HMa2VJL-1" vertex="1">
          <mxGeometry x="-1760" y="377" width="360" height="40" as="geometry" />
        </mxCell>
        <mxCell id="rbUkQHInW9VN2qn4slog-55" value="Trump" style="text;html=1;strokeColor=none;fillColor=none;align=left;verticalAlign=middle;whiteSpace=wrap;rounded=0;shadow=0;fontSize=18;fontColor=#000000;" parent="N6LhWgBp62tD6HMa2VJL-1" vertex="1">
          <mxGeometry x="-1747" y="387" width="107" height="20" as="geometry" />
        </mxCell>
        <mxCell id="rbUkQHInW9VN2qn4slog-57" value="" style="rounded=0;whiteSpace=wrap;html=1;shadow=0;fillColor=none;fontSize=13;fontColor=#000000;align=left;" parent="N6LhWgBp62tD6HMa2VJL-1" vertex="1">
          <mxGeometry x="-1759" y="417" width="359" height="40" as="geometry" />
        </mxCell>
        <mxCell id="rbUkQHInW9VN2qn4slog-58" value="China" style="text;html=1;strokeColor=none;fillColor=none;align=left;verticalAlign=middle;whiteSpace=wrap;rounded=0;shadow=0;fontSize=18;fontColor=#000000;" parent="N6LhWgBp62tD6HMa2VJL-1" vertex="1">
          <mxGeometry x="-1746" y="427" width="107" height="20" as="geometry" />
        </mxCell>
        <mxCell id="rbUkQHInW9VN2qn4slog-60" value="" style="rounded=0;whiteSpace=wrap;html=1;shadow=0;fillColor=none;fontSize=13;fontColor=#000000;align=left;" parent="N6LhWgBp62tD6HMa2VJL-1" vertex="1">
          <mxGeometry x="-1760" y="457" width="360" height="40" as="geometry" />
        </mxCell>
        <mxCell id="rbUkQHInW9VN2qn4slog-61" value="Corona, Covid" style="text;html=1;strokeColor=none;fillColor=none;align=left;verticalAlign=middle;whiteSpace=wrap;rounded=0;shadow=0;fontSize=18;fontColor=#000000;" parent="N6LhWgBp62tD6HMa2VJL-1" vertex="1">
          <mxGeometry x="-1747" y="467" width="267" height="20" as="geometry" />
        </mxCell>
        <mxCell id="rbUkQHInW9VN2qn4slog-64" value="" style="html=1;verticalLabelPosition=bottom;labelBackgroundColor=#ffffff;verticalAlign=top;shadow=0;dashed=0;strokeWidth=2;shape=mxgraph.ios7.misc.delete;fillColor=#ff0000;strokeColor=#ffffff;fontSize=16;fontColor=#000000;align=left;" parent="N6LhWgBp62tD6HMa2VJL-1" vertex="1">
          <mxGeometry x="-1428" y="391" width="12" height="12" as="geometry" />
        </mxCell>
        <mxCell id="rbUkQHInW9VN2qn4slog-65" value="" style="html=1;verticalLabelPosition=bottom;labelBackgroundColor=#ffffff;verticalAlign=top;shadow=0;dashed=0;strokeWidth=2;shape=mxgraph.ios7.misc.delete;fillColor=#ff0000;strokeColor=#ffffff;fontSize=16;fontColor=#000000;align=left;" parent="N6LhWgBp62tD6HMa2VJL-1" vertex="1">
          <mxGeometry x="-1428" y="431" width="12" height="12" as="geometry" />
        </mxCell>
        <mxCell id="rbUkQHInW9VN2qn4slog-66" value="" style="html=1;verticalLabelPosition=bottom;labelBackgroundColor=#ffffff;verticalAlign=top;shadow=0;dashed=0;strokeWidth=2;shape=mxgraph.ios7.misc.delete;fillColor=#ff0000;strokeColor=#ffffff;fontSize=16;fontColor=#000000;align=left;" parent="N6LhWgBp62tD6HMa2VJL-1" vertex="1">
          <mxGeometry x="-1428" y="471" width="12" height="12" as="geometry" />
        </mxCell>
        <mxCell id="rbUkQHInW9VN2qn4slog-69" value="Add Feed" style="text;html=1;strokeColor=none;fillColor=none;align=center;verticalAlign=middle;whiteSpace=wrap;rounded=0;labelBackgroundColor=none;fontSize=16;fontColor=#000000;" parent="N6LhWgBp62tD6HMa2VJL-1" vertex="1">
          <mxGeometry x="-1700" y="512" width="265.86" height="20" as="geometry" />
        </mxCell>
        <mxCell id="rbUkQHInW9VN2qn4slog-70" value="" style="html=1;verticalLabelPosition=bottom;labelBackgroundColor=#ffffff;verticalAlign=top;shadow=0;dashed=0;strokeWidth=2;shape=mxgraph.ios7.misc.add;fillColor=#00dd00;strokeColor=#ffffff;fontSize=16;fontColor=#000000;align=left;" parent="N6LhWgBp62tD6HMa2VJL-1" vertex="1">
          <mxGeometry x="-1620" y="516" width="12" height="12" as="geometry" />
        </mxCell>
        <mxCell id="_nqDkGNq7Y63URd8M28O-0" value="" style="rounded=1;whiteSpace=wrap;html=1;" parent="N6LhWgBp62tD6HMa2VJL-1" vertex="1">
          <mxGeometry x="3140" y="-1119.1" width="120" height="60" as="geometry" />
        </mxCell>
        <mxCell id="orDnvlcrRDZUVHWyzbNt-105" style="edgeStyle=orthogonalEdgeStyle;rounded=0;orthogonalLoop=1;jettySize=auto;html=1;exitX=1;exitY=0.5;exitDx=0;exitDy=0;fontColor=#000000;" edge="1" parent="N6LhWgBp62tD6HMa2VJL-1" source="_nqDkGNq7Y63URd8M28O-1" target="orDnvlcrRDZUVHWyzbNt-94">
          <mxGeometry relative="1" as="geometry">
            <Array as="points">
              <mxPoint x="3459" y="-1104" />
              <mxPoint x="3459" y="-1160" />
            </Array>
          </mxGeometry>
        </mxCell>
        <mxCell id="_nqDkGNq7Y63URd8M28O-1" value="Add Feed" style="text;html=1;strokeColor=none;fillColor=none;align=center;verticalAlign=middle;whiteSpace=wrap;rounded=0;" parent="N6LhWgBp62tD6HMa2VJL-1" vertex="1">
          <mxGeometry x="3150" y="-1114" width="100" height="20" as="geometry" />
        </mxCell>
        <mxCell id="_nqDkGNq7Y63URd8M28O-2" value="Remove Feeds" style="text;html=1;strokeColor=none;fillColor=none;align=center;verticalAlign=middle;whiteSpace=wrap;rounded=0;" parent="N6LhWgBp62tD6HMa2VJL-1" vertex="1">
          <mxGeometry x="3152" y="-1084.5" width="100" height="20" as="geometry" />
        </mxCell>
        <mxCell id="_nqDkGNq7Y63URd8M28O-3" value="" style="endArrow=none;html=1;entryX=1;entryY=0.5;entryDx=0;entryDy=0;exitX=0;exitY=0.5;exitDx=0;exitDy=0;" parent="N6LhWgBp62tD6HMa2VJL-1" source="_nqDkGNq7Y63URd8M28O-0" target="_nqDkGNq7Y63URd8M28O-0" edge="1">
          <mxGeometry width="50" height="50" relative="1" as="geometry">
            <mxPoint x="3170" y="-1060" as="sourcePoint" />
            <mxPoint x="3220" y="-1110" as="targetPoint" />
          </mxGeometry>
        </mxCell>
        <mxCell id="_nqDkGNq7Y63URd8M28O-22" value="" style="rounded=0;whiteSpace=wrap;html=1;labelBackgroundColor=none;fillColor=none;fontSize=16;fontColor=#000000;align=left;" parent="N6LhWgBp62tD6HMa2VJL-1" vertex="1">
          <mxGeometry x="3670" y="-1157.1" width="358" height="50" as="geometry" />
        </mxCell>
        <mxCell id="_nqDkGNq7Y63URd8M28O-23" value="" style="html=1;verticalLabelPosition=bottom;labelBackgroundColor=#ffffff;verticalAlign=top;shadow=0;dashed=0;strokeWidth=2;shape=mxgraph.ios7.misc.left;strokeColor=#0080f0;fillColor=none;fontSize=25;align=left;" parent="N6LhWgBp62tD6HMa2VJL-1" vertex="1">
          <mxGeometry x="3680" y="-1145.1" width="17" height="26" as="geometry" />
        </mxCell>
        <mxCell id="_nqDkGNq7Y63URd8M28O-30" value="Funny" style="text;html=1;strokeColor=none;fillColor=none;align=center;verticalAlign=middle;whiteSpace=wrap;rounded=0;fontSize=19;" parent="N6LhWgBp62tD6HMa2VJL-1" vertex="1">
          <mxGeometry x="3741" y="-1142.1" width="210" height="20" as="geometry" />
        </mxCell>
        <mxCell id="_nqDkGNq7Y63URd8M28O-35" value="Edit" style="text;html=1;strokeColor=none;fillColor=none;align=center;verticalAlign=middle;whiteSpace=wrap;rounded=0;shadow=0;fontSize=13;fontColor=#007FFF;" parent="N6LhWgBp62tD6HMa2VJL-1" vertex="1">
          <mxGeometry x="3960" y="-1142.1" width="40" height="20" as="geometry" />
        </mxCell>
        <mxCell id="rbUkQHInW9VN2qn4slog-42" style="edgeStyle=orthogonalEdgeStyle;rounded=0;orthogonalLoop=1;jettySize=auto;html=1;fontSize=16;fontColor=#000000;exitX=1;exitY=0.5;exitDx=0;exitDy=0;" parent="N6LhWgBp62tD6HMa2VJL-1" source="_nqDkGNq7Y63URd8M28O-2" edge="1">
          <mxGeometry relative="1" as="geometry">
            <mxPoint x="3291.25" y="208" as="targetPoint" />
            <Array as="points">
              <mxPoint x="3370" y="-1075" />
              <mxPoint x="3370" y="208" />
            </Array>
          </mxGeometry>
        </mxCell>
        <mxCell id="_nqDkGNq7Y63URd8M28O-37" value="" style="rounded=1;whiteSpace=wrap;html=1;" parent="N6LhWgBp62tD6HMa2VJL-1" vertex="1">
          <mxGeometry x="3671" y="-1140" width="354" height="709.67" as="geometry" />
        </mxCell>
        <mxCell id="_nqDkGNq7Y63URd8M28O-21" value="" style="html=1;verticalLabelPosition=bottom;labelBackgroundColor=#ffffff;verticalAlign=top;shadow=0;dashed=0;strokeWidth=2;shape=mxgraph.ios7.misc.scroll_(horizontal);fillColor=#a0a0a0;fontSize=14;fontColor=#000000;align=left;" parent="N6LhWgBp62tD6HMa2VJL-1" vertex="1">
          <mxGeometry x="3773.5" y="-447.1" width="145" height="6" as="geometry" />
        </mxCell>
        <mxCell id="_nqDkGNq7Y63URd8M28O-39" value="Select Feed" style="text;html=1;strokeColor=none;fillColor=none;align=center;verticalAlign=middle;whiteSpace=wrap;rounded=0;" parent="N6LhWgBp62tD6HMa2VJL-1" vertex="1">
          <mxGeometry x="3774" y="-1134" width="144" height="20" as="geometry" />
        </mxCell>
        <mxCell id="_nqDkGNq7Y63URd8M28O-54" style="edgeStyle=orthogonalEdgeStyle;rounded=0;orthogonalLoop=1;jettySize=auto;html=1;" parent="N6LhWgBp62tD6HMa2VJL-1" source="_nqDkGNq7Y63URd8M28O-43" edge="1">
          <mxGeometry relative="1" as="geometry">
            <Array as="points">
              <mxPoint x="3481" y="-1067" />
              <mxPoint x="3481" y="-680" />
            </Array>
            <mxPoint x="3291.25" y="-680" as="targetPoint" />
          </mxGeometry>
        </mxCell>
        <mxCell id="_nqDkGNq7Y63URd8M28O-43" value="" style="rounded=0;whiteSpace=wrap;html=1;fillColor=none;fontSize=19;align=left;" parent="N6LhWgBp62tD6HMa2VJL-1" vertex="1">
          <mxGeometry x="3670.63" y="-1091" width="354.37" height="49" as="geometry" />
        </mxCell>
        <mxCell id="_nqDkGNq7Y63URd8M28O-44" value="SPON - Blub" style="text;html=1;strokeColor=none;fillColor=none;align=center;verticalAlign=middle;whiteSpace=wrap;rounded=0;labelBackgroundColor=none;fontSize=16;fontColor=#000000;" parent="N6LhWgBp62tD6HMa2VJL-1" vertex="1">
          <mxGeometry x="3743.77" y="-1075.5" width="265.86" height="20" as="geometry" />
        </mxCell>
        <mxCell id="_nqDkGNq7Y63URd8M28O-45" value="" style="rounded=1;whiteSpace=wrap;html=1;labelBackgroundColor=none;fillColor=none;fontSize=16;fontColor=#000000;align=left;" parent="N6LhWgBp62tD6HMa2VJL-1" vertex="1">
          <mxGeometry x="3685.26" y="-1081.5" width="30" height="30" as="geometry" />
        </mxCell>
        <mxCell id="_nqDkGNq7Y63URd8M28O-55" style="edgeStyle=orthogonalEdgeStyle;rounded=0;orthogonalLoop=1;jettySize=auto;html=1;" parent="N6LhWgBp62tD6HMa2VJL-1" source="_nqDkGNq7Y63URd8M28O-46" edge="1">
          <mxGeometry relative="1" as="geometry">
            <Array as="points">
              <mxPoint x="3481" y="-1017" />
              <mxPoint x="3481" y="-680" />
            </Array>
            <mxPoint x="3291.25" y="-680" as="targetPoint" />
          </mxGeometry>
        </mxCell>
        <mxCell id="_nqDkGNq7Y63URd8M28O-46" value="" style="rounded=0;whiteSpace=wrap;html=1;fillColor=none;fontSize=19;align=left;" parent="N6LhWgBp62tD6HMa2VJL-1" vertex="1">
          <mxGeometry x="3670.63" y="-1042" width="354.37" height="49" as="geometry" />
        </mxCell>
        <mxCell id="_nqDkGNq7Y63URd8M28O-47" value="SPON - (&amp;gt;O.o)&amp;gt;" style="text;html=1;strokeColor=none;fillColor=none;align=center;verticalAlign=middle;whiteSpace=wrap;rounded=0;labelBackgroundColor=none;fontSize=16;fontColor=#000000;" parent="N6LhWgBp62tD6HMa2VJL-1" vertex="1">
          <mxGeometry x="3743.77" y="-1026.5" width="265.86" height="20" as="geometry" />
        </mxCell>
        <mxCell id="_nqDkGNq7Y63URd8M28O-48" value="" style="rounded=1;whiteSpace=wrap;html=1;labelBackgroundColor=none;fillColor=none;fontSize=16;fontColor=#000000;align=left;" parent="N6LhWgBp62tD6HMa2VJL-1" vertex="1">
          <mxGeometry x="3685.26" y="-1032.5" width="30" height="30" as="geometry" />
        </mxCell>
        <mxCell id="_nqDkGNq7Y63URd8M28O-56" style="edgeStyle=orthogonalEdgeStyle;rounded=0;orthogonalLoop=1;jettySize=auto;html=1;" parent="N6LhWgBp62tD6HMa2VJL-1" source="_nqDkGNq7Y63URd8M28O-49" edge="1">
          <mxGeometry relative="1" as="geometry">
            <Array as="points">
              <mxPoint x="3481" y="-969" />
              <mxPoint x="3481" y="-680" />
            </Array>
            <mxPoint x="3291.25" y="-680" as="targetPoint" />
          </mxGeometry>
        </mxCell>
        <mxCell id="_nqDkGNq7Y63URd8M28O-49" value="" style="rounded=0;whiteSpace=wrap;html=1;fillColor=none;fontSize=19;align=left;" parent="N6LhWgBp62tD6HMa2VJL-1" vertex="1">
          <mxGeometry x="3670.63" y="-993" width="354.37" height="49" as="geometry" />
        </mxCell>
        <mxCell id="_nqDkGNq7Y63URd8M28O-50" value="SPON - Zeugs" style="text;html=1;strokeColor=none;fillColor=none;align=center;verticalAlign=middle;whiteSpace=wrap;rounded=0;labelBackgroundColor=none;fontSize=16;fontColor=#000000;" parent="N6LhWgBp62tD6HMa2VJL-1" vertex="1">
          <mxGeometry x="3743.77" y="-977.5" width="265.86" height="20" as="geometry" />
        </mxCell>
        <mxCell id="_nqDkGNq7Y63URd8M28O-51" value="" style="rounded=1;whiteSpace=wrap;html=1;labelBackgroundColor=none;fillColor=none;fontSize=16;fontColor=#000000;align=left;" parent="N6LhWgBp62tD6HMa2VJL-1" vertex="1">
          <mxGeometry x="3685.26" y="-983.5" width="30" height="30" as="geometry" />
        </mxCell>
        <mxCell id="_nqDkGNq7Y63URd8M28O-53" value="Add Feed View" style="text;html=1;strokeColor=none;fillColor=none;align=center;verticalAlign=middle;whiteSpace=wrap;rounded=0;fontSize=25;" parent="N6LhWgBp62tD6HMa2VJL-1" vertex="1">
          <mxGeometry x="3697.13" y="-1220" width="312.5" height="20" as="geometry" />
        </mxCell>
        <mxCell id="WeEZjBKaHQsx8kPnUEl9-1" style="edgeStyle=orthogonalEdgeStyle;rounded=0;orthogonalLoop=1;jettySize=auto;html=1;" parent="N6LhWgBp62tD6HMa2VJL-1" source="WeEZjBKaHQsx8kPnUEl9-0" target="fXl1buOdOmaUu1pD_32y-44" edge="1">
          <mxGeometry relative="1" as="geometry" />
        </mxCell>
        <mxCell id="WeEZjBKaHQsx8kPnUEl9-0" value="Feed provider Icon" style="text;html=1;strokeColor=none;fillColor=none;align=center;verticalAlign=middle;whiteSpace=wrap;rounded=0;" parent="N6LhWgBp62tD6HMa2VJL-1" vertex="1">
          <mxGeometry x="2770" y="-1089.5" width="111.25" height="20" as="geometry" />
        </mxCell>
      </root>
    </mxGraphModel>
  </diagram>
</mxfile>
